<svg width="24" height="24" viewBox="0 0 24 24" fill="none" xmlns="http://www.w3.org/2000/svg">
<g clip-path="url(#clip0_1407_15958)">
<path d="M6.78262 22.8093C8.36025 23.5721 10.1301 24 12 24C13.8699 24 15.6397 23.5721 17.2174 22.8093L18.2609 12L17.2174 1.19072C15.6397 0.427875 13.8699 0 12 0C10.1301 0 8.36025 0.427875 6.78262 1.19072L5.73914 12L6.78262 22.8093Z" fill="#FFDA44"/>
<path d="M17.2174 22.8089C21.2314 20.868 24 16.7575 24 12C24 7.24252 21.2314 3.13205 17.2174 1.19115V22.8089Z" fill="#D80027"/>
<path d="M6.78263 22.8089V1.19115C2.76867 3.13205 0 7.24248 0 12C0 16.7575 2.76867 20.868 6.78263 22.8089Z" fill="#0052B4"/>
<path d="M12 16.1739C12 14.259 12 12 12 12H15.1305V13.5652C15.1305 13.8371 14.6087 14.8335 13.3209 15.6522C12.8332 15.9623 12.3283 16.062 12 16.1739Z" fill="#D80027"/>
<path d="M8.86951 8.86955H12V12H8.86951V8.86955Z" fill="#D80027"/>
<path d="M13.5651 7.82611C13.5651 7.24978 13.0979 6.78262 12.5217 6.78262C12.3313 6.78262 12.1535 6.83437 11.9999 6.92334C11.8463 6.83437 11.6685 6.78262 11.4782 6.78262C10.9019 6.78262 10.4347 7.24978 10.4347 7.82611H7.82605V13.0434C7.82605 14.9857 9.36852 16.109 10.5781 16.6913C10.4876 16.8459 10.4347 17.0253 10.4347 17.2174C10.4347 17.7937 10.9019 18.2609 11.4782 18.2609C11.6685 18.2609 11.8464 18.2092 11.9999 18.1202C12.1535 18.2092 12.3313 18.2609 12.5217 18.2609C13.0979 18.2609 13.5651 17.7937 13.5651 17.2174C13.5651 17.0253 13.5123 16.8459 13.4217 16.6913C14.6313 16.109 16.1738 14.9858 16.1738 13.0434V7.82611H13.5651ZM14.6086 13.0434C14.6086 13.3154 14.6086 14.1427 13.3209 14.9615C12.8331 15.2716 12.3283 15.4727 11.9999 15.5845C11.6716 15.4727 11.1668 15.2716 10.679 14.9615C9.39125 14.1427 9.39125 13.3154 9.39125 13.0434V9.39131H14.6086V13.0434Z" fill="#FF9811"/>
</g>
<defs>
<clipPath id="clip0_1407_15958">
<rect width="24" height="24" fill="white"/>
</clipPath>
</defs>
</svg>
