<svg width="24" height="24" viewBox="0 0 24 24" fill="none" xmlns="http://www.w3.org/2000/svg">
<path d="M13 7H24L21.2372 1.62796C20.7232 0.628356 19.6934 0 18.5694 0H13V7Z" fill="#273142"/>
<path d="M11 7V0H5.43063C4.30658 0 3.27684 0.628358 2.76276 1.62796L0 7H11Z" fill="#273142"/>
<path d="M0 9H24V12.2876C22.695 11.4716 21.1526 11 19.5 11C14.8056 11 11 14.8056 11 19.5C11 21.1526 11.4716 22.695 12.2876 24H3C1.34315 24 0 22.6569 0 21V9Z" fill="#273142"/>
<path d="M13.5 18.75C13.5 18.0596 14.0596 17.5 14.75 17.5H22.75C23.4404 17.5 24 18.0596 24 18.75C24 19.4404 23.4404 20 22.75 20H14.75C14.0596 20 13.5 19.4404 13.5 18.75Z" fill="#273142"/>
<path d="M18.75 24C18.0596 24 17.5 23.4404 17.5 22.75L17.5 15.25C17.5 14.5596 18.0596 14 18.75 14C19.4404 14 20 14.5596 20 15.25L20 22.75C20 23.4404 19.4404 24 18.75 24Z" fill="#273142"/>
</svg>
