<svg width="24" height="24" viewBox="0 0 24 24" fill="none" xmlns="http://www.w3.org/2000/svg">
<path fill-rule="evenodd" clip-rule="evenodd" d="M18 12C21.3137 12 24 9.31371 24 6C24 2.68629 21.3137 0 18 0C14.6863 0 12 2.68629 12 6C12 9.31371 14.6863 12 18 12ZM15.4286 5.14286C14.9552 5.14286 14.5714 5.52661 14.5714 6C14.5714 6.47339 14.9552 6.85714 15.4286 6.85714H17.1429V8.57143C17.1429 9.04482 17.5266 9.42857 18 9.42857C18.4734 9.42857 18.8571 9.04482 18.8571 8.57143V6.85714H20.5714C21.0448 6.85714 21.4286 6.47339 21.4286 6C21.4286 5.52661 21.0448 5.14286 20.5714 5.14286H18.8571V3.42857C18.8571 2.95518 18.4734 2.57143 18 2.57143C17.5266 2.57143 17.1429 2.95518 17.1429 3.42857V5.14286H15.4286Z" fill="#273142"/>
<path d="M10 6H8.39279C7.73011 6 7.11045 6.32825 6.73818 6.8765L5.5 8.7H4C1.79086 8.7 0 10.4909 0 12.7V20C0 22.2091 1.79086 24 4 24H18C20.2091 24 22 22.2091 22 20V12.9297C20.8233 13.6104 19.4571 14 18 14C16.7534 14 15.5735 13.7149 14.5217 13.2063C15.0838 13.9573 15.4167 14.8898 15.4167 15.9C15.4167 18.3853 13.4019 20.4 10.9167 20.4C8.43139 20.4 6.41667 18.3853 6.41667 15.9C6.41667 13.4147 8.43139 11.4 10.9167 11.4C11.401 11.4 11.8675 11.4765 12.3047 11.6181C10.8796 10.1736 10 8.18952 10 6Z" fill="#273142"/>
<path d="M10.9167 18.4C12.2974 18.4 13.4167 17.2807 13.4167 15.9C13.4167 14.5193 12.2974 13.4 10.9167 13.4C9.53595 13.4 8.41667 14.5193 8.41667 15.9C8.41667 17.2807 9.53595 18.4 10.9167 18.4Z" fill="#273142"/>
</svg>
