<svg width="24" height="24" viewBox="0 0 24 24" fill="none" xmlns="http://www.w3.org/2000/svg">
<g clip-path="url(#clip0_1407_15961)">
<path d="M0 12C0 12.822 0.082875 13.6246 0.240328 14.4L12 15.1305L23.7597 14.4C23.9172 13.6246 24 12.822 24 12C24 11.1781 23.9171 10.3755 23.7597 9.60001L12 8.86955L0.240328 9.60001C0.082875 10.3755 0 11.1781 0 12H0Z" fill="#0052B4"/>
<path d="M23.7597 14.4H0.240356C1.35218 19.8773 6.19461 24 12 24C17.8055 24 22.6479 19.8773 23.7597 14.4Z" fill="#F0F0F0"/>
<path d="M0.240356 9.6H23.7598C22.6479 4.12266 17.8055 0 12 0C6.19451 0 1.35218 4.12266 0.240356 9.6Z" fill="black"/>
<path d="M17.2173 9.6H6.78259L8.91447 8.59716L7.7792 6.53255L10.0941 6.97528L10.3876 4.63673L12 6.35676L13.6125 4.63673L13.9057 6.97528L16.2207 6.53255L15.0856 8.59725L17.2173 9.6Z" fill="#FFDA44"/>
<path d="M0 12C0 18.6274 5.37262 24 12 24L2.39981 4.79958C0.893062 6.80531 0 9.29826 0 12Z" fill="#A2001D"/>
<path d="M12 24C18.6274 24 24 18.6274 24 12C24 9.29826 23.1069 6.80531 21.6002 4.79958L12 24Z" fill="#A2001D"/>
</g>
<defs>
<clipPath id="clip0_1407_15961">
<rect width="24" height="24" fill="white"/>
</clipPath>
</defs>
</svg>
