<svg width="20" height="20" viewBox="0 0 20 20" fill="none" xmlns="http://www.w3.org/2000/svg">
<path fill-rule="evenodd" clip-rule="evenodd" d="M10 0C15.5228 0 20 4.47715 20 10C20 15.5228 15.5228 20 10 20C4.47715 20 0 15.5228 0 10C0 4.47715 4.47715 0 10 0ZM8.74176 6.071C8.70056 5.49222 9.15899 5 9.73923 5H10.261C10.8412 5 11.2996 5.49222 11.2584 6.071L10.953 10.3625C10.9174 10.8625 10.5014 11.25 10.0001 11.25C9.49882 11.25 9.0828 10.8625 9.04721 10.3625L8.74176 6.071ZM10 15C10.6904 15 11.25 14.4404 11.25 13.75C11.25 13.0596 10.6904 12.5 10 12.5C9.30964 12.5 8.75 13.0596 8.75 13.75C8.75 14.4404 9.30964 15 10 15Z" fill="#273142"/>
</svg>
