<svg width="24" height="24" viewBox="0 0 24 24" fill="none" xmlns="http://www.w3.org/2000/svg">
<path d="M21 12H20V13V18C20 18.5523 19.5523 19 19 19C18.4477 19 18 18.5523 18 18V2C18 1.44772 18.4477 1 19 1C19.5523 1 20 1.44772 20 2V7V8H21C22.1046 8 23 8.89543 23 10C23 11.1046 22.1046 12 21 12ZM5.38058 15.8039L5.2198 15H4.4H2.99852C1.8946 15 1 14.1052 1 13V8C1 6.89479 1.8946 6 2.99852 6H9.5C11.3134 6 12.8049 5.67364 14 5.21967V15.5176C13.0272 15.2715 11.8486 15.0805 10.4469 15.0201L9.17324 14.9652L9.42325 16.2153L10.541 21.8039C10.6647 22.4227 10.1914 23 9.56039 23H7.63961C7.16293 23 6.75251 22.6635 6.65903 22.1961L5.38058 15.8039Z" fill="#273142" stroke="#273142" stroke-width="2"/>
</svg>
