<svg width="24" height="24" viewBox="0 0 24 24" fill="none" xmlns="http://www.w3.org/2000/svg">
<g clip-path="url(#clip0_1407_15974)">
<path d="M12 24C18.6274 24 24 18.6274 24 12C24 5.37258 18.6274 0 12 0C5.37258 0 0 5.37258 0 12C0 18.6274 5.37258 24 12 24Z" fill="#FFDA44"/>
<path d="M12.0001 24C15.6371 24 18.896 22.3817 21.0967 19.8261H2.90344C5.10408 22.3817 8.36297 24 12.0001 24Z" fill="#338AF3"/>
<path d="M24 12C24 5.37262 18.6274 0 12 0C5.37262 0 0 5.37262 0 12C0 13.0831 0.144375 14.1323 0.413391 15.1305H23.5867C23.8556 14.1323 24 13.0831 24 12Z" fill="#338AF3"/>
<path d="M0.953857 16.6956C1.18519 17.2392 1.45561 17.762 1.76128 18.2609H22.2387C22.5444 17.7619 22.8148 17.2392 23.0462 16.6956H0.953857Z" fill="#338AF3"/>
<path d="M5.49929 7.56858L3.15479 6.53387L5.49929 5.49915L6.53396 3.15469L7.56863 5.49915L9.91308 6.53387L7.56863 7.56858L6.53396 9.91304L5.49929 7.56858Z" fill="#F0F0F0"/>
<path d="M6.53387 4.44688L7.17282 5.89481L8.62079 6.53385L7.17282 7.17285L6.53387 8.62078L5.89482 7.17285L4.4469 6.53385L5.89482 5.89481L6.53387 4.44688Z" fill="#D80027"/>
</g>
<defs>
<clipPath id="clip0_1407_15974">
<rect width="24" height="24" fill="white"/>
</clipPath>
</defs>
</svg>
