<svg width="24" height="24" viewBox="0 0 24 24" fill="none" xmlns="http://www.w3.org/2000/svg">
<g clip-path="url(#clip0_1407_15954)">
<path d="M23.5866 15.1305C23.8556 14.1323 24 13.0831 24 12C24 10.9169 23.8556 9.8677 23.5866 8.86954L10.9565 0.0456543C8.61178 0.247686 6.46008 1.12378 4.69566 2.47945L0.413391 8.86954C0.144375 9.8677 0 10.9169 0 12C0 13.0768 0.142641 14.1202 0.408656 15.1131L4.69561 21.5205C6.46003 22.8762 8.61173 23.7524 10.9565 23.9543L23.5866 15.1305Z" fill="#FFDA44"/>
<path d="M0.41333 15.1304C1.10764 17.7067 2.63788 19.9395 4.6956 21.5205V15.1304H0.41333Z" fill="#0052B4"/>
<path d="M10.9564 23.9543C11.3004 23.984 11.6482 24 11.9999 24C17.5442 24 22.2095 20.2396 23.5865 15.1304H10.9564V23.9543Z" fill="#0052B4"/>
<path d="M23.5865 8.86955C22.2095 3.76036 17.5442 0 11.9999 0C11.6482 0 11.3004 0.0160312 10.9564 0.0456562V8.86955H23.5865Z" fill="#0052B4"/>
<path d="M4.6956 2.47945C2.63788 4.06054 1.10764 6.29334 0.41333 8.86954H4.6956V2.47945Z" fill="#0052B4"/>
<path d="M23.8984 10.4348H9.39136H9.39131V0.285233C8.28234 0.531139 7.23098 0.929717 6.26086 1.45908V10.4347H0.101578C0.0347813 10.9471 0 11.4695 0 12C0 12.5305 0.0347813 13.0529 0.101578 13.5652H6.26081H6.26086V22.5409C7.23098 23.0702 8.28234 23.4689 9.39131 23.7147V13.5653V13.5652H23.8984C23.9651 13.0529 24 12.5305 24 12C24 11.4695 23.9651 10.9471 23.8984 10.4348Z" fill="#D80027"/>
</g>
<defs>
<clipPath id="clip0_1407_15954">
<rect width="24" height="24" fill="white"/>
</clipPath>
</defs>
</svg>
