<svg width="24" height="24" viewBox="0 0 24 24" fill="none" xmlns="http://www.w3.org/2000/svg">
<g clip-path="url(#clip0_1407_15977)">
<path d="M24 12C24 10.5322 23.736 9.12605 23.2536 7.82612L12 7.30435L0.746391 7.82607C0.264047 9.12605 0 10.5322 0 12C0 13.4679 0.264047 14.874 0.746391 16.1739L12 16.6957L23.2536 16.1739C23.736 14.874 24 13.4679 24 12Z" fill="#D80027"/>
<path d="M11.9999 24C17.1595 24 21.558 20.7435 23.2536 16.1739H0.746338C2.44185 20.7435 6.84037 24 11.9999 24Z" fill="#6DA544"/>
<path d="M0.746338 7.82611H23.2536C21.558 3.2565 17.1595 0 11.9999 0C6.84037 0 2.44185 3.2565 0.746338 7.82611Z" fill="#338AF3"/>
<path d="M12.2608 15.3913C10.3879 15.3913 8.86951 13.8729 8.86951 12C8.86951 10.1271 10.3879 8.60869 12.2608 8.60869C12.8448 8.60869 13.3943 8.75635 13.874 9.01632C13.1214 8.28033 12.0922 7.82607 10.9565 7.82607C8.65126 7.82607 6.78259 9.69478 6.78259 12C6.78259 14.3051 8.65131 16.1738 10.9565 16.1738C12.0923 16.1738 13.1215 15.7196 13.874 14.9836C13.3943 15.2437 12.8448 15.3913 12.2608 15.3913Z" fill="#F0F0F0"/>
<path d="M14.8696 9.65218L15.3188 10.9155L16.5297 10.3398L15.9541 11.5508L17.2174 12L15.9541 12.4493L16.5297 13.6602L15.3188 13.0845L14.8696 14.3478L14.4204 13.0845L13.2094 13.6602L13.7851 12.4493L12.5217 12L13.7851 11.5508L13.2094 10.3398L14.4204 10.9155L14.8696 9.65218Z" fill="#F0F0F0"/>
</g>
<defs>
<clipPath id="clip0_1407_15977">
<rect width="24" height="24" fill="white"/>
</clipPath>
</defs>
</svg>
