<svg width="24" height="24" viewBox="0 0 24 24" fill="none" xmlns="http://www.w3.org/2000/svg">
<path fill-rule="evenodd" clip-rule="evenodd" d="M21.1566 22.0126C20.0324 17.2905 16.0775 13.8793 11.3103 13.363V14.8136C11.3103 15.7273 10.7811 16.5412 9.92968 16.9359C9.00632 17.3669 7.92884 17.2116 7.17979 16.5425L0.780631 10.8175C0.28421 10.3724 0 9.74213 0 9.08862C0 8.43511 0.28421 7.80489 0.780631 7.35973L7.17979 1.63471C7.92884 0.965669 9.00632 0.810379 9.92968 1.24131C10.7811 1.636 11.3103 2.44998 11.3103 3.3636V4.93979C18.4143 5.57778 24 11.5474 24 18.7942C24 19.8424 23.8686 20.9243 23.6109 22.0113C23.4745 22.5924 22.968 23 22.3844 23C21.8021 23 21.2943 22.5924 21.1566 22.0126Z" fill="#273142"/>
</svg>
