<svg width="24" height="24" viewBox="0 0 24 24" fill="none" xmlns="http://www.w3.org/2000/svg">
<g clip-path="url(#clip0_1407_15980)">
<path d="M12 24C18.6274 24 24 18.6274 24 12C24 5.37258 18.6274 0 12 0C5.37258 0 0 5.37258 0 12C0 18.6274 5.37258 24 12 24Z" fill="#F0F0F0"/>
<path d="M12 0C9.59177 0 7.34965 0.709922 5.47033 1.93116L8.55654 3.9997L4.69568 5.99967L8.55654 7.99964L4.69568 9.99961L8.55654 11.9993L4.69568 13.9993L8.55654 15.9992L4.69568 17.9993L8.55654 19.9993L5.46996 22.0685C7.34937 23.29 9.59163 24 12 24C18.6274 24 24 18.6274 24 12C24 5.37262 18.6274 0 12 0V0Z" fill="#D80027"/>
</g>
<defs>
<clipPath id="clip0_1407_15980">
<rect width="24" height="24" fill="white"/>
</clipPath>
</defs>
</svg>
