<svg width="24" height="24" viewBox="0 0 24 24" fill="none" xmlns="http://www.w3.org/2000/svg">
<g clip-path="url(#clip0_1407_16032)">
<path d="M12 24C18.6274 24 24 18.6274 24 12C24 5.37258 18.6274 0 12 0C5.37258 0 0 5.37258 0 12C0 18.6274 5.37258 24 12 24Z" fill="#F0F0F0"/>
<path d="M19.3067 2.47977C15.0105 -0.826135 8.98955 -0.826135 4.69336 2.47972L12 9.78641L19.3067 2.47977Z" fill="#D80027"/>
<path d="M12 14.2136L4.69336 21.5202C8.98955 24.8261 15.0105 24.8261 19.3067 21.5202L12 14.2135L12 14.2136Z" fill="#D80027"/>
<path d="M9.78644 12L2.4798 4.6933C-0.82611 8.98949 -0.82611 15.0105 2.4798 19.3067L9.78644 12Z" fill="#6DA544"/>
<path d="M14.2136 12L21.5202 19.3067C24.8261 15.0105 24.8261 8.98949 21.5202 4.6933L14.2136 12Z" fill="#6DA544"/>
<path d="M12 17.2174C14.8814 17.2174 17.2173 14.8815 17.2173 12C17.2173 9.11852 14.8814 6.78262 12 6.78262C9.11849 6.78262 6.78259 9.11852 6.78259 12C6.78259 14.8815 9.11849 17.2174 12 17.2174Z" fill="#F0F0F0"/>
<path d="M11.9999 8.34784L12.4517 9.13046H13.3554L12.9036 9.91304L13.3554 10.6957H12.4517L11.9999 11.4783L11.5481 10.6957H10.6444L11.0962 9.91304L10.6444 9.13046H11.5481L11.9999 8.34784Z" fill="#D80027"/>
<path d="M9.70331 12L10.1551 12.7826H11.0588L10.607 13.5652L11.0588 14.3478H10.1551L9.70331 15.1305L9.25143 14.3478H8.34778L8.79961 13.5652L8.34778 12.7826H9.25143L9.70331 12Z" fill="#D80027"/>
<path d="M14.2967 12L14.7485 12.7826H15.6522L15.2003 13.5652L15.6522 14.3478H14.7485L14.2967 15.1305L13.8448 14.3478H12.9412L13.393 13.5652L12.9412 12.7826H13.8448L14.2967 12Z" fill="#D80027"/>
</g>
<defs>
<clipPath id="clip0_1407_16032">
<rect width="24" height="24" fill="white"/>
</clipPath>
</defs>
</svg>
