<svg width="24" height="24" viewBox="0 0 24 24" fill="none" xmlns="http://www.w3.org/2000/svg">
<g clip-path="url(#clip0_1407_16015)">
<path d="M12 24C18.6274 24 24 18.6274 24 12C24 5.37258 18.6274 0 12 0C5.37258 0 0 5.37258 0 12C0 18.6274 5.37258 24 12 24Z" fill="#6DA544"/>
<path d="M11.9999 4.69565L21.913 12L11.9999 19.3043L2.08691 12L11.9999 4.69565Z" fill="#FFDA44"/>
<path d="M11.9999 16.1739C14.3051 16.1739 16.1738 14.3052 16.1738 12C16.1738 9.69483 14.3051 7.82611 11.9999 7.82611C9.69476 7.82611 7.82605 9.69483 7.82605 12C7.82605 14.3052 9.69476 16.1739 11.9999 16.1739Z" fill="#F0F0F0"/>
<path d="M9.913 11.7391C9.18719 11.7391 8.48674 11.8495 7.82739 12.0544C7.8566 14.3344 9.71303 16.1739 12 16.1739C13.4141 16.1739 14.663 15.47 15.418 14.3942C14.1263 12.7771 12.1388 11.7391 9.913 11.7391Z" fill="#0052B4"/>
<path d="M16.0965 12.7997C16.1468 12.5408 16.1739 12.2736 16.1739 12C16.1739 9.69478 14.3052 7.82611 12 7.82611C10.28 7.82611 8.80343 8.86678 8.16443 10.3526C8.72927 10.2356 9.31408 10.1739 9.9131 10.1739C12.3373 10.1739 14.5304 11.1816 16.0965 12.7997Z" fill="#0052B4"/>
</g>
<defs>
<clipPath id="clip0_1407_16015">
<rect width="24" height="24" fill="white"/>
</clipPath>
</defs>
</svg>
