<svg width="24" height="24" viewBox="0 0 24 24" fill="none" xmlns="http://www.w3.org/2000/svg">
<g clip-path="url(#clip0_1407_16000)">
<path d="M20.4853 20.4853C15.799 25.1716 8.20104 25.1716 3.51471 20.4853C-1.17157 15.799 -1.17157 8.20102 3.51471 3.5147C3.5164 3.5147 14.2987 0.328742 18.985 5.01502C23.6713 9.7013 20.4885 20.482 20.4853 20.4853Z" fill="#FFDA44"/>
<path d="M20.4852 20.4853C25.1715 15.799 25.1715 8.20103 20.4852 3.5147C15.7989 -1.17163 8.20098 -1.17158 3.51465 3.5147L20.4852 20.4853Z" fill="#D80027"/>
<path d="M15.1367 15.1378C14.6438 15.3314 14.071 15.3109 13.5741 15.0321C12.6961 14.5393 12.3827 13.424 12.8756 12.5458L12.726 12.4619C14.2293 12.0995 15.3415 10.7349 15.322 9.12468C15.3099 8.12357 14.8626 7.22793 14.1629 6.61508L13.0673 7.73755C13.4815 8.06764 13.75 8.57399 13.7569 9.14366C13.7691 10.1505 12.9599 10.9796 11.9531 10.9918L11.9552 11.1632C10.8896 10.0426 9.15187 9.76166 7.76714 10.5837C6.90623 11.0948 6.35432 11.9299 6.17334 12.8423L7.69321 13.23C7.77201 12.7062 8.07618 12.2205 8.56607 11.9296C9.4319 11.4156 10.5545 11.702 11.0684 12.5677L11.216 12.4802C10.7783 13.9633 11.4038 15.6087 12.8082 16.397C13.6813 16.887 14.6804 16.9474 15.5611 16.6479L15.1367 15.1378ZM11.9657 12.035L11.9656 12.0351L11.9657 12.035Z" fill="#FF9811"/>
<path d="M16.4431 8.12723L15.5949 11.154L13.0501 10.6841L11.412 7.30743L6.98666 8.87779L6.63767 7.89436L5.47986 7.75172L6.35225 10.2103L9.39767 9.43139L10.2631 11.8702L8.15787 14.9772L11.7305 18.0243L11.0533 18.8182L11.5087 19.8924L13.2018 17.9075L11.0045 15.6595L12.6839 13.6906L16.4273 13.9604L17.2799 9.3427L18.306 9.53222L19.0086 8.60081L16.4431 8.12723ZM11.9991 12.0817V12.0817V12.0817Z" fill="#FFEACF"/>
</g>
<defs>
<clipPath id="clip0_1407_16000">
<rect width="24" height="24" fill="white"/>
</clipPath>
</defs>
</svg>
