<svg width="24" height="24" viewBox="0 0 24 24" fill="none" xmlns="http://www.w3.org/2000/svg">
<g clip-path="url(#clip0_1407_15995)">
<path d="M12 24C18.6274 24 24 18.6274 24 12C24 5.37258 18.6274 0 12 0C5.37258 0 0 5.37258 0 12C0 18.6274 5.37258 24 12 24Z" fill="#FCFCFC"/>
<path d="M4.95644 11.1304L3.6521 8.76402L4.95644 6.43475L6.26079 8.76402L4.95644 11.1304Z" fill="#A2001D"/>
<path d="M2.3478 11.1304L1.04346 8.76402L2.3478 6.43475L3.65214 8.76402L2.3478 11.1304Z" fill="#A2001D"/>
<path d="M4.95644 17.5652L3.6521 15.1988L4.95644 12.8696L6.26079 15.1988L4.95644 17.5652Z" fill="#A2001D"/>
<path d="M2.3478 17.5652L1.04346 15.1988L2.3478 12.8696L3.65214 15.1988L2.3478 17.5652Z" fill="#A2001D"/>
<path d="M6.26077 2.3293L5.89149 1.66986C5.22915 2.0623 4.60791 2.51666 4.03552 3.02497L4.95643 4.69564L6.26077 2.3293Z" fill="#A2001D"/>
<path d="M4.95653 19.3043L4.02588 20.9663C4.59775 21.4753 5.21857 21.9304 5.88063 22.3236L6.26093 21.6336L4.95653 19.3043Z" fill="#A2001D"/>
<path d="M7.30432 15.1305V23.0459C8.74662 23.6598 10.3335 24 12 24C17.1596 24 21.5581 20.7435 23.2536 16.1739L7.30432 15.1305Z" fill="#6DA544"/>
<path d="M23.2536 16.1739C23.736 14.8739 24 13.4678 24 12C24 5.37263 18.6274 0 12 0C10.3336 0 8.74662 0.339984 7.30432 0.953813V16.1739H23.2536V16.1739Z" fill="#A2001D"/>
</g>
<defs>
<clipPath id="clip0_1407_15995">
<rect width="24" height="24" fill="white"/>
</clipPath>
</defs>
</svg>
