<svg width="24" height="24" viewBox="0 0 24 24" fill="none" xmlns="http://www.w3.org/2000/svg">
<path fill-rule="evenodd" clip-rule="evenodd" d="M3 2C1.34315 2 0 3.34315 0 5V21C0 22.6569 1.34315 24 3 24H21C22.6569 24 24 22.6569 24 21V5C24 3.34315 22.6569 2 21 2H3ZM21 8H3V20C3 20.5523 3.44772 21 4 21H20C20.5523 21 21 20.5523 21 20V8Z" fill="#273142"/>
<path d="M4 1.5C4 0.671573 4.67157 0 5.5 0C6.32843 0 7 0.671573 7 1.5V2.5C7 3.32843 6.32843 4 5.5 4C4.67157 4 4 3.32843 4 2.5V1.5Z" fill="#273142"/>
<path d="M17 1.5C17 0.671573 17.6716 0 18.5 0C19.3284 0 20 0.671573 20 1.5V2.5C20 3.32843 19.3284 4 18.5 4C17.6716 4 17 3.32843 17 2.5V1.5Z" fill="#273142"/>
<path d="M5.5 10.5H8.5V13.5H5.5V10.5Z" fill="#273142"/>
<path d="M5.5 15.5H8.5V18.5H5.5V15.5Z" fill="#273142"/>
<path d="M10.5 10.5H13.5V13.5H10.5V10.5Z" fill="#273142"/>
<path d="M10.5 15.5H13.5V18.5H10.5V15.5Z" fill="#273142"/>
<path d="M15.5 10.5H18.5V13.5H15.5V10.5Z" fill="#273142"/>
</svg>
