<svg width="24" height="24" viewBox="0 0 24 24" fill="none" xmlns="http://www.w3.org/2000/svg">
<path fill-rule="evenodd" clip-rule="evenodd" d="M6 0C6.82843 0 7.5 0.671573 7.5 1.5V3H16.5V1.5C16.5 0.671573 17.1716 0 18 0C18.8284 0 19.5 0.671573 19.5 1.5V3H20C22.2091 3 24 4.79086 24 7V20C24 22.2091 22.2091 24 20 24H4C1.79086 24 0 22.2091 0 20V7C0 4.79086 1.79086 3 4 3H4.5V1.5C4.5 0.671573 5.17157 0 6 0ZM3 6.86364C3 6.31135 3.44772 5.86364 4 5.86364H20C20.5523 5.86364 21 6.31135 21 6.86364V10.6364H3V6.86364Z" fill="#273142"/>
</svg>
