<svg width="24" height="24" viewBox="0 0 24 24" fill="none" xmlns="http://www.w3.org/2000/svg">
<path fill-rule="evenodd" clip-rule="evenodd" d="M13.777 0.881109C12.6574 0.325926 11.3426 0.325926 10.223 0.881109L3.223 4.35218C1.86135 5.02738 1 6.41594 1 7.9358V16.0641C1 17.584 1.86136 18.9725 3.223 19.6477L10.223 23.1188C11.3426 23.674 12.6574 23.674 13.777 23.1188L20.777 19.6477C22.1386 18.9725 23 17.584 23 16.0641V7.9358C23 6.41594 22.1386 5.02738 20.777 4.35218L13.777 0.881109ZM9 11C10.1046 11 11 10.1045 11 8.99995C11 7.89538 10.1046 6.99995 9 6.99995C7.89543 6.99995 7 7.89538 7 8.99995C7 10.1045 7.89543 11 9 11ZM17 15C17 16.1045 16.1046 17 15 17C13.8954 17 13 16.1045 13 15C13 13.8954 13.8954 13 15 13C16.1046 13 17 13.8954 17 15ZM16.7071 8.70706C17.0976 8.31654 17.0976 7.68337 16.7071 7.29285C16.3166 6.90232 15.6834 6.90232 15.2929 7.29285L7.29289 15.2928C6.90237 15.6834 6.90237 16.3165 7.29289 16.7071C7.68342 17.0976 8.31658 17.0976 8.70711 16.7071L16.7071 8.70706Z" fill="#273142"/>
</svg>
