<svg width="24" height="24" viewBox="0 0 24 24" fill="none" xmlns="http://www.w3.org/2000/svg">
<g clip-path="url(#clip0_1407_16039)">
<path d="M12 24C18.6274 24 24 18.6274 24 12C24 5.37258 18.6274 0 12 0C5.37258 0 0 5.37258 0 12C0 18.6274 5.37258 24 12 24Z" fill="#F0F0F0"/>
<path d="M22.541 6.26084C20.9903 3.41886 18.3239 1.27344 15.1305 0.41272L14.6088 6.26084H22.541Z" fill="#0052B4"/>
<path d="M1.45911 6.26084H9.39129L8.86958 0.41272C5.67612 1.27344 3.00978 3.41891 1.45911 6.26084Z" fill="#0052B4"/>
<path d="M14.6086 12V17.7391H22.5408C23.4711 16.0342 24 14.0789 24 12H14.6086Z" fill="#6DA544"/>
<path d="M9.39131 12H0C0 14.0789 0.528891 16.0342 1.45908 17.7391H9.39127V12H9.39131Z" fill="#6DA544"/>
<path d="M1.45911 17.7391C3.00978 20.5811 5.67612 22.7265 8.86958 23.5873L9.39129 18.4728L1.45911 17.7391Z" fill="#FFDA44"/>
<path d="M15.1305 23.5873C18.3239 22.7265 20.9903 20.5811 22.541 17.7391L14.6088 18.4727L15.1305 23.5873Z" fill="#FFDA44"/>
<path d="M14.6088 18.4727L22.541 17.7391H14.6088V18.4727Z" fill="#FFDA44"/>
<path d="M9.39134 17.7391H1.45911L9.39134 18.4727V17.7391Z" fill="#FFDA44"/>
<path d="M12 0C10.9168 0 9.86766 0.144375 8.86951 0.413391V23.5867C9.86766 23.8556 10.9168 24 12 24C13.0831 24 14.1323 23.8556 15.1304 23.5866V0.413391C14.1323 0.144375 13.0831 0 12 0V0Z" fill="#D80027"/>
<path d="M6.45463 2.60867L6.77835 3.60509H7.82614L6.97855 4.22094L7.30231 5.21736L6.45463 4.60156L5.60699 5.21736L5.93085 4.22094L5.08325 3.60509H6.13095L6.45463 2.60867Z" fill="#FFDA44"/>
</g>
<defs>
<clipPath id="clip0_1407_16039">
<rect width="24" height="24" fill="white"/>
</clipPath>
</defs>
</svg>
