<svg width="24" height="24" viewBox="0 0 24 24" fill="none" xmlns="http://www.w3.org/2000/svg">
<path fill-rule="evenodd" clip-rule="evenodd" d="M16.7998 18.6986C16.6547 18.7544 16.5178 18.8287 16.3931 18.9196H16.3743L16.2362 19.0471C15.3851 19.8331 14.298 20.3747 13.1085 20.5997C11.9189 20.8248 10.6841 20.7222 9.55878 20.306C8.43365 19.8899 7.47155 19.1801 6.78825 18.2701C6.20768 17.497 5.84942 16.6076 5.73892 15.6839C6.30994 15.6886 6.75998 15.684 7.07357 15.6417C7.24003 15.6192 7.43279 15.579 7.59245 15.4809C7.67961 15.4274 7.77053 15.3484 7.83561 15.2339C7.90232 15.1165 7.92456 14.9921 7.91904 14.8772C7.90922 14.6729 7.8112 14.4934 7.73074 14.3676C7.64193 14.2287 7.52188 14.0772 7.38637 13.9171C7.24196 13.7465 7.05666 13.5395 6.84451 13.3025C6.66844 13.1058 6.47384 12.8884 6.26881 12.654C6.05812 12.4131 5.86692 12.1889 5.69392 11.9861C5.43276 11.6799 5.21306 11.4223 5.03034 11.2292C4.87454 11.0646 4.71811 10.9162 4.55646 10.8078C4.39042 10.6964 4.19138 10.6087 3.95875 10.6087C3.72612 10.6087 3.52709 10.6964 3.36104 10.8078C3.19939 10.9162 3.04296 11.0646 2.88717 11.2292C2.70444 11.4223 2.48475 11.6799 2.22358 11.9861C2.05057 12.189 1.85937 12.4131 1.64866 12.6541C1.44063 12.8919 1.24307 13.1125 1.06477 13.3115C0.856384 13.5442 0.674135 13.7476 0.532379 13.9148C0.397173 14.0743 0.277327 14.2252 0.18869 14.3635C0.108505 14.4886 0.0101681 14.6681 0.000747681 14.8728C-0.00455475 14.9881 0.0182209 15.1125 0.0853481 15.2296C0.150724 15.3436 0.241667 15.422 0.328411 15.4751C0.487408 15.5724 0.679354 15.6127 0.845354 15.6355C1.16898 15.68 1.63876 15.6851 2.23703 15.6828C2.35653 17.2795 2.93702 18.8179 3.91852 20.1364C4.99568 21.5835 6.5071 22.7007 8.26025 23.354C10.0132 24.0072 11.9342 24.1692 13.7847 23.821C15.6353 23.4728 17.3384 22.6287 18.6795 21.3892C18.8423 21.2382 18.974 21.0565 19.064 20.8545C19.1541 20.6524 19.2007 20.4345 19.2 20.2136C19.1993 19.9926 19.1515 19.775 19.0602 19.5735C18.969 19.372 18.8369 19.1916 18.6732 19.0415C18.5096 18.8914 18.3176 18.7743 18.1089 18.6952C17.9002 18.6161 17.6778 18.5761 17.454 18.5766C17.2303 18.5772 17.0081 18.6184 16.7998 18.6986Z" fill="#273142"/>
<path fill-rule="evenodd" clip-rule="evenodd" d="M7.20019 5.30144C7.34528 5.24557 7.48218 5.17131 7.60691 5.08037H7.62571L7.76377 4.95289C8.61496 4.16691 9.70199 3.62529 10.8915 3.40026C12.0811 3.17523 13.3159 3.27775 14.4412 3.69397C15.5664 4.11013 16.5285 4.81993 17.2118 5.72988C17.7923 6.50304 18.1506 7.39236 18.2611 8.31611C17.6901 8.31144 17.24 8.31598 16.9264 8.35833C16.76 8.38081 16.5672 8.42101 16.4076 8.51906C16.3204 8.5726 16.2295 8.65155 16.1644 8.76609C16.0977 8.8835 16.0755 9.00791 16.081 9.12279C16.0908 9.32714 16.1888 9.50659 16.2693 9.6324C16.3581 9.77128 16.4781 9.92275 16.6136 10.0829C16.758 10.2535 16.9434 10.4605 17.1555 10.6975C17.3316 10.8942 17.5262 11.1116 17.7312 11.346C17.9419 11.5869 18.1331 11.8111 18.3061 12.0139C18.5673 12.3201 18.787 12.5777 18.9697 12.7708C19.1255 12.9354 19.2819 13.0838 19.4435 13.1922C19.6096 13.3036 19.8086 13.3913 20.0413 13.3913C20.2739 13.3913 20.4729 13.3036 20.639 13.1922C20.8006 13.0838 20.9571 12.9354 21.1128 12.7708C21.2956 12.5777 21.5153 12.3201 21.7764 12.0139C21.9494 11.811 22.1406 11.5868 22.3514 11.3459C22.5594 11.1081 22.7569 10.8875 22.9352 10.6885C23.1436 10.4558 23.3259 10.2524 23.4676 10.0852C23.6028 9.92571 23.7227 9.77483 23.8113 9.6365C23.8915 9.51136 23.9898 9.33192 23.9993 9.12716C24.0046 9.01191 23.9818 8.8875 23.9147 8.77041C23.8493 8.65636 23.7583 8.57797 23.6716 8.52489C23.5126 8.42761 23.3207 8.38728 23.1547 8.36448C22.831 8.32002 22.3612 8.31487 21.763 8.31722C21.6435 6.72053 21.063 5.18214 20.0815 3.86359C19.0043 2.41653 17.4929 1.2993 15.7398 0.646029C13.9868 -0.00718117 12.0658 -0.16922 10.2153 0.17898C8.36467 0.527193 6.66165 1.37127 5.32052 2.61081C5.1577 2.76182 5.02597 2.94353 4.93597 3.14549C4.84593 3.34758 4.79935 3.56549 4.80001 3.78642C4.80067 4.00735 4.84856 4.22499 4.93979 4.42655C5.03096 4.628 5.16313 4.8084 5.32679 4.95852C5.49038 5.10857 5.68243 5.22568 5.89116 5.3048C6.09984 5.3839 6.32226 5.42394 6.546 5.42337C6.76974 5.4228 6.99194 5.38163 7.20019 5.30144Z" fill="#273142"/>
</svg>
