<svg width="24" height="24" viewBox="0 0 24 24" fill="none" xmlns="http://www.w3.org/2000/svg">
<path fill-rule="evenodd" clip-rule="evenodd" d="M12 0C5.37258 0 0 5.37258 0 12C0 18.6274 5.37258 24 12 24C18.6274 24 24 18.6274 24 12C24 5.37258 18.6274 0 12 0ZM16.2273 16.6836C16.3234 16.5965 16.4375 16.5273 16.5632 16.48C16.6889 16.4326 16.8237 16.4081 16.9599 16.4078C17.0961 16.4074 17.2311 16.4313 17.357 16.478C17.483 16.5247 17.5976 16.5933 17.6942 16.68C17.7908 16.7666 17.8675 16.8695 17.9199 16.9829C17.9724 17.0963 17.9996 17.2179 18 17.3407C18.0004 17.4636 17.9739 17.5853 17.9221 17.699C17.8704 17.8126 17.7943 17.9159 17.6982 18.003C16.6518 18.9488 15.3197 19.5957 13.8681 19.8627C12.4166 20.1298 10.9101 20.0053 9.5365 19.5048C8.16294 19.0043 6.98328 18.15 6.14478 17.0484C5.30627 15.9469 4.84609 14.6469 4.82168 13.3109H4.53611C2.60645 13.3206 2.6668 13.2548 3.76916 12.0519C3.91486 11.8929 4.07875 11.7141 4.25865 11.5129C4.44248 11.3074 4.60339 11.1228 4.74604 10.9592C5.30342 10.3197 5.58212 10 5.86081 10C6.13951 10 6.4182 10.3197 6.97559 10.9592C7.11824 11.1228 7.27914 11.3074 7.46297 11.5129C7.63996 11.7108 7.80151 11.8872 7.94553 12.0445L7.9457 12.0447C9.05578 13.2568 9.1235 13.3308 7.18551 13.3109H6.90119C6.92483 14.276 7.26228 15.2135 7.87164 16.0071C8.481 16.8006 9.33541 17.4152 10.3287 17.7745C11.3221 18.1338 12.4105 18.2219 13.4589 18.028C14.5073 17.8341 15.4694 17.3666 16.2257 16.6836H16.2273ZM16.8181 10.6896H17.0993C17.0756 9.72339 16.7376 8.78486 16.1273 7.99084C15.517 7.19682 14.6614 6.58238 13.6671 6.22406C12.6728 5.86573 11.5837 5.77933 10.5354 5.97564C9.48704 6.17194 8.52586 6.64226 7.7715 7.32804C7.67551 7.41516 7.56146 7.48436 7.43585 7.53169C7.31023 7.57903 7.17552 7.60356 7.0394 7.6039C6.90328 7.60424 6.76842 7.58038 6.64252 7.53367C6.51662 7.48697 6.40214 7.41833 6.30562 7.33169C6.20911 7.24505 6.13244 7.1421 6.08 7.02872C6.02756 6.91533 6.00038 6.79374 6 6.67087C5.99963 6.548 6.02606 6.42627 6.07781 6.31263C6.12955 6.19899 6.20559 6.09565 6.30157 6.00853C7.34571 5.05945 8.67673 4.40939 10.1281 4.13968C11.5795 3.86998 13.0867 3.99261 14.4613 4.49224C15.8358 4.99186 17.0166 5.84629 17.8559 6.94861C18.6952 8.05093 19.1557 9.35219 19.1798 10.6896H19.4651C21.3933 10.6799 21.333 10.7457 20.2311 11.9489L20.231 11.9489C20.0855 12.1077 19.9219 12.2864 19.7423 12.4873C19.5587 12.6928 19.3979 12.8773 19.2554 13.041C18.6985 13.6803 18.4201 14 18.1416 14C17.8632 14 17.5847 13.6803 17.0278 13.041C16.8853 12.8773 16.7245 12.6928 16.5409 12.4873C16.3613 12.2863 16.1977 12.1076 16.0522 11.9488L16.0522 11.9488C14.9505 10.7457 14.8902 10.6799 16.8181 10.6896Z" fill="#273142"/>
</svg>
