<svg width="20" height="20" viewBox="0 0 20 20" fill="none" xmlns="http://www.w3.org/2000/svg">
<path fill-rule="evenodd" clip-rule="evenodd" d="M20 10C20 4.47715 15.5228 0 10 0C4.47715 0 0 4.47715 0 10C0 15.5228 4.47715 20 10 20C15.5228 20 20 15.5228 20 10ZM14.4571 8.70711C14.8476 8.31658 14.8476 7.68342 14.4571 7.29289C14.0666 6.90237 13.4334 6.90237 13.0429 7.29289L8.75 11.5858L6.95711 9.79289C6.56658 9.40237 5.93342 9.40237 5.54289 9.79289C5.15237 10.1834 5.15237 10.8166 5.54289 11.2071L8.04289 13.7071C8.43342 14.0976 9.06658 14.0976 9.45711 13.7071L14.4571 8.70711Z" fill="white"/>
</svg>
