<svg width="24" height="24" viewBox="0 0 24 24" fill="none" xmlns="http://www.w3.org/2000/svg">
<g clip-path="url(#clip0_1407_16034)">
<path d="M17.2174 1.19072C15.6397 0.427875 13.8698 0 12 0C10.1302 0 8.36025 0.427875 6.78262 1.19072L5.73914 12L6.78262 22.8093C8.36025 23.5721 10.1302 24 12 24C13.8698 24 15.6397 23.5721 17.2174 22.8093L18.2609 12L17.2174 1.19072Z" fill="#D80027"/>
<path d="M12 7.82611L13.0359 11.0145H16.3888L13.6764 12.9853L14.7124 16.1739L12 14.2032L9.28753 16.1739L10.3237 12.9853L7.61133 11.0145H10.964L12 7.82611Z" fill="#FFDA44"/>
<path d="M6.78263 1.19113C2.76872 3.13204 0 7.24246 0 12C0 16.7575 2.76872 20.8679 6.78263 22.8088V1.19113Z" fill="#496E2D"/>
<path d="M17.2174 1.19113V22.8088C21.2313 20.8679 24 16.7575 24 12C24 7.24251 21.2313 3.13204 17.2174 1.19113Z" fill="#FFDA44"/>
</g>
<defs>
<clipPath id="clip0_1407_16034">
<rect width="24" height="24" fill="white"/>
</clipPath>
</defs>
</svg>
