<svg width="24" height="24" viewBox="0 0 24 24" fill="none" xmlns="http://www.w3.org/2000/svg">
<path fill-rule="evenodd" clip-rule="evenodd" d="M12 24C18.6275 24 24.0001 18.6274 24.0001 12C24.0001 5.37254 18.6275 -6.10352e-05 12 -6.10352e-05C5.3726 -6.10352e-05 0 5.37254 0 12C0 18.6274 5.3726 24 12 24ZM10.3536 17.9503C10.6298 17.9834 10.884 18 11.116 18C12.232 18 13.1657 17.8343 13.9171 17.5028C14.6796 17.1713 15.2818 16.7238 15.7238 16.1602C16.1768 15.5967 16.5028 14.9613 16.7017 14.2541C16.9006 13.5359 17 12.7956 17 12.0331H14.7293C14.7293 12.7514 14.6464 13.3867 14.4807 13.9392C14.326 14.4917 14.0497 14.9392 13.6519 15.2818C13.2652 15.6243 12.7238 15.8564 12.0276 15.9779V11.9171L14.6133 11.0221V9.59669L12.0276 10.4917V9.46409L14.6133 8.56906V7.12707L12.0276 8.0221V6H9.60773V8.85083L8 9.39779V10.8398L9.60773 10.2928V11.3204L8 11.8674V13.3094L9.60773 12.7624V17.8343C9.82873 17.8895 10.0773 17.9282 10.3536 17.9503Z" fill="#273142"/>
</svg>
