<svg width="24" height="24" viewBox="0 0 24 24" fill="none" xmlns="http://www.w3.org/2000/svg">
<g clip-path="url(#clip0_1407_16072)">
<path d="M0.001 2.08698H0V21.913H0.001V12.0001V2.08698Z" fill="#FF9811"/>
<path d="M12 24C18.6273 24 23.9999 18.6274 23.9999 12C23.9999 5.37262 18.6273 6.10352e-05 12 6.10352e-05C5.37256 6.10352e-05 0 5.37262 0 12C0 18.6274 5.37256 24 12 24Z" fill="#F0F0F0"/>
<path d="M12.0001 9.15527e-05C8.07418 9.15527e-05 4.58883 1.88554 2.39954 4.80009H21.6005C19.4113 1.8855 15.9259 9.15527e-05 12.0001 9.15527e-05Z" fill="#0052B4"/>
<path d="M12.0001 24C15.9259 24 19.4113 22.1145 21.6006 19.2H2.39954C4.58879 22.1145 8.07418 24 12.0001 24Z" fill="#0052B4"/>
<path d="M0 12C0 12.822 0.082875 13.6246 0.240328 14.4H23.7597C23.9172 13.6246 24 12.822 24 12C24 11.1781 23.9171 10.3755 23.7597 9.60004H0.240328C0.082875 10.3755 0 11.1781 0 12Z" fill="#0052B4"/>
<path d="M3.51468 3.51477C-1.17156 8.201 -1.17156 15.799 3.51468 20.4853C5.45122 18.5488 7.31366 16.6863 11.9999 12.0001L3.51468 3.51477Z" fill="#D80027"/>
<path d="M4.85682 8.86963L5.63373 11.261H8.14839L6.11415 12.739L6.89106 15.1304L4.85682 13.6524L2.8225 15.1304L3.59959 12.739L1.56531 11.261H4.07978L4.85682 8.86963Z" fill="#F0F0F0"/>
</g>
<defs>
<clipPath id="clip0_1407_16072">
<rect width="24" height="24" fill="white"/>
</clipPath>
</defs>
</svg>
