<svg width="24" height="24" viewBox="0 0 24 24" fill="none" xmlns="http://www.w3.org/2000/svg">
<g clip-path="url(#clip0_9977_2433)">
<path d="M12 24C18.6274 24 24 18.6274 24 12C24 5.37258 18.6274 0 12 0C5.37258 0 0 5.37258 0 12C0 18.6274 5.37258 24 12 24Z" fill="#F0F0F0"/>
<path d="M10.9565 12C10.9565 12 3.52171 20.487 3.51468 20.4853C5.68621 22.6568 8.68626 24 12 24C18.6274 24 24 18.6274 24 12H10.9565Z" fill="#D80027"/>
<path d="M3.51468 3.51469C-1.1716 8.20097 -1.1716 15.799 3.51468 20.4853C5.45123 18.5488 7.31371 16.6863 12 12L3.51468 3.51469Z" fill="#0052B4"/>
</g>
<defs>
<clipPath id="clip0_9977_2433">
<rect width="24" height="24" fill="white"/>
</clipPath>
</defs>
</svg>
