<svg width="24" height="24" viewBox="0 0 24 24" fill="none" xmlns="http://www.w3.org/2000/svg">
<g clip-path="url(#clip0_9977_2827)">
<path d="M0.746391 16.1739C2.44191 20.7435 6.84042 24 12 24C17.1596 24 21.5581 20.7435 23.2536 16.1739L12 15.1305L0.746391 16.1739Z" fill="#FFDA44"/>
<path d="M12 0C6.84042 0 2.44191 3.2565 0.746391 7.82611L12 8.86955L23.2536 7.82606C21.5581 3.2565 17.1596 0 12 0Z" fill="black"/>
<path d="M0.746391 7.82611C0.264047 9.1261 0 10.5322 0 12C0 13.4678 0.264047 14.8739 0.746391 16.1739H23.2537C23.736 14.8739 24 13.4678 24 12C24 10.5322 23.736 9.1261 23.2536 7.82611H0.746391Z" fill="#D80027"/>
</g>
<defs>
<clipPath id="clip0_9977_2827">
<rect width="24" height="24" fill="white"/>
</clipPath>
</defs>
</svg>
