<svg width="24" height="25" viewBox="0 0 24 25" fill="none" xmlns="http://www.w3.org/2000/svg">
<path fill-rule="evenodd" clip-rule="evenodd" d="M9 21.4301V16.6195H3C2.65329 16.6235 1.72884 16.5949 1.41251 16.4517C1.09617 16.3086 0.81448 16.0978 0.586959 15.8339C0.359437 15.5701 0.191522 15.2595 0.0948483 14.9237C-0.00182575 14.5879 -0.0249475 14.235 0.0270853 13.8893L1.6775 3.03559C1.76399 2.46046 2.0537 1.93622 2.49325 1.55948C2.93279 1.18273 3.49255 0.978869 4.06939 0.985445H18V14.2143L12.8762 24.4844C12.7069 24.8236 12.3584 25.0487 11.9837 24.991C10.411 24.7489 9 23.5704 9 21.4301ZM22 0.985291H20V13.9853H22C23.1046 13.9853 24 13.0899 24 11.9853V2.98529C24 1.88072 23.1046 0.985291 22 0.985291Z" fill="#273142"/>
</svg>
