<svg width="24" height="24" viewBox="0 0 24 24" fill="none" xmlns="http://www.w3.org/2000/svg">
<g clip-path="url(#clip0_1407_16078)">
<path d="M10.9565 13.0435C10.9565 13.0435 3.52168 3.51305 3.51465 3.51473C5.68618 1.34316 8.68623 0 12 0C18.6273 0 24 5.37262 24 12L10.9565 13.0435Z" fill="#338AF3"/>
<path d="M10.9565 12C10.9565 12 3.52168 20.487 3.51465 20.4853C5.68618 22.6568 8.68623 24 12 24C18.6273 24 24 18.6274 24 12H10.9565Z" fill="#6DA544"/>
<path d="M3.51471 3.51468C-1.17157 8.20096 -1.17157 15.799 3.51471 20.4853C5.45126 18.5488 7.31374 16.6863 12 12L3.51471 3.51468Z" fill="#F0F0F0"/>
<path d="M4.8567 8.86954L5.63365 11.2609H8.14831L6.11403 12.739L6.89094 15.1304L4.8567 13.6524L2.82237 15.1304L3.59947 12.739L1.56519 11.2609H4.07965L4.8567 8.86954Z" fill="#D80027"/>
</g>
<defs>
<clipPath id="clip0_1407_16078">
<rect width="24" height="24" fill="white"/>
</clipPath>
</defs>
</svg>
