<svg width="24" height="24" viewBox="0 0 24 24" fill="none" xmlns="http://www.w3.org/2000/svg">
<g clip-path="url(#clip0_1407_15956)">
<path d="M12 0C18.6274 0 24 5.37262 24 12C24 18.6274 18.6274 24 12 24C12 23.4783 10.4348 12 10.4348 12L12 0Z" fill="#F0F0F0"/>
<path d="M12 24C5.37262 24 0 18.6274 0 12C0 5.37262 5.37262 0 12 0" fill="#496E2D"/>
<path d="M14.5783 9.69826L13.5937 11.0551L11.9991 10.5379L12.9853 11.8936L12.0008 13.2504L13.5948 12.7314L14.5809 14.087L14.5799 12.4107L16.1739 11.8917L14.5794 11.3746L14.5783 9.69826Z" fill="#D80027"/>
<path d="M12.9954 15.3913C11.1225 15.3913 9.60413 13.8729 9.60413 12C9.60413 10.1271 11.1225 8.60869 12.9954 8.60869C13.5794 8.60869 14.1289 8.75635 14.6087 9.01632C13.856 8.28033 12.8268 7.82607 11.6911 7.82607C9.38588 7.82607 7.51721 9.69478 7.51721 12C7.51721 14.3051 9.38593 16.1738 11.6911 16.1738C12.8269 16.1738 13.8561 15.7196 14.6087 14.9836C14.1289 15.2437 13.5794 15.3913 12.9954 15.3913Z" fill="#D80027"/>
</g>
<defs>
<clipPath id="clip0_1407_15956">
<rect width="24" height="24" fill="white"/>
</clipPath>
</defs>
</svg>
