<svg width="24" height="24" viewBox="0 0 24 24" fill="none" xmlns="http://www.w3.org/2000/svg">
<g clip-path="url(#clip0_1407_16099)">
<path d="M0 12C0 13.468 0.264047 14.874 0.746437 16.1741L12 17.2174L23.2536 16.174C23.736 14.874 24 13.4679 24 12C24 10.5523 23.7435 9.16447 23.2737 7.87948L12 6.78265L0.726281 7.87953C0.256453 9.16447 0 10.5523 0 12H0Z" fill="#FFDA44"/>
<path d="M11.9999 24C17.1595 24 21.558 20.7435 23.2536 16.1739H0.746338C2.44185 20.7435 6.84037 24 11.9999 24Z" fill="#D80027"/>
<path d="M11.9999 0C6.84037 0 2.44185 3.2565 0.746338 7.82611H23.2536C21.558 3.2565 17.1595 0 11.9999 0Z" fill="#6DA544"/>
<path d="M12 17.7391C15.1696 17.7391 17.7391 15.1696 17.7391 12C17.7391 8.83037 15.1696 6.26086 12 6.26086C8.83037 6.26086 6.26086 8.83037 6.26086 12C6.26086 15.1696 8.83037 17.7391 12 17.7391Z" fill="#0052B4"/>
<path d="M11.9988 7.55585L13.0348 10.7444H16.3928L13.6751 12.7151L14.7192 15.9131L11.9988 13.933L9.28244 15.9094L10.3224 12.7151L7.60718 10.7444H10.9627L11.9988 7.55585Z" fill="#FFDA44"/>
<path d="M16.1308 12.7936L12.8441 11.7256L14.8753 8.93L14.0312 8.31659L11.9999 11.1124L9.96872 8.31664L9.1245 8.92995L11.1557 11.7258L7.86914 12.7936L8.19155 13.7861L11.4782 12.7182V16.1739H12.5217V12.7182L15.8082 13.7861L16.1308 12.7936Z" fill="#FFDA44"/>
</g>
<defs>
<clipPath id="clip0_1407_16099">
<rect width="24" height="24" fill="white"/>
</clipPath>
</defs>
</svg>
