<svg width="16" height="15" viewBox="0 0 16 15" fill="none" xmlns="http://www.w3.org/2000/svg">
<path fill-rule="evenodd" clip-rule="evenodd" d="M14.6234 1.87031C16.9852 4.57212 16.2328 9.20824 12.9429 12.2254C9.6531 15.2425 5.07161 15.4982 2.70989 12.7964C2.49149 12.5465 2.29973 12.2801 2.13413 12H0.666667C0.298477 12 0 11.7015 0 11.3333C0 10.9651 0.298477 10.6667 0.666667 10.6667H2.66667C3.03486 10.6667 3.33333 10.3682 3.33333 10C3.33333 9.63181 3.03486 9.33333 2.66667 9.33333H1.33333C0.965144 9.33333 0.666667 9.03486 0.666667 8.66667C0.666667 8.29848 0.965144 8 1.33333 8H4.66667C5.03486 8 5.33333 7.70152 5.33333 7.33333C5.33333 6.96514 5.03486 6.66667 4.66667 6.66667H0.666667C0.298477 6.66667 0 6.36819 0 6C0 5.63181 0.298477 5.33333 0.666667 5.33333H2.20918C2.72123 4.29265 3.45275 3.30121 4.3904 2.44128C7.68023 -0.575861 12.2617 -0.831493 14.6234 1.87031ZM11.4933 4.78179C11.741 4.50935 11.7209 4.08772 11.4485 3.84004C11.176 3.59237 10.7544 3.61245 10.5067 3.88489L7.17339 7.55156C6.99588 7.74681 6.95025 8.02839 7.057 8.26971C7.16376 8.51103 7.4028 8.66667 7.66668 8.66667H10.6667C11.0349 8.66667 11.3333 8.36819 11.3333 8.00001C11.3333 7.63181 11.0349 7.33334 10.6667 7.33334H9.17371L11.4933 4.78179Z" fill="#273142"/>
</svg>
