<svg width="24" height="24" viewBox="0 0 24 24" fill="none" xmlns="http://www.w3.org/2000/svg">
<path fill-rule="evenodd" clip-rule="evenodd" d="M18 7C19.1046 7 20 6.10457 20 5C20 3.89543 19.1046 3 18 3C16.8954 3 16 3.89543 16 5C16 6.10457 16.8954 7 18 7ZM18 10C20.7614 10 23 7.76142 23 5C23 2.23858 20.7614 0 18 0C15.2386 0 13 2.23858 13 5C13 5.22025 13.0142 5.43718 13.0419 5.64991L9.15671 8.12227C8.29591 7.42068 7.19708 7 6 7C3.23858 7 1 9.23858 1 12C1 14.7614 3.23858 17 6 17C7.43431 17 8.72757 16.3961 9.63934 15.4286L13.1281 17.8707C13.0443 18.2336 13 18.6116 13 19C13 21.7614 15.2386 24 18 24C20.7614 24 23 21.7614 23 19C23 16.2386 20.7614 14 18 14C16.7156 14 15.5443 14.4843 14.6588 15.2802L10.9533 12.6864C10.9841 12.462 11 12.2329 11 12C11 11.5238 10.9334 11.0631 10.809 10.6267L14.3244 8.38969C15.2379 9.37984 16.5466 10 18 10ZM6 14C7.10457 14 8 13.1046 8 12C8 10.8954 7.10457 10 6 10C4.89543 10 4 10.8954 4 12C4 13.1046 4.89543 14 6 14ZM20 19C20 20.1046 19.1046 21 18 21C16.8954 21 16 20.1046 16 19C16 17.8954 16.8954 17 18 17C19.1046 17 20 17.8954 20 19Z" fill="#273142"/>
</svg>
