<svg width="24" height="24" viewBox="0 0 24 24" fill="none" xmlns="http://www.w3.org/2000/svg">
<path fill-rule="evenodd" clip-rule="evenodd" d="M17.6681 18.5468C19.9317 17.3239 21.8684 15.4281 23.574 13.2464C24.142 12.5197 24.142 11.4803 23.574 10.7536C20.5926 6.93986 16.9048 4 12 4C9.43693 4 7.20617 4.8028 5.23489 6.11359L8.05236 8.93106C8.96725 7.75591 10.3954 7.00001 12 7.00001C14.7614 7.00001 17 9.23859 17 12C17 13.6047 16.2441 15.0328 15.069 15.9476L17.6681 18.5468ZM11.8772 16.9985L14.5918 19.7132C13.7671 19.9001 12.9042 20 12 20C7.09522 20 3.40737 17.0601 0.426031 13.2464C-0.14201 12.5197 -0.14201 11.4803 0.426031 10.7536C1.19627 9.76832 2.01366 8.84135 2.88701 8.00835L7.00148 12.1228C7.06569 14.7867 9.21333 16.9343 11.8772 16.9985ZM13.6362 14.5149C14.4573 13.9797 15 13.0532 15 12C15 10.3431 13.6569 9 12 9C10.9468 9 10.0203 9.54273 9.48507 10.3638L13.6362 14.5149Z" fill="#273142"/>
<path fill-rule="evenodd" clip-rule="evenodd" d="M23.7071 23.7071C23.3166 24.0976 22.6834 24.0976 22.2929 23.7071L0.292893 1.70711C-0.0976314 1.31658 -0.0976314 0.683419 0.292892 0.292894C0.683418 -0.0976301 1.31658 -0.0976301 1.70711 0.292894L23.7071 22.2929C24.0976 22.6834 24.0976 23.3166 23.7071 23.7071Z" fill="#273142"/>
</svg>
