<svg width="24" height="24" viewBox="0 0 24 24" fill="none" xmlns="http://www.w3.org/2000/svg">
<path d="M12 9C10.3431 9 9 10.3431 9 12C9 13.6569 10.3431 15 12 15C13.6569 15 15 13.6569 15 12C15 10.3431 13.6569 9 12 9Z" fill="#273142"/>
<path fill-rule="evenodd" clip-rule="evenodd" d="M12 20C16.9048 20 20.5926 17.0601 23.574 13.2464C24.142 12.5197 24.142 11.4803 23.574 10.7536C20.5926 6.93986 16.9048 4 12 4C7.09522 4 3.40737 6.93986 0.426031 10.7536C-0.14201 11.4803 -0.14201 12.5197 0.426031 13.2464C3.40737 17.0601 7.09522 20 12 20ZM7 12C7 9.23859 9.23858 7.00002 12 7.00002C14.7614 7.00002 17 9.23859 17 12C17 14.7614 14.7614 17 12 17C9.23858 17 7 14.7614 7 12Z" fill="#273142"/>
</svg>
