<svg width="24" height="24" viewBox="0 0 24 24" fill="none" xmlns="http://www.w3.org/2000/svg">
<path fill-rule="evenodd" clip-rule="evenodd" d="M19.2 0H0V21C0 22.6569 1.34314 24 3 24H9.62698C7.40893 22.1289 6 19.329 6 16.2C6 15.0822 6.1798 14.0064 6.51205 13H5.2499C4.55955 13 3.9999 12.4404 3.9999 11.75C3.9999 11.0596 4.55955 10.5 5.2499 10.5H7.74003C9.57279 7.78514 12.6779 6 16.2 6C17.2441 6 18.2515 6.15687 19.2 6.44832V0ZM3.99996 5.74994C4 5.0596 4.55963 4.5 5.24996 4.5H8.74996C9.44034 4.5 10 5.05968 9.99996 5.75006C9.99993 6.44039 9.4403 7 8.74996 7H5.24996C4.55958 7 3.99993 6.44032 3.99996 5.74994ZM24 16C24 20.4183 20.4183 24 16 24C11.5817 24 8 20.4183 8 16C8 11.5817 11.5817 8 16 8C20.4183 8 24 11.5817 24 16ZM17.2182 11.3173L11.5956 16.9482C11.3925 17.1516 11.2656 17.422 11.2393 17.708L11.0024 20.3178C10.9862 20.5024 11.0518 20.6852 11.1831 20.816C11.3012 20.9343 11.4606 21 11.625 21C11.6444 21 11.6631 20.9994 11.6819 20.9975L14.2885 20.7603C14.5748 20.734 14.8442 20.6076 15.0473 20.4048L20.6711 14.7739C21.1256 14.3171 21.1068 13.5541 20.6286 13.0747L18.9165 11.3611C18.6771 11.1214 18.3471 11 18.0252 11C17.7245 11 17.4295 11.1051 17.2182 11.3173ZM16.8281 13.4797L18.0458 12.2592L19.7298 13.9459L18.5127 15.1657L16.8281 13.4797Z" fill="#273142"/>
</svg>
