<svg width="24" height="24" viewBox="0 0 24 24" fill="none" xmlns="http://www.w3.org/2000/svg">
<g clip-path="url(#clip0_1407_16112)">
<path d="M12 24C18.6274 24 24 18.6274 24 12C24 5.37258 18.6274 0 12 0C5.37258 0 0 5.37258 0 12C0 18.6274 5.37258 24 12 24Z" fill="#F0F0F0"/>
<path d="M23.4783 12L23.8983 10.4348C23.8285 9.90131 23.7239 9.37875 23.5867 8.86959H10.9566V0.0456543C10.4241 0.091498 9.90164 0.172545 9.39135 0.285701L7.30439 1.5652L6.2609 1.45987C5.71176 1.7595 5.18859 2.10075 4.6957 2.47945V8.86954H0.413432C0.276229 9.3787 0.171604 9.90126 0.101854 10.4347L0.52176 12L0.101807 13.5652C0.171557 14.0987 0.276182 14.6212 0.413385 15.1304H4.69565V21.5205C5.18854 21.8992 5.71176 22.2405 6.26085 22.5401L7.82606 22.4347L9.39126 23.7142C9.90159 23.8274 10.424 23.9084 10.9565 23.9543V15.1305H23.5866C23.7238 14.6213 23.8284 14.0987 23.8981 13.5652L23.4783 12Z" fill="#0052B4"/>
<path d="M23.8984 10.4348H9.39136H9.39131V0.285217C8.28234 0.531124 7.23098 0.929702 6.26086 1.45906V10.4347H0.101578C0.034875 10.9471 0 11.4695 0 12C0 12.5305 0.034875 13.0528 0.101578 13.5652H6.26081H6.26086V22.5409C7.23098 23.0702 8.28234 23.4688 9.39131 23.7147V13.5653V13.5652H23.8984C23.9651 13.0528 24 12.5305 24 12C24 11.4695 23.9651 10.9471 23.8984 10.4348Z" fill="#D80027"/>
</g>
<defs>
<clipPath id="clip0_1407_16112">
<rect width="24" height="24" fill="white"/>
</clipPath>
</defs>
</svg>
