<svg width="24" height="24" viewBox="0 0 24 24" fill="none" xmlns="http://www.w3.org/2000/svg">
<path fill-rule="evenodd" clip-rule="evenodd" d="M2.84337 22.5126C3.96758 17.7905 7.92253 14.3793 12.6897 13.863V15.3136C12.6897 16.2273 13.2189 17.0412 14.0703 17.4359C14.9937 17.8669 16.0712 17.7116 16.8202 17.0425L23.2194 11.3175C23.7158 10.8723 24 10.2421 24 9.58862C24 8.93511 23.7158 8.30489 23.2194 7.85973L16.8202 2.13471C16.0712 1.46567 14.9937 1.31038 14.0703 1.74131C13.2189 2.136 12.6897 2.94998 12.6897 3.8636L12.6897 5.43979C5.58568 6.07778 0 12.0474 0 19.2942C0 20.3424 0.131371 21.4243 0.389053 22.5113C0.525475 23.0924 1.032 23.5 1.61558 23.5C2.1979 23.5 2.70568 23.0924 2.84337 22.5126Z" fill="#273142"/>
</svg>
