<svg width="24" height="24" viewBox="0 0 24 24" fill="none" xmlns="http://www.w3.org/2000/svg">
<g clip-path="url(#clip0_1407_16115)">
<path d="M12 24C18.6274 24 24 18.6274 24 12C24 5.37258 18.6274 0 12 0C5.37258 0 0 5.37258 0 12C0 18.6274 5.37258 24 12 24Z" fill="#F0F0F0"/>
<path d="M24.0001 12C24.0001 6.84043 20.7436 2.44191 16.174 0.746399V23.2537C20.7436 21.5581 24.0001 17.1596 24.0001 12Z" fill="#D80027"/>
<path d="M0 12C0 17.1596 3.25655 21.5581 7.82611 23.2536V0.746399C3.25655 2.44191 0 6.84043 0 12Z" fill="#0052B4"/>
</g>
<defs>
<clipPath id="clip0_1407_16115">
<rect width="24" height="24" fill="white"/>
</clipPath>
</defs>
</svg>
