<svg width="24" height="24" viewBox="0 0 24 24" fill="none" xmlns="http://www.w3.org/2000/svg">
<g clip-path="url(#clip0_1407_16136)">
<path d="M12 24C18.6274 24 24 18.6274 24 12C24 5.37258 18.6274 0 12 0C5.37258 0 0 5.37258 0 12C0 18.6274 5.37258 24 12 24Z" fill="#FFDA44"/>
<path d="M5.23657 2.08697C7.16243 0.770437 9.49109 0 12 0C14.509 0 16.8376 0.770437 18.7635 2.08697L12 2.60869L5.23657 2.08697Z" fill="#A2001D"/>
<path d="M11.9999 12L11.2341 11.2341L11.0308 11.5984L11.9999 12Z" fill="#0052B4"/>
<path d="M3.51471 3.51471C-1.17157 8.20099 -1.17157 15.799 3.51471 20.4853C5.45126 18.5488 7.31374 16.6863 12 12L3.51471 3.51471Z" fill="#496E2D"/>
<path d="M20.4853 3.51471C25.1716 8.20099 25.1716 15.799 20.4853 20.4853C18.5488 18.5488 16.6863 16.6863 12 12L20.4853 3.51471Z" fill="#496E2D"/>
<path d="M11.9999 16.1739C14.3051 16.1739 16.1738 14.3052 16.1738 12C16.1738 9.69483 14.3051 7.82611 11.9999 7.82611C9.69476 7.82611 7.82605 9.69483 7.82605 12C7.82605 14.3052 9.69476 16.1739 11.9999 16.1739Z" fill="#A2001D"/>
<path d="M11.9999 7.82611L12.9355 10.7056H15.9635L13.5139 12.4856L14.4495 15.3652L11.9999 13.5855L9.5502 15.3652L10.486 12.4856L8.03638 10.7056H11.0642L11.9999 7.82611Z" fill="#FFDA44"/>
<path d="M11.9999 0C11.9985 0 11.9972 9.375e-05 11.9958 9.375e-05H12.0039C12.0026 9.375e-05 12.0012 0 11.9999 0Z" fill="#FFDA44"/>
<path d="M12.0041 0H11.9961C8.68419 0.00107812 5.68602 1.34372 3.51538 3.51413H20.4847C18.3141 1.34372 15.3159 0.00107812 12.0041 0Z" fill="#A2001D"/>
<path d="M3.51538 20.4859C5.68691 22.6571 8.68663 24 12 24C15.3133 24 18.3131 22.6571 20.4846 20.4859H3.51538Z" fill="#A2001D"/>
<path d="M12 1.30432L12.1943 1.90217H12.8229L12.3144 2.27168L12.5087 2.86952L12 2.50006L11.4915 2.86952L11.6858 2.27168L11.1771 1.90217H11.8057L12 1.30432Z" fill="#FFDA44"/>
<path d="M9.0901 1.30432L9.2844 1.90217H9.91299L9.40445 2.27168L9.59874 2.86952L9.0901 2.50006L8.5816 2.86952L8.77585 2.27168L8.26721 1.90217H8.89581L9.0901 1.30432Z" fill="#FFDA44"/>
<path d="M14.9098 1.30432L15.1041 1.90217H15.7327L15.2241 2.27168L15.4184 2.86952L14.9098 2.50006L14.4013 2.86952L14.5956 2.27168L14.0869 1.90217H14.7155L14.9098 1.30432Z" fill="#FFDA44"/>
<path d="M12 21.1304L12.1943 21.7283H12.8229L12.3144 22.0978L12.5087 22.6956L12 22.3261L11.4915 22.6956L11.6858 22.0978L11.1771 21.7283H11.8057L12 21.1304Z" fill="#FFDA44"/>
<path d="M9.0901 21.1304L9.2844 21.7283H9.91299L9.40445 22.0978L9.59874 22.6956L9.0901 22.3261L8.5816 22.6956L8.77585 22.0978L8.26721 21.7283H8.89581L9.0901 21.1304Z" fill="#FFDA44"/>
<path d="M14.9098 21.1304L15.1041 21.7283H15.7327L15.2241 22.0978L15.4184 22.6956L14.9098 22.3261L14.4013 22.6956L14.5956 22.0978L14.0869 21.7283H14.7155L14.9098 21.1304Z" fill="#FFDA44"/>
<path d="M3.65639 11.8018C3.96459 12.2888 3.81975 12.9334 3.33277 13.2416C2.84583 13.5499 2.2012 13.405 1.89295 12.918C1.33491 12.0364 1.65848 10.5966 1.65848 10.5966C1.65848 10.5966 3.0983 10.9201 3.65639 11.8018Z" fill="#FFDA44"/>
<path d="M3.0537 13.3226C3.34184 13.3226 3.57542 13.089 3.57542 12.8008C3.57542 12.5127 3.34184 12.2791 3.0537 12.2791C2.76556 12.2791 2.53198 12.5127 2.53198 12.8008C2.53198 13.089 2.76556 13.3226 3.0537 13.3226Z" fill="#A2001D"/>
</g>
<defs>
<clipPath id="clip0_1407_16136">
<rect width="24" height="24" fill="white"/>
</clipPath>
</defs>
</svg>
