<svg width="24" height="24" viewBox="0 0 24 24" fill="none" xmlns="http://www.w3.org/2000/svg">
<g clip-path="url(#clip0_1407_16120)">
<path d="M12 24C18.6274 24 24 18.6274 24 12C24 5.37258 18.6274 0 12 0C5.37258 0 0 5.37258 0 12C0 18.6274 5.37258 24 12 24Z" fill="#F0F0F0"/>
<path d="M23.8984 10.4348H13.5653H13.5653V0.101578C13.0529 0.034875 12.5305 0 12 0C11.4695 0 10.9471 0.034875 10.4348 0.101578V10.4347V10.4347H0.101578C0.034875 10.9471 0 11.4695 0 12C0 12.5306 0.034875 13.0529 0.101578 13.5652H10.4347H10.4347V23.8984C10.9471 23.9651 11.4695 24 12 24C12.5305 24 13.0529 23.9652 13.5652 23.8984V13.5653V13.5653H23.8984C23.9651 13.0529 24 12.5306 24 12C24 11.4695 23.9651 10.9471 23.8984 10.4348Z" fill="#D80027"/>
<path d="M7.3044 5.73914V4.17389H5.7392V5.73914H4.17395V7.30434H5.7392V8.86954H7.3044V7.30434H8.86961V5.73914H7.3044Z" fill="#D80027"/>
<path d="M18.2609 5.73914V4.17389H16.6957V5.73914H15.1305V7.30434H16.6957V8.86954H18.2609V7.30434H19.8261V5.73914H18.2609Z" fill="#D80027"/>
<path d="M7.3044 16.6956V15.1304H5.7392V16.6956H4.17395V18.2608H5.7392V19.8261H7.3044V18.2608H8.86961V16.6956H7.3044Z" fill="#D80027"/>
<path d="M18.2609 16.6956V15.1304H16.6957V16.6956H15.1305V18.2608H16.6957V19.8261H18.2609V18.2608H19.8261V16.6956H18.2609Z" fill="#D80027"/>
</g>
<defs>
<clipPath id="clip0_1407_16120">
<rect width="24" height="24" fill="white"/>
</clipPath>
</defs>
</svg>
