<svg width="24" height="24" viewBox="0 0 24 24" fill="none" xmlns="http://www.w3.org/2000/svg">
<g clip-path="url(#clip0_1407_16135)">
<path d="M0 12C0 5.37262 5.37262 0 12 0C18.6274 0 24 5.37262 24 12C23.4783 12 12 13.5652 12 13.5652L0 12Z" fill="#F0F0F0"/>
<path d="M24 12C24 18.6274 18.6274 24 12 24C5.37262 24 0 18.6274 0 12" fill="#D80027"/>
<path d="M8.34778 17.7391C11.5174 17.7391 14.0869 15.1696 14.0869 12C14.0869 8.83037 11.5174 6.26086 8.34778 6.26086C5.17814 6.26086 2.60864 8.83037 2.60864 12C2.60864 15.1696 5.17814 17.7391 8.34778 17.7391Z" fill="#F0F0F0"/>
<path d="M2.60864 12C2.60864 8.83046 5.17814 6.26086 8.34778 6.26086C11.5175 6.26086 14.0869 8.83041 14.0869 12" fill="#D80027"/>
</g>
<defs>
<clipPath id="clip0_1407_16135">
<rect width="24" height="24" fill="white"/>
</clipPath>
</defs>
</svg>
