<svg width="24" height="24" viewBox="0 0 24 24" fill="none" xmlns="http://www.w3.org/2000/svg">
<path d="M12 0C5.3832 0 0 5.3832 0 12C0 18.6168 5.3832 24 12 24C18.6168 24 24 18.6168 24 12C24 5.3832 18.6168 0 12 0Z" fill="#457EFF"/>
<path d="M3.92651 3.12872C4.41853 3.20538 4.96896 3.32235 5.49976 3.49884C6.99943 3.99753 8.49943 3.49906 8.99976 3.49884C9.4997 3.49884 9.99997 3.99717 10.9998 4.49591C11.9995 4.99456 12.4995 5.49336 12.4998 5.992C12.4998 6.4908 11.9998 7.48907 10.9998 7.48907C9.9997 7.48929 7.99997 8.4864 7.99976 8.98517C7.99976 9.48397 7.99976 10.9801 6.99976 10.4813C6 9.98286 4.99996 10.4816 4.99976 10.9803C4.99976 11.479 5.49989 11.9777 5.99976 12.4764C6.49972 12.9751 7.99988 12.4768 9.49976 12.9754C10.9998 13.4742 13.9998 14.4721 11.4998 17.9637C10.2005 19.7784 9.99984 20.9559 9.99976 21.4549C9.99976 21.9537 9.99976 23.9493 8.49976 22.4529C6.99987 20.9566 7.49975 19.46 6.99976 17.9637C6.49977 16.4674 4.50005 16.4672 4.49976 14.4725C4.49976 12.4773 3.49976 11.4791 2.99976 10.9803C2.6286 10.6104 1.15882 9.96609 0.423584 8.84454C1.03172 6.6156 2.26514 4.64211 3.92651 3.12872ZM19.9343 3.00861C22.4249 5.20901 23.9998 8.42302 23.9998 11.9998C23.9997 15.5292 22.4674 18.7064 20.0339 20.9041C19.5785 20.8399 19.2499 20.7073 18.9998 20.4578C18.4999 19.959 18.9997 18.9612 18.9998 17.9637C18.9998 16.9662 18.4999 15.4701 18.4998 14.4725C18.4998 13.4749 16.9998 14.4986 15.9998 13.9998C15.0001 13.501 14.8421 11.9734 14.9998 11.4998C15.4997 9.99993 16.9999 9.48427 18.4998 9.48419C19.9998 9.48419 20.4998 9.48397 20.4998 8.98517C20.4996 7.86991 17.4997 7.9881 16.9998 7.9881C16.4997 7.98788 15.4998 7.49445 15.4998 5.49982C15.4998 3.92937 18.5656 3.19037 19.9343 3.00861Z" fill="#0FE56F"/>
</svg>
