<svg width="24" height="24" viewBox="0 0 24 24" fill="none" xmlns="http://www.w3.org/2000/svg">
<g clip-path="url(#clip0_1407_16119)">
<path d="M12 24C18.6274 24 24 18.6274 24 12C24 5.37258 18.6274 0 12 0C5.37258 0 0 5.37258 0 12C0 18.6274 5.37258 24 12 24Z" fill="#F0F0F0"/>
<path d="M12 0C7.03903 0 2.78147 3.01059 0.953857 7.30434H23.0463C21.2187 3.01059 16.9611 0 12 0Z" fill="#A2001D"/>
<path d="M12 24C16.9611 24 21.2187 20.9894 23.0462 16.6957H0.953857C2.78147 20.9894 7.03903 24 12 24Z" fill="#496E2D"/>
<path d="M23.5866 8.86957H0.413391C0.144375 9.86768 0 10.9169 0 12C0 13.0832 0.144375 14.1324 0.413391 15.1305H23.5867C23.8556 14.1324 24 13.0832 24 12C24 10.9169 23.8556 9.86768 23.5866 8.86957Z" fill="#0052B4"/>
</g>
<defs>
<clipPath id="clip0_1407_16119">
<rect width="24" height="24" fill="white"/>
</clipPath>
</defs>
</svg>
