<svg width="24" height="24" viewBox="0 0 24 24" fill="none" xmlns="http://www.w3.org/2000/svg">
<path d="M15.7565 4.12228C15.5632 4.31551 15.4547 4.57757 15.4547 4.85083V7.08823L10.6049 11.938C10.2025 12.3404 10.2025 12.9927 10.6049 13.3951C11.0073 13.7975 11.6596 13.7975 12.062 13.3951L16.9118 8.54531H19.1492C19.4224 8.54531 19.6845 8.43676 19.8777 8.24354L23.8481 4.27317C24.1726 3.94864 23.9428 3.39374 23.4838 3.39374H20.6063V0.51619C20.6063 0.0572343 20.0514 -0.172612 19.7268 0.151918L15.7565 4.12228Z" fill="#273142"/>
<path d="M13.394 6.29252V6.48469L11.3334 8.54531C9.0573 8.54534 7.21219 10.3905 7.21219 12.6666C7.21219 14.9427 9.05734 16.7878 11.3334 16.7878C13.6095 16.7878 15.4547 14.9427 15.4547 12.6666L17.5151 10.606H17.7075C17.9172 11.2551 18.0305 11.9476 18.0305 12.6666C18.0305 16.3652 15.0321 19.3636 11.3334 19.3636C7.63477 19.3636 4.63641 16.3652 4.63641 12.6666C4.63641 8.96789 7.63477 5.96953 11.3334 5.96953C12.0524 5.96953 12.7449 6.08282 13.394 6.29252Z" fill="#273142"/>
<path d="M13.4697 4.17129C12.7859 3.99991 12.0703 3.9089 11.3334 3.9089C6.49672 3.9089 2.57578 7.82984 2.57578 12.6666C2.57578 17.5033 6.49672 21.4242 11.3334 21.4242C16.1702 21.4242 20.0911 17.5033 20.0911 12.6666C20.0911 11.9297 20.0001 11.2141 19.8287 10.5304C20.3946 10.4028 20.9181 10.1174 21.3348 9.7007L22.0542 8.98123C22.4513 10.1366 22.6669 11.3764 22.6669 12.6666C22.6669 18.9258 17.5927 24 11.3334 24C5.07415 24 0 18.9258 0 12.6666C0 6.40727 5.07415 1.33312 11.3334 1.33312C12.6236 1.33312 13.8634 1.5487 15.0188 1.9458L14.2993 2.66528C13.8826 3.08197 13.5972 3.60539 13.4697 4.17129Z" fill="#273142"/>
</svg>
