<svg width="24" height="24" viewBox="0 0 24 24" fill="none" xmlns="http://www.w3.org/2000/svg">
<g clip-path="url(#clip0_1407_16138)">
<path d="M12 24C18.6274 24 24 18.6274 24 12C24 5.37258 18.6274 0 12 0C5.37258 0 0 5.37258 0 12C0 18.6274 5.37258 24 12 24Z" fill="#F0F0F0"/>
<path d="M24 12C24 7.24248 21.2314 3.13173 17.2174 1.19073V22.8092C21.2314 20.8683 24 16.7575 24 12Z" fill="#338AF3"/>
<path d="M0 12C0 16.7575 2.76867 20.8683 6.78263 22.8093V1.19073C2.76867 3.13173 0 7.24248 0 12Z" fill="#338AF3"/>
<path d="M15.1359 14.0291L13.1068 12.0001L15.0382 10.0686L14.9507 9.04851L14.3978 8.49548L12 10.8932L9.60228 8.49548L9.04934 9.04851L8.96182 10.0686L10.8932 12.0001L8.86414 14.0291L9.97095 15.1358L12 13.1069L14.0291 15.1358L15.1359 14.0291Z" fill="#ACABB1"/>
<path d="M14.9513 9.04858L13.8446 10.1553C14.3166 10.6274 14.6087 11.2796 14.6087 12C14.6087 13.4407 13.4407 14.6087 12 14.6087C10.5593 14.6087 9.39125 13.4407 9.39125 12C9.39125 11.2796 9.68328 10.6274 10.1554 10.1553L9.0486 9.04858C8.29321 9.80383 7.82605 10.8473 7.82605 12C7.82605 14.3052 9.69477 16.1739 11.9999 16.1739C14.3051 16.1739 16.1738 14.3051 16.1738 12C16.1738 10.8474 15.7067 9.80388 14.9513 9.04858Z" fill="#6DA544"/>
</g>
<defs>
<clipPath id="clip0_1407_16138">
<rect width="24" height="24" fill="white"/>
</clipPath>
</defs>
</svg>
