<svg width="24" height="24" viewBox="0 0 24 24" fill="none" xmlns="http://www.w3.org/2000/svg">
<g clip-path="url(#clip0_1407_16137)">
<path d="M5.23657 21.9131C7.16238 23.2295 9.49114 24 12 24C14.5089 24 16.8376 23.2295 18.7635 21.9131L12 20.8696L5.23657 21.9131Z" fill="#D80027"/>
<path d="M18.7635 2.08697C16.8376 0.770484 14.5089 0 12 0C9.49114 0 7.16238 0.770484 5.23657 2.08697L12 3.13045L18.7635 2.08697Z" fill="#D80027"/>
<path d="M24 12C24 8.02922 21.6227 4.04157 18.7635 2.08698H5.23655C2.07516 4.2481 0 7.88157 0 12C0 16.1186 2.07516 19.7519 5.23655 21.913H18.7635C21.9249 19.7519 24 16.1186 24 12Z" fill="#0052B4"/>
<path d="M11.3209 19.5748C11.1569 19.4342 7.30432 16.0851 7.30432 12C7.30432 7.91486 11.1569 4.56569 11.3209 4.42511L12 3.84302L12.6791 4.42506C12.843 4.56569 16.6956 7.91481 16.6956 12C16.6956 16.0851 12.8431 19.4343 12.6791 19.5748L12 20.1569L11.3209 19.5748Z" fill="#D80027"/>
<path d="M15.6521 12C15.6521 8.3478 11.9999 5.21735 11.9999 5.21735C11.9999 5.21735 8.34778 8.34789 8.34778 12C8.34778 13.1172 8.68982 14.1855 9.16429 15.1304H14.8356C15.3101 14.1855 15.6521 13.1172 15.6521 12Z" fill="#338AF3"/>
<path d="M15.6521 12C15.6521 13.1173 15.3101 14.1855 14.8356 15.1305L11.9999 15.6522L9.16429 15.1305C8.68982 14.1855 8.34778 13.1173 8.34778 12H15.6521Z" fill="#0052B4"/>
<path d="M12 18.7826C12 18.7826 13.7591 17.2743 14.8356 15.1304H9.16431C10.2408 17.2743 12 18.7826 12 18.7826Z" fill="#FFDA44"/>
<path d="M9.65222 9.91302H14.3479L12.0001 12.2609L9.65222 9.91302Z" fill="#6DA544"/>
<path d="M11.2174 11.4783H12.7826V16.1739H11.2174V11.4783Z" fill="#A2001D"/>
</g>
<defs>
<clipPath id="clip0_1407_16137">
<rect width="24" height="24" fill="white"/>
</clipPath>
</defs>
</svg>
