<svg width="24" height="24" viewBox="0 0 24 24" fill="none" xmlns="http://www.w3.org/2000/svg">
<g clip-path="url(#clip0_1407_16152)">
<path d="M12 24C18.6274 24 24 18.6274 24 12C24 5.37258 18.6274 0 12 0C5.37258 0 0 5.37258 0 12C0 18.6274 5.37258 24 12 24Z" fill="#F0F0F0"/>
<path d="M12 0C9.87837 0 7.88581 0.551344 6.15649 1.51744V22.4826C7.88585 23.4487 9.87837 24 12 24C18.6274 24 24 18.6274 24 12C24 5.37262 18.6274 0 12 0Z" fill="#6DA544"/>
<path d="M6.19178 1.49768C5.43686 1.91604 4.73195 2.41329 4.08794 2.9786C4.15305 2.92151 4.21881 2.86507 4.28509 2.80938L13.4756 12L4.28505 21.1906C4.21872 21.1349 4.153 21.0784 4.08789 21.0214C4.73191 21.5867 5.43686 22.0839 6.19173 22.5023L24 12L6.19178 1.49768Z" fill="#F0F0F0"/>
<path d="M5.17825 2.12726C4.81229 2.38066 4.46082 2.65334 4.1259 2.94476L12 12L4.12585 21.0552C4.46078 21.3466 4.81225 21.6193 5.1782 21.8727L21.9458 12L5.17825 2.12726Z" fill="#FFDA44"/>
<path d="M4.28504 2.80939C4.01827 3.03354 3.76084 3.26853 3.51465 3.51467L10.9565 12L3.51465 20.4853C3.76084 20.7315 4.01823 20.9665 4.28504 21.1906L13.4756 12L4.28504 2.80939Z" fill="black"/>
<path d="M3.51471 3.51471C-1.17157 8.20099 -1.17157 15.799 3.51471 20.4853C5.45126 18.5488 7.31374 16.6863 12 12L3.51471 3.51471Z" fill="#D80027"/>
</g>
<defs>
<clipPath id="clip0_1407_16152">
<rect width="24" height="24" fill="white"/>
</clipPath>
</defs>
</svg>
