<svg width="24" height="24" viewBox="0 0 24 24" fill="none" xmlns="http://www.w3.org/2000/svg">
<path fill-rule="evenodd" clip-rule="evenodd" d="M9.24261 4.86082L15.9221 1.34468C16.8704 0.8455 18.0129 0.890049 18.9194 1.46155L21.3293 2.98083C21.6487 3.18215 22.0184 3.28898 22.3959 3.28898H22.9999C23.5522 3.28898 23.9999 3.73669 23.9999 4.28898V12.4378C23.9999 12.8546 23.662 13.1925 23.2452 13.1925C23.0312 13.1925 22.8273 13.1016 22.6842 12.9426L17.479 7.15728C17.1258 6.76469 16.5914 6.58807 16.0738 6.69287L10.3108 7.85981C9.43743 8.03666 8.58679 7.46958 8.4141 6.59539C8.27625 5.8976 8.61321 5.19214 9.24261 4.86082ZM0 11.0921V5.38936C0 4.83707 0.447715 4.38936 1 4.38936H2.61126C3.0408 4.38936 3.45892 4.25107 3.80376 3.99496L6.02885 2.34235C6.71852 1.83012 7.55477 1.55355 8.41385 1.55355H13.0909L8.59806 3.82792C6.99434 4.63976 6.56969 6.73642 7.73114 8.1083C8.35085 8.84029 9.30385 9.20152 10.2531 9.06424L15.834 8.25704C16.1649 8.20918 16.4978 8.32986 16.7212 8.57863L17.5133 9.46085C17.559 9.50216 17.6032 9.5462 17.6456 9.59298L21.5853 13.9343C21.6756 14.0338 21.7529 14.1411 21.8171 14.2539L21.8182 14.2551L21.8179 14.2553C22.2562 15.026 22.0906 16.0537 21.3761 16.6302C20.9929 16.9394 20.5222 17.0588 20.0739 16.9945C20.4866 17.8708 20.2838 18.9753 19.5087 19.6268C18.9438 20.1016 18.2109 20.2172 17.57 19.994C17.5444 20.6155 17.2418 21.2214 16.6933 21.5902C16.1533 21.9533 15.4992 21.9974 14.9437 21.7569C14.8399 22.0888 14.6427 22.3937 14.3566 22.6245C13.6504 23.1944 12.6507 23.1059 12.0541 22.4252L12.355 22.1857C13.44 21.3222 13.6282 19.7317 12.7754 18.6333C12.3402 18.0728 11.7181 17.7487 11.0691 17.6804C11.1065 17.0815 10.9348 16.467 10.5397 15.9581C10.0983 15.3896 9.46468 15.0643 8.80557 15.0024C8.83646 14.4118 8.66408 13.8077 8.27471 13.3062C7.77848 12.6671 7.03916 12.3353 6.29389 12.3397C6.27872 11.8173 6.1041 11.2951 5.7606 10.8526C4.90776 9.75417 3.33684 9.56366 2.25186 10.4271L1.52092 11.0088C1.16236 11.2942 0.901745 11.6589 0.744278 12.0591C0.315878 11.9461 0 11.556 0 11.0921Z" fill="#273142"/>
<path fill-rule="evenodd" clip-rule="evenodd" d="M4.90278 11.5351C4.42226 10.9162 3.53716 10.8089 2.92586 11.2954L2.19492 11.8771C1.58362 12.3635 1.47759 13.2597 1.9581 13.8786C2.43862 14.4975 3.32372 14.6048 3.93502 14.1183L4.66596 13.5366C5.27726 13.0501 5.38329 12.154 4.90278 11.5351ZM7.41688 13.9887C6.93637 13.3698 6.05127 13.2624 5.43997 13.7489L3.86411 15.003C3.25281 15.4895 3.14678 16.3856 3.6273 17.0045C4.10781 17.6234 4.99291 17.7308 5.60422 17.2443L7.18007 15.9902C7.79137 15.5037 7.8974 14.6076 7.41688 13.9887ZM7.70494 16.4008C8.31625 15.9143 9.20135 16.0216 9.68186 16.6405C10.1624 17.2594 10.0563 18.1555 9.44504 18.642L7.81045 19.9429C7.19914 20.4294 6.31405 20.322 5.83353 19.7031C5.35302 19.0842 5.45904 18.1881 6.07035 17.7016L7.70494 16.4008ZM11.9175 19.3157C11.437 18.6968 10.5519 18.5895 9.9406 19.076L9.50436 19.4231C8.89306 19.9096 8.78703 20.8057 9.26755 21.4246C9.74806 22.0436 10.6332 22.1509 11.2445 21.6644L11.6807 21.3172C12.292 20.8307 12.398 19.9346 11.9175 19.3157Z" fill="#273142"/>
</svg>
