<svg width="14" height="14" viewBox="0 0 14 14" fill="none" xmlns="http://www.w3.org/2000/svg">
<path d="M7 0C10.866 6.35819e-07 14 3.13401 14 7C14 10.866 10.866 14 7 14C6.67794 14 6.41717 13.739 6.41699 13.417C6.41699 13.0948 6.67783 12.833 7 12.833C10.2217 12.833 12.833 10.2217 12.833 7C12.833 3.77834 10.2217 1.16699 7 1.16699C3.77834 1.16699 1.16699 3.77834 1.16699 7C1.16699 8.47894 1.71749 9.82786 2.625 10.8564V9.625C2.62501 9.30295 2.886 9.04217 3.20801 9.04199C3.53017 9.04199 3.79198 9.30284 3.79199 9.625V12.25C3.79199 12.5722 3.53017 12.833 3.20801 12.833H0.583008C0.260991 12.8328 -7.47509e-09 12.5721 0 12.25C8.33407e-06 11.9279 0.260996 11.6672 0.583008 11.667H1.75293C1.61245 11.4941 1.47281 11.3014 1.33398 11.1104C0.49549 9.9563 -1.50168e-07 8.53584 0 7C5.06964e-07 3.13401 3.13401 -5.06964e-07 7 0ZM7 1.75C9.89949 1.75 12.25 4.1005 12.25 7C12.25 9.89949 9.89949 12.25 7 12.25C6.16192 12.25 5.36984 12.0534 4.66699 11.7041V9.625C4.66699 8.81958 4.01342 8.16699 3.20801 8.16699C2.73414 8.1671 2.31318 8.39296 2.04688 8.74316C1.85491 8.19769 1.75 7.61112 1.75 7C1.75 4.1005 4.1005 1.75 7 1.75ZM7 3.5C6.67794 3.5 6.41717 3.76099 6.41699 4.08301V7C6.41699 7.32217 6.67783 7.58301 7 7.58301H9.33301C9.65517 7.58301 9.91699 7.32217 9.91699 7C9.91699 6.67783 9.65517 6.41699 9.33301 6.41699H7.58301V4.08301C7.58283 3.76099 7.32206 3.5 7 3.5Z" fill="#273142"/>
</svg>
