<svg width="24" height="24" viewBox="0 0 24 24" fill="none" xmlns="http://www.w3.org/2000/svg">
<g clip-path="url(#clip0_1407_16157)">
<path d="M0.746391 7.82614C0.264047 9.12617 0 10.5322 0 12C0 13.4679 0.264047 14.874 0.746391 16.1739L12 17.2174L23.2536 16.1739C23.736 14.874 24 13.4679 24 12C24 10.5322 23.736 9.12617 23.2536 7.82614L12 6.78265L0.746391 7.82614Z" fill="#F0F0F0"/>
<path d="M12 0C6.84049 0 2.44193 3.2565 0.74646 7.82611H23.2537C21.5581 3.2565 17.1596 0 12 0Z" fill="#D80027"/>
<path d="M12 24C17.1596 24 21.5581 20.7435 23.2537 16.1739H0.74646C2.44193 20.7435 6.84049 24 12 24Z" fill="#6DA544"/>
</g>
<defs>
<clipPath id="clip0_1407_16157">
<rect width="24" height="24" fill="white"/>
</clipPath>
</defs>
</svg>
