<svg width="24" height="24" viewBox="0 0 24 24" fill="none" xmlns="http://www.w3.org/2000/svg">
<g clip-path="url(#clip0_1407_16175)">
<path d="M12 24C18.6274 24 24 18.6274 24 12C24 5.37258 18.6274 0 12 0C5.37258 0 0 5.37258 0 12C0 18.6274 5.37258 24 12 24Z" fill="#F0F0F0"/>
<path d="M16.5184 9.39134H13.5061L12 6.78265L10.4939 9.39134H7.48157L8.98785 12L7.48157 14.6087H10.4939L12 17.2174L13.5061 14.6087H16.5184L15.0121 12L16.5184 9.39134ZM13.8504 12L12.9253 13.6026H11.0749L10.1496 12L11.0748 10.3975H12.9252L13.8504 12ZM12 8.79486L12.3443 9.39129H11.6557L12 8.79486ZM9.22433 10.3975H9.91302L9.56868 10.9939L9.22433 10.3975ZM9.22433 13.6026L9.56872 13.0062L9.91307 13.6026H9.22433ZM12 15.2052L11.6557 14.6087H12.3443L12 15.2052ZM14.7756 13.6026H14.087L14.4313 13.0062L14.7756 13.6026ZM14.087 10.3975H14.7756L14.4313 10.9939L14.087 10.3975Z" fill="#0052B4"/>
<path d="M19.4698 2.6087H4.53009C3.43495 3.48095 2.49576 4.54042 1.76123 5.73916H22.2387C21.5041 4.54047 20.5649 3.48095 19.4698 2.6087Z" fill="#0052B4"/>
<path d="M4.53009 21.3913H19.4698C20.5649 20.5191 21.5041 19.4596 22.2386 18.2609H1.76123C2.49581 19.4596 3.435 20.5191 4.53009 21.3913Z" fill="#0052B4"/>
</g>
<defs>
<clipPath id="clip0_1407_16175">
<rect width="24" height="24" fill="white"/>
</clipPath>
</defs>
</svg>
