<svg width="24" height="24" viewBox="0 0 24 24" fill="none" xmlns="http://www.w3.org/2000/svg">
<path fill-rule="evenodd" clip-rule="evenodd" d="M20.4 0H3.6C1.56 0 0 1.56 0 3.6V20.4C0 22.44 1.56 24 3.6 24H20.4C22.44 24 24 22.44 24 20.4V3.6C24 1.56 22.44 0 20.4 0ZM21 13.68L19.32 12C17.88 10.68 15.6 10.68 14.28 12L13.2 13.08L9.72 9.6C8.28 8.28 6 8.28 4.68 9.6L3 11.28V4C3 3.44772 3.44772 3 4 3L20 3C20.5523 3 21 3.44771 21 4V13.68ZM15 7.5C15 8.32843 14.3284 9 13.5 9C12.6716 9 12 8.32843 12 7.5C12 6.67157 12.6716 6 13.5 6C14.3284 6 15 6.67157 15 7.5Z" fill="#273142"/>
</svg>
