<svg width="24" height="24" viewBox="0 0 24 24" fill="none" xmlns="http://www.w3.org/2000/svg">
<g clip-path="url(#clip0_1407_16159)">
<path d="M12 24C18.6274 24 24 18.6274 24 12C24 5.37258 18.6274 0 12 0C5.37258 0 0 5.37258 0 12C0 18.6274 5.37258 24 12 24Z" fill="#F0F0F0"/>
<path d="M12 0C7.24242 0 3.13167 2.76867 1.19067 6.78263H22.8092C20.8682 2.76867 16.7574 0 12 0Z" fill="#FF9811"/>
<path d="M12 24C16.7574 24 20.8682 21.2313 22.8092 17.2173H1.19067C3.13167 21.2313 7.24242 24 12 24Z" fill="#6DA544"/>
<path d="M11.9999 16.1739C14.3051 16.1739 16.1738 14.3052 16.1738 12C16.1738 9.69483 14.3051 7.82611 11.9999 7.82611C9.69476 7.82611 7.82605 9.69483 7.82605 12C7.82605 14.3052 9.69476 16.1739 11.9999 16.1739Z" fill="#0052B4"/>
<path d="M12 14.6087C13.4408 14.6087 14.6087 13.4407 14.6087 12C14.6087 10.5592 13.4408 9.3913 12 9.3913C10.5593 9.3913 9.39136 10.5592 9.39136 12C9.39136 13.4407 10.5593 14.6087 12 14.6087Z" fill="#F0F0F0"/>
<path d="M12 8.78088L12.8048 10.6061L14.7878 10.3904L13.6095 12L14.7878 13.6095L12.8048 13.3939L12 15.2191L11.1952 13.3939L9.21216 13.6095L10.3904 12L9.21216 10.3904L11.1952 10.6061L12 8.78088Z" fill="#0052B4"/>
</g>
<defs>
<clipPath id="clip0_1407_16159">
<rect width="24" height="24" fill="white"/>
</clipPath>
</defs>
</svg>
