<svg width="24" height="24" viewBox="0 0 24 24" fill="none" xmlns="http://www.w3.org/2000/svg">
<path fill-rule="evenodd" clip-rule="evenodd" d="M17.2181 15.6C15.8809 15.6 14.6513 15.9544 13.6907 16.5451C12.6327 17.1949 11.3647 17.1949 10.3067 16.5451C9.34612 15.9544 8.11652 15.6 6.77933 15.6C3.69764 15.6 1.20001 17.4814 1.20001 19.8C1.20001 22.1185 3.7002 24 6.78189 24C8.11908 24 9.34868 23.6455 10.3093 23.0548C11.3673 22.405 12.6353 22.405 13.6933 23.0548C14.6539 23.6455 15.8835 24 17.2207 24C20.3024 24 22.8 22.1185 22.8 19.8C22.8 17.4814 20.2998 15.6 17.2181 15.6ZM6.78196 21.6075C5.32181 21.6075 4.13575 20.7982 4.13575 19.7999C4.13575 18.8015 5.31925 17.9923 6.78196 17.9923C8.24467 17.9923 9.42816 18.8015 9.42816 19.7999C9.42816 20.7982 8.24211 21.6075 6.78196 21.6075ZM14.572 19.7999C14.572 20.7982 15.7581 21.6075 17.2182 21.6075C18.6784 21.6075 19.8644 20.7982 19.8644 19.7999C19.8644 18.8015 18.681 17.9923 17.2182 17.9923C15.7555 17.9923 14.572 18.8015 14.572 19.7999Z" fill="#273142"/>
<path d="M12 0C17.7303 0 22.4052 4.01931 22.6561 10.5601C23.403 10.56 24 11.151 24 11.88C24 12.609 23.403 13.2 22.6667 13.2H1.33333C0.596954 13.2 0 12.609 0 11.88C0 11.151 0.596954 10.56 1.33333 10.56C1.59479 4.01931 6.26971 0 12 0Z" fill="#273142"/>
</svg>
