<svg width="20" height="20" viewBox="0 0 20 20" fill="none" xmlns="http://www.w3.org/2000/svg">
<path fill-rule="evenodd" clip-rule="evenodd" d="M10 0C15.5228 0 20 4.47715 20 10C20 15.5228 15.5228 20 10 20C4.47715 20 0 15.5228 0 10C0 4.47715 4.47715 0 10 0ZM8.75 9.58333C8.75 8.89298 9.30964 8.33333 10 8.33333C10.6904 8.33333 11.25 8.89298 11.25 9.58333V13.75C11.25 14.4404 10.6904 15 10 15C9.30964 15 8.75 14.4404 8.75 13.75V9.58333ZM10 5C9.30964 5 8.75 5.55964 8.75 6.25C8.75 6.94036 9.30964 7.5 10 7.5C10.6904 7.5 11.25 6.94036 11.25 6.25C11.25 5.55964 10.6904 5 10 5Z" fill="white"/>
</svg>
