<svg width="24" height="24" viewBox="0 0 24 24" fill="none" xmlns="http://www.w3.org/2000/svg">
<g clip-path="url(#clip0_1407_16158)">
<path d="M12 24C18.6274 24 24 18.6274 24 12C24 5.37258 18.6274 0 12 0C5.37258 0 0 5.37258 0 12C0 18.6274 5.37258 24 12 24Z" fill="#F0F0F0"/>
<path d="M0.41333 15.1304C1.10764 17.7066 2.63788 19.9395 4.6956 21.5205V15.1304H0.41333Z" fill="#0052B4"/>
<path d="M10.9564 23.9543C11.3004 23.9839 11.6482 24 11.9999 24C17.5442 24 22.2095 20.2396 23.5865 15.1304H10.9564V23.9543Z" fill="#0052B4"/>
<path d="M23.5865 8.86955C22.2095 3.76036 17.5442 0 11.9999 0C11.6482 0 11.3004 0.0160312 10.9564 0.0456562V8.86955H23.5865Z" fill="#0052B4"/>
<path d="M4.6956 2.47943C2.63788 4.06052 1.10764 6.29332 0.41333 8.86952H4.6956V2.47943Z" fill="#0052B4"/>
<path d="M23.8984 10.4348H9.39136H9.39131V0.285217C8.28234 0.531124 7.23098 0.929702 6.26086 1.45906V10.4347H0.101578C0.0347813 10.9471 0 11.4695 0 12C0 12.5305 0.0347813 13.0528 0.101578 13.5652H6.26081H6.26086V22.5409C7.23098 23.0702 8.28234 23.4688 9.39131 23.7147V13.5653V13.5652H23.8984C23.9651 13.0528 24 12.5305 24 12C24 11.4695 23.9651 10.9471 23.8984 10.4348Z" fill="#D80027"/>
</g>
<defs>
<clipPath id="clip0_1407_16158">
<rect width="24" height="24" fill="white"/>
</clipPath>
</defs>
</svg>
