<svg width="24" height="24" viewBox="0 0 24 24" fill="none" xmlns="http://www.w3.org/2000/svg">
<g clip-path="url(#clip0_1407_16180)">
<path d="M12 24C18.6274 24 24 18.6274 24 12C24 5.37258 18.6274 0 12 0C5.37258 0 0 5.37258 0 12C0 18.6274 5.37258 24 12 24Z" fill="#F0F0F0"/>
<path d="M21.5202 19.3067L14.2135 12.0001H14.2135L21.5202 4.69333C21.205 4.28383 20.8603 3.88984 20.4853 3.5147C20.1101 3.13961 19.7162 2.79484 19.3066 2.4798L12 9.78644L12 9.78648L4.69331 2.4798C4.28386 2.79489 3.88983 3.13956 3.51469 3.5147C3.13955 3.88984 2.79483 4.28383 2.47978 4.69333L9.78642 11.9999L9.78647 12L2.47974 19.3067C2.79488 19.7162 3.1396 20.1102 3.51464 20.4853C3.88978 20.8604 4.28372 21.2052 4.69327 21.5202L12 14.2136L12 14.2135L19.3066 21.5202C19.7161 21.2051 20.1101 20.8604 20.4853 20.4853C20.8604 20.1101 21.2051 19.7162 21.5202 19.3067Z" fill="#D80027"/>
<path d="M9.91309 3.65214L12.0001 4.17386L14.087 3.65214V1.87825L13.2522 2.29563L12.0001 1.04346L10.7479 2.29563L9.91309 1.87825V3.65214Z" fill="#FFDA44"/>
<path d="M9.91309 3.65216V4.9566C9.91309 6.5541 12.0001 7.04357 12.0001 7.04357C12.0001 7.04357 14.087 6.55405 14.087 4.9566V3.65216H9.91309Z" fill="#D80027"/>
</g>
<defs>
<clipPath id="clip0_1407_16180">
<rect width="24" height="24" fill="white"/>
</clipPath>
</defs>
</svg>
