<svg width="24" height="24" viewBox="0 0 24 24" fill="none" xmlns="http://www.w3.org/2000/svg">
<g clip-path="url(#clip0_1407_16178)">
<path d="M12 24C18.6274 24 24 18.6274 24 12C24 5.37258 18.6274 0 12 0C5.37258 0 0 5.37258 0 12C0 18.6274 5.37258 24 12 24Z" fill="#FFDA44"/>
<path d="M19.3058 2.48062C17.2823 0.925266 14.7494 0 12 0C9.2506 0 6.71767 0.925312 4.69421 2.48062L12 9.78638L19.3058 2.48062Z" fill="#6DA544"/>
<path d="M2.48058 4.69427C0.925312 6.71773 0 9.25062 0 12C0 14.7494 0.925312 17.2824 2.48062 19.3059L9.78642 12L2.48058 4.69427Z" fill="black"/>
<path d="M4.69421 21.5194C6.71771 23.0747 9.2506 24 12 24C14.7494 24 17.2823 23.0747 19.3058 21.5194L12 14.2136L4.69421 21.5194Z" fill="#6DA544"/>
<path d="M21.5194 19.3058C23.0747 17.2823 24 14.7494 24 12C24 9.25062 23.0747 6.71773 21.5194 4.69427L14.2136 12L21.5194 19.3058Z" fill="black"/>
</g>
<defs>
<clipPath id="clip0_1407_16178">
<rect width="24" height="24" fill="white"/>
</clipPath>
</defs>
</svg>
