<svg width="24" height="24" viewBox="0 0 24 24" fill="none" xmlns="http://www.w3.org/2000/svg">
<g clip-path="url(#clip0_1407_16194)">
<path d="M0 12C0 5.37262 5.37262 0 12 0C18.6274 0 24 5.37262 24 12" fill="#D80027"/>
<path d="M16.1738 11.1599L14.4683 11.9621L15.3765 13.6139L13.5245 13.2596L13.2899 15.1305L11.9999 13.7545L10.7099 15.1305L10.4753 13.2596L8.62335 13.6138L9.53155 11.9621L7.82605 11.1599L9.53155 10.3576L8.62335 8.70599L10.4753 9.06017L10.71 7.18939L11.9999 8.56531L13.2899 7.18939L13.5245 9.06017L15.3766 8.70599L14.4684 10.3578L16.1738 11.1599Z" fill="#FFDA44"/>
<path d="M15.1304 3.91306H12.7826C12.7826 3.48092 12.4321 3.13043 12 3.13043C11.5678 3.13043 11.2173 3.48087 11.2173 3.91306H8.86951C8.86951 4.34524 9.24601 4.69568 9.67819 4.69568H9.65209C9.65209 5.12787 10.0024 5.47831 10.4347 5.47831C10.4347 5.91049 10.7851 6.26093 11.2173 6.26093H12.7825C13.2147 6.26093 13.5652 5.91054 13.5652 5.47831C13.9973 5.47831 14.3478 5.12792 14.3478 4.69568H14.3217C14.7539 4.69568 15.1304 4.34529 15.1304 3.91306Z" fill="#FFDA44"/>
<path d="M24 12C24 18.6274 18.6274 24 12 24C5.37262 24 0 18.6274 0 12H24Z" fill="#F0F0F0"/>
<path d="M12.0001 24C15.7511 24 19.0996 22.2786 21.3002 19.5831C20.9043 19.3132 20.6906 18.877 19.9999 18.877C18.9999 18.877 18.9999 19.7914 18 19.7914C17 19.7914 17 18.877 16 18.877C15.0001 18.877 15.0001 19.7914 14 19.7914C13 19.7914 13 18.877 11.9999 18.877C10.9999 18.877 10.9999 19.7914 9.99995 19.7914C9.00011 19.7914 9.00011 18.877 8.00013 18.877C7.00005 18.877 7.00005 19.7914 5.99997 19.7914C4.99989 19.7914 4.99989 18.877 3.99981 18.877C3.30916 18.877 3.09545 19.3131 2.69983 19.583C4.90033 22.2786 8.24899 24 12.0001 24Z" fill="#0052B4"/>
<path d="M21.9999 13.5305C20.9999 13.5305 20.9999 12.6161 19.9998 12.6161C18.9999 12.6161 18.9999 13.5305 17.9999 13.5305C17 13.5305 16.9999 12.6161 16 12.6161C15 12.6161 15 13.5305 14 13.5305C13 13.5305 12.9999 12.6161 11.9998 12.6161C10.9998 12.6161 10.9998 13.5305 9.99991 13.5305C9.00006 13.5305 9.00006 12.6161 8.00008 12.6161C7 12.6161 7 13.5305 5.99992 13.5305C4.99984 13.5305 4.99984 12.6161 3.99977 12.6161C2.99992 12.6161 2.99992 13.5305 1.99994 13.5305C1.00534 13.5305 0.999578 12.6262 0.015625 12.6166C0.0433281 13.1655 0.108859 13.7044 0.207953 14.2313C1.00502 14.3485 1.07481 15.1305 1.99998 15.1305C2.99997 15.1305 2.99997 14.2162 3.99981 14.2162C4.99989 14.2162 4.99989 15.1305 5.99997 15.1305C7.00005 15.1305 7.00005 14.2162 8.00013 14.2162C9.00011 14.2162 9.00011 15.1305 9.99995 15.1305C10.9999 15.1305 10.9999 14.2162 11.9999 14.2162C13 14.2162 13 15.1305 14 15.1305C15.0001 15.1305 15.0001 14.2162 16 14.2162C17 14.2162 17 15.1305 18 15.1305C18.9999 15.1305 19 14.2162 19.9999 14.2162C21 14.2162 21 15.1305 21.9999 15.1305C22.9252 15.1305 22.995 14.3485 23.7921 14.2314C23.8912 13.7044 23.9567 13.1655 23.9845 12.6166C23.0004 12.6263 22.9945 13.5305 21.9999 13.5305Z" fill="#0052B4"/>
<path d="M19.9999 15.7466C18.9999 15.7466 18.9999 16.6609 18 16.6609C17 16.6609 17 15.7466 16 15.7466C15.0001 15.7466 15.0001 16.6609 14 16.6609C12.9999 16.6609 13 15.7466 11.9999 15.7466C10.9999 15.7466 10.9999 16.6609 9.99995 16.6609C9.00011 16.6609 9.00011 15.7466 8.00012 15.7466C7.00004 15.7466 7.00004 16.6609 5.99997 16.6609C4.99989 16.6609 4.99989 15.7466 3.99981 15.7466C2.99997 15.7466 2.99997 16.6609 1.99998 16.6609C1.28547 16.6609 1.08137 16.1942 0.658325 15.9276C0.93995 16.7413 1.30633 17.5154 1.74756 18.2389C1.82429 18.2531 1.90783 18.2609 1.99998 18.2609C2.99997 18.2609 2.99997 17.3467 3.99981 17.3467C4.99989 17.3467 4.99989 18.2609 5.99997 18.2609C7.00004 18.2609 7.00004 17.3467 8.00012 17.3467C9.00011 17.3467 9.00011 18.2609 9.99995 18.2609C10.9999 18.2609 10.9999 17.3467 11.9999 17.3467C13 17.3467 12.9999 18.2609 14 18.2609C15.0001 18.2609 15.0001 17.3467 16 17.3467C17 17.3467 17 18.2609 18 18.2609C18.9999 18.2609 19 17.3467 19.9999 17.3467C21 17.3467 21 18.2609 21.9999 18.2609C22.0922 18.2609 22.1757 18.2531 22.2524 18.2389C22.6937 17.5154 23.06 16.7413 23.3417 15.9277C22.9187 16.1941 22.7145 16.6609 21.9999 16.6609C21 16.6609 21 15.7466 19.9999 15.7466Z" fill="#0052B4"/>
<path d="M23.9628 11.0519C23.0004 11.0747 22.9872 11.9652 21.9998 11.9652C20.9999 11.9652 20.9999 11.0509 19.9998 11.0509C18.9998 11.0509 18.9998 11.9652 17.9999 11.9652C17 11.9652 16.9999 11.0509 16 11.0509C15 11.0509 15 11.9652 14 11.9652C12.9999 11.9652 12.9999 11.0509 11.9998 11.0509C10.9998 11.0509 10.9998 11.9652 9.99989 11.9652C9.00005 11.9652 9.00005 11.0509 8.00006 11.0509C6.99998 11.0509 6.99998 11.9652 5.99991 11.9652C4.99983 11.9652 4.99983 11.0509 3.99975 11.0509C2.99991 11.0509 2.99991 11.9652 1.99992 11.9652C1.01278 11.9652 0.999422 11.0748 0.0371719 11.0519C0.01275 11.3648 0 11.6809 0 12C0 12.2186 0.0061875 12.4357 0.0178594 12.6514C0.999563 12.6624 1.00608 13.5652 1.99997 13.5652C2.99995 13.5652 2.99995 12.6509 3.9998 12.6509C4.99988 12.6509 4.99988 13.5652 5.99995 13.5652C7.00003 13.5652 7.00003 12.6509 8.00011 12.6509C9.00009 12.6509 9.00009 13.5652 9.99994 13.5652C10.9999 13.5652 10.9999 12.6509 11.9999 12.6509C12.9999 12.6509 12.9999 13.5652 14 13.5652C15.0001 13.5652 15.0001 12.6509 16 12.6509C17 12.6509 17 13.5652 18 13.5652C18.9999 13.5652 18.9999 12.6509 19.9999 12.6509C21 12.6509 21 13.5652 21.9999 13.5652C22.9939 13.5652 23.0004 12.6624 23.9823 12.6514C23.9938 12.4357 24 12.2186 24 12C24 11.6809 23.9872 11.3648 23.9628 11.0519Z" fill="#F0F0F0"/>
</g>
<defs>
<clipPath id="clip0_1407_16194">
<rect width="24" height="24" fill="white"/>
</clipPath>
</defs>
</svg>
