<svg width="24" height="24" viewBox="0 0 24 24" fill="none" xmlns="http://www.w3.org/2000/svg">
<g clip-path="url(#clip0_1407_16031)">
<path d="M12 24C18.6274 24 24 18.6274 24 12C24 5.37258 18.6274 0 12 0C5.37258 0 0 5.37258 0 12C0 18.6274 5.37258 24 12 24Z" fill="#F0F0F0"/>
<path d="M11.9999 0C8.36285 0 5.10396 1.61831 2.90332 4.17389H21.0965C18.8959 1.61831 15.637 0 11.9999 0Z" fill="#0052B4"/>
<path d="M21.0965 19.8261H2.90332C5.10396 22.3817 8.36285 24 11.9999 24C15.637 24 18.8959 22.3817 21.0965 19.8261Z" fill="#0052B4"/>
<path d="M22.2387 5.73914H1.76128C0.644297 7.56187 0 9.7056 0 12C0 14.2944 0.644297 16.4382 1.76128 18.2609H22.2387C23.3557 16.4382 24 14.2944 24 12C24 9.7056 23.3557 7.56187 22.2387 5.73914Z" fill="#D80027"/>
<path d="M7.38251 16.6174C9.93262 16.6174 11.9999 14.5501 11.9999 12C11.9999 9.4499 9.93262 7.38263 7.38251 7.38263C4.83241 7.38263 2.76514 9.4499 2.76514 12C2.76514 14.5501 4.83241 16.6174 7.38251 16.6174Z" fill="#F0F0F0"/>
<path d="M7.38254 7.38263L8.41853 10.5711H11.7766L9.05889 12.5418L10.103 15.7398L7.38254 13.7597L4.66623 15.7361L5.7062 12.5418L2.99097 10.5711H6.34651L7.38254 7.38263Z" fill="#D80027"/>
</g>
<defs>
<clipPath id="clip0_1407_16031">
<rect width="24" height="24" fill="white"/>
</clipPath>
</defs>
</svg>
