<svg width="24" height="24" viewBox="0 0 24 24" fill="none" xmlns="http://www.w3.org/2000/svg">
<g clip-path="url(#clip0_1407_16196)">
<path d="M23.2536 16.1739C23.736 14.8739 24 13.4679 24 12C24 10.5322 23.736 9.12612 23.2536 7.82614L12 6.78265L0.746391 7.82614C0.264047 9.12612 0 10.5322 0 12C0 13.4679 0.264047 14.8739 0.746391 16.1739L12 17.2174L23.2536 16.1739Z" fill="#F0F0F0"/>
<path d="M12 24C17.1595 24 21.5581 20.7435 23.2536 16.1739H0.746338C2.4419 20.7435 6.84037 24 12 24Z" fill="#D80027"/>
<path d="M12 0C6.84037 0 2.4419 3.2565 0.746338 7.82611H23.2536C21.5581 3.2565 17.1595 0 12 0Z" fill="#6DA544"/>
<path d="M3.51471 3.51471C-1.17157 8.20099 -1.17157 15.799 3.51471 20.4853C4.73791 19.2621 5.93182 18.0682 7.82609 16.174V7.82613L3.51471 3.51471Z" fill="black"/>
</g>
<defs>
<clipPath id="clip0_1407_16196">
<rect width="24" height="24" fill="white"/>
</clipPath>
</defs>
</svg>
