<svg width="24" height="24" viewBox="0 0 24 24" fill="none" xmlns="http://www.w3.org/2000/svg">
<g clip-path="url(#clip0_1407_16192)">
<path d="M12 24C18.6274 24 24 18.6274 24 12C24 5.37258 18.6274 0 12 0C5.37258 0 0 5.37258 0 12C0 18.6274 5.37258 24 12 24Z" fill="#338AF3"/>
<path d="M18.7827 12.1304H5.21741C5.21741 13.0669 6.03308 13.8261 6.9695 13.8261H6.91306C6.91306 14.7626 7.6722 15.5217 8.60872 15.5217C8.60872 16.4583 9.36786 17.2174 10.3044 17.2174H13.6957C14.6322 17.2174 15.3913 16.4583 15.3913 15.5217C16.3279 15.5217 17.087 14.7626 17.087 13.8261H17.0306C17.9669 13.8261 18.7827 13.0669 18.7827 12.1304Z" fill="#FFDA44"/>
<path d="M16.6956 9.91302C16.6956 12.5063 14.5933 14.6087 12 14.6087C9.40662 14.6087 7.30432 12.5063 7.30432 9.91302" fill="#338AF3"/>
<path d="M15.5866 9.91305L14.1211 10.6024L14.9015 12.0218L13.3101 11.7174L13.1084 13.325L12 12.1426L10.8915 13.325L10.6899 11.7174L9.09845 12.0217L9.87883 10.6024L8.41333 9.91305L9.87888 9.22371L9.09845 7.80438L10.6898 8.10878L10.8915 6.50116L12 7.68358L13.1085 6.50116L13.3101 8.10878L14.9015 7.80438L14.1211 9.22375L15.5866 9.91305Z" fill="#FFDA44"/>
</g>
<defs>
<clipPath id="clip0_1407_16192">
<rect width="24" height="24" fill="white"/>
</clipPath>
</defs>
</svg>
