<svg width="24" height="24" viewBox="0 0 24 24" fill="none" xmlns="http://www.w3.org/2000/svg">
<g clip-path="url(#clip0_1407_16200)">
<path d="M12 24C18.6274 24 24 18.6274 24 12C24 5.37258 18.6274 0 12 0C5.37258 0 0 5.37258 0 12C0 18.6274 5.37258 24 12 24Z" fill="#F0F0F0"/>
<path d="M12 0C7.24242 0 3.13167 2.76867 1.19067 6.78263H22.8092C20.8682 2.76867 16.7574 0 12 0Z" fill="#D80027"/>
<path d="M12 24C16.7574 24 20.8682 21.2313 22.8092 17.2173H1.19067C3.13167 21.2313 7.24242 24 12 24Z" fill="#D80027"/>
<path d="M15.1304 14.087L12 8.34784L8.86951 14.087H11.2173V15.6522H12.7826V14.087H15.1304Z" fill="#6DA544"/>
</g>
<defs>
<clipPath id="clip0_1407_16200">
<rect width="24" height="24" fill="white"/>
</clipPath>
</defs>
</svg>
