<svg width="24" height="24" viewBox="0 0 24 24" fill="none" xmlns="http://www.w3.org/2000/svg">
<path d="M1.86505 13.126L6.37038 8.62228C9.30019 5.69067 14.2876 6.49545 16.356 9.98609C15.719 10.6231 13.9122 12.2256 13.9122 12.2256C13.0394 10.1109 10.4457 9.0507 8.62227 10.8742L4.11848 15.378C2.87589 16.6206 2.87589 18.6407 4.11848 19.8825C5.35954 21.1243 7.37968 21.1243 8.62227 19.8825L10.2241 18.2791C11.5235 18.7853 12.9239 18.9214 14.287 18.7216L10.8742 22.1344C8.38593 24.6219 4.35338 24.6219 1.8651 22.1344C-0.621691 19.6468 -0.621691 15.6135 1.86505 13.126ZM13.7754 5.72031L15.378 4.11692C16.6198 2.87588 18.6407 2.87588 19.8825 4.11692C21.1243 5.35951 21.1243 7.37968 19.8825 8.62223L15.378 13.126C14.1354 14.3686 12.116 14.3686 10.8742 13.126C10.4861 12.738 10.0872 11.7761 10.0872 11.7761C10.0872 11.7761 8.41402 13.3337 7.65488 14.0925C9.71026 17.5937 14.7087 18.2997 17.6306 15.3779L22.1344 10.8741C24.6219 8.38584 24.6219 4.35331 22.1344 1.86504C19.6469 -0.621679 15.6135 -0.621679 13.126 1.86504L9.71239 5.27864C11.0763 5.07804 12.4768 5.2149 13.7754 5.72031Z" fill="#273142"/>
</svg>
