<svg width="24" height="24" viewBox="0 0 24 24" fill="none" xmlns="http://www.w3.org/2000/svg">
<path fill-rule="evenodd" clip-rule="evenodd" d="M8.5 6.5C8.5 4.567 10.067 3 12 3C13.933 3 15.5 4.567 15.5 6.5V9H8.5V6.5ZM5.5 9V6.5C5.5 2.91015 8.41015 0 12 0C15.5899 0 18.5 2.91015 18.5 6.5V9H19C20.6569 9 22 10.3431 22 12V21C22 22.6569 20.6569 24 19 24H5C3.34315 24 2 22.6569 2 21V12C2 10.3431 3.34315 9 5 9H5.5ZM10.5 15C10.5 14.1716 11.1716 13.5 12 13.5C12.8284 13.5 13.5 14.1716 13.5 15V18C13.5 18.8284 12.8284 19.5 12 19.5C11.1716 19.5 10.5 18.8284 10.5 18V15Z" fill="#273142"/>
</svg>
