<svg width="24" height="24" viewBox="0 0 24 24" fill="none" xmlns="http://www.w3.org/2000/svg">
<g clip-path="url(#clip0_1407_15962)">
<path d="M12 24C18.6274 24 24 18.6274 24 12C24 5.37258 18.6274 0 12 0C5.37258 0 0 5.37258 0 12C0 18.6274 5.37258 24 12 24Z" fill="#F0F0F0"/>
<path d="M2.74292 4.36368H21.257C20.5732 3.53563 19.7801 2.80134 18.9003 2.18188H5.09965C4.21986 2.80124 3.42678 3.53559 2.74292 4.36368Z" fill="#F0F0F0"/>
<path d="M0 12C0 12.3678 0.0174844 12.7315 0.049875 13.0909H23.9501C23.9825 12.7315 24 12.3678 24 12C24 11.6322 23.9825 11.2685 23.9501 10.9091H0.049875C0.0174844 11.2685 0 11.6322 0 12H0Z" fill="#F0F0F0"/>
<path d="M1.30859 17.4545H22.6915C23.0448 16.7633 23.333 16.0334 23.5482 15.2728H0.451904C0.667014 16.0334 0.955295 16.7633 1.30859 17.4545Z" fill="#F0F0F0"/>
<path d="M5.09965 21.8182H18.9003C19.7801 21.1988 20.5732 20.4645 21.257 19.6364H2.74292C3.42678 20.4644 4.21986 21.1988 5.09965 21.8182Z" fill="#F0F0F0"/>
<path d="M0.451782 8.72728H23.5481C23.333 7.9666 23.0447 7.23666 22.6914 6.54549H1.30852C0.95522 7.23666 0.666938 7.9666 0.451782 8.72728Z" fill="#F0F0F0"/>
<path d="M5.73914 2.1818H18.9003C16.9484 0.807516 14.5686 0 12 0C10.4348 0 7.69101 0.807516 5.73914 2.1818Z" fill="#D80027"/>
<path d="M11.4784 6.54549H22.6916C22.2925 5.76488 21.8105 5.03368 21.2572 4.36369H11.4784V6.54549Z" fill="#D80027"/>
<path d="M11.4784 10.9091H23.9502C23.8827 10.16 23.7471 9.4304 23.5483 8.72733H11.4784V10.9091Z" fill="#D80027"/>
<path d="M0.451927 15.2728H23.5482C23.747 14.5697 23.8827 13.8401 23.9502 13.091H0.0499268C0.117427 13.8401 0.253083 14.5697 0.451927 15.2728Z" fill="#D80027"/>
<path d="M2.74297 19.6363H21.2571C21.8105 18.9662 22.2924 18.2351 22.6915 17.4545H1.30859C1.70764 18.2351 2.18961 18.9663 2.74297 19.6363Z" fill="#D80027"/>
<path d="M12.0001 24C14.5687 24 16.9485 23.1925 18.9004 21.8182H5.09973C7.05161 23.1925 9.43145 24 12.0001 24Z" fill="#D80027"/>
<path d="M0.45188 8.72728C0.253036 9.43041 0.117427 10.1599 0.0499268 10.9091H12.0001V0C6.50724 0 1.8765 3.69056 0.45188 8.72728Z" fill="#0052B4"/>
<path d="M7.1432 3.13045L7.92015 5.52178H10.4348L8.40053 6.99984L9.17743 9.39131L7.1432 7.91334L5.10887 9.39131L5.88597 6.99984L3.85168 5.52178H6.3662L7.1432 3.13045Z" fill="#F0F0F0"/>
</g>
<defs>
<clipPath id="clip0_1407_15962">
<rect width="24" height="24" fill="white"/>
</clipPath>
</defs>
</svg>
