<svg width="24" height="24" viewBox="0 0 24 24" fill="none" xmlns="http://www.w3.org/2000/svg">
<g clip-path="url(#clip0_1407_16007)">
<path d="M12 24C18.6274 24 24 18.6274 24 12C24 5.37258 18.6274 0 12 0C5.37258 0 0 5.37258 0 12C0 18.6274 5.37258 24 12 24Z" fill="#D80027"/>
<path d="M19.0917 9.84796H13.6742L12.0001 4.69565L10.326 9.84796H4.90845L9.29131 13.0323L7.61717 18.1847L12.0001 15.0004L16.383 18.1848L14.7088 13.0323L19.0917 9.84796ZM10.518 12.6337L11.0841 10.8914H12.916L13.4822 12.6337V12.6337L12.0001 13.7105L10.518 12.6337L10.518 12.6337ZM12.577 9.84796H11.4232L12.0001 8.07234L12.577 9.84796ZM14.3697 11.9888L14.0132 10.8914H15.8801L14.3697 11.9888ZM9.98693 10.8914L9.63035 11.9888L8.1199 10.8914H9.98693ZM9.60199 15.4529L10.1789 13.6773L11.1124 14.3555L9.60199 15.4529ZM12.8877 14.3555L13.8212 13.6773L14.3981 15.4529L12.8877 14.3555Z" fill="#FFDA44"/>
</g>
<defs>
<clipPath id="clip0_1407_16007">
<rect width="24" height="24" fill="white"/>
</clipPath>
</defs>
</svg>
