<svg width="25" height="25" viewBox="0 0 25 25" fill="none" xmlns="http://www.w3.org/2000/svg">
<path fill-rule="evenodd" clip-rule="evenodd" d="M19.97 1.43688C20.5558 0.85112 21.5056 0.851119 22.0915 1.43688L24.5605 3.90563C25.1463 4.49138 25.1463 5.44108 24.5605 6.02684L6.02492 24.5605C5.4391 25.1462 4.48931 25.1462 3.90349 24.5605L1.43448 22.0917C0.848662 21.5059 0.848664 20.5562 1.43448 19.9705L19.97 1.43688ZM21.0307 2.67121L23.326 4.9662L17.5879 10.7036L15.2927 8.40867L21.0307 2.67121ZM11.997 4.49888C9.86739 3.34342 9.65477 3.13007 8.4989 0.999975C7.34302 3.13007 7.1304 3.34342 5.00012 4.49888C7.12972 5.6557 7.34302 5.86837 8.4989 7.99846C9.65545 5.86837 9.86807 5.65435 11.997 4.49888ZM24.997 17.4989C22.8674 16.3434 22.6548 16.1301 21.4989 14C20.343 16.1301 20.1304 16.3434 18.0001 17.4989C20.1297 18.6557 20.343 18.8684 21.4989 20.9985C22.6555 18.8684 22.8681 18.6543 24.997 17.4989ZM3.49851 12.9989C2.67349 11.4775 2.52126 11.3252 1.0002 10.4989C2.52126 9.67364 2.67349 9.52139 3.49851 7.99998C4.32469 9.52139 4.47691 9.67364 5.99797 10.4989C4.47691 11.3252 4.32469 11.4775 3.49851 12.9989Z" fill="#273142"/>
</svg>
