<svg width="24" height="24" viewBox="0 0 24 24" fill="none" xmlns="http://www.w3.org/2000/svg">
<path fill-rule="evenodd" clip-rule="evenodd" d="M9.88236 0.28688C10.5523 0.774137 10.7005 1.71226 10.2132 2.38224L8.30939 5H15.6908L13.787 2.38224C13.2997 1.71226 13.4479 0.774137 14.1178 0.28688C14.7878 -0.200378 15.726 -0.0522527 16.2132 0.617726L19.4003 5H22.5C23.3284 5 24 5.67157 24 6.5V8.5C24 9.32843 23.3284 10 22.5 10H1.5C0.671573 10 0 9.32843 0 8.5V6.5C0 5.67157 0.671573 5 1.5 5H4.59989L7.787 0.617726C8.27426 -0.0522527 9.21239 -0.200378 9.88236 0.28688ZM23 11H1L2.98459 21.5544C3.25126 22.9726 4.48986 24 5.93292 24H18.0671C19.5101 24 20.7487 22.9726 21.0154 21.5544L23 11ZM9.70711 13.2929C9.31658 12.9024 8.68342 12.9024 8.29289 13.2929C7.90237 13.6834 7.90237 14.3166 8.29289 14.7071L10.5858 17L8.29289 19.2929C7.90237 19.6834 7.90237 20.3166 8.29289 20.7071C8.68342 21.0976 9.31658 21.0976 9.70711 20.7071L12 18.4142L14.2929 20.7071C14.6834 21.0976 15.3166 21.0976 15.7071 20.7071C16.0976 20.3166 16.0976 19.6834 15.7071 19.2929L13.4142 17L15.7071 14.7071C16.0976 14.3166 16.0976 13.6834 15.7071 13.2929C15.3166 12.9024 14.6834 12.9024 14.2929 13.2929L12 15.5858L9.70711 13.2929Z" fill="#273142"/>
</svg>
