<svg width="24" height="24" viewBox="0 0 24 24" fill="none" xmlns="http://www.w3.org/2000/svg">
<path fill-rule="evenodd" clip-rule="evenodd" d="M9.88236 0.287002C10.5523 0.774259 10.7005 1.71238 10.2132 2.38236L8.30941 5.00009H15.6908L13.787 2.38236C13.2997 1.71238 13.4479 0.774259 14.1178 0.287002C14.7878 -0.200256 15.726 -0.0521306 16.2132 0.617848L19.4003 5.00009H22.5C23.3284 5.00009 24 5.67166 24 6.50009V8.50009C24 9.32852 23.3284 10.0001 22.5 10.0001H1.5C0.671573 10.0001 0 9.32852 0 8.50009V6.50009C0 5.67166 0.671573 5.00009 1.5 5.00009H4.59992L7.787 0.617848C8.27426 -0.0521306 9.21239 -0.200256 9.88236 0.287002ZM1 11.0001H23L21.0154 21.5545C20.7487 22.9727 19.5101 24.0001 18.0671 24.0001H5.93292C4.48986 24.0001 3.25126 22.9727 2.98459 21.5545L1 11.0001ZM16.7506 13.2548C17.0789 13.5988 17.0837 14.1616 16.7612 14.5118L11.032 20.7341C10.8754 20.9042 10.6611 21.0001 10.4375 21.0001C10.2139 21.0001 9.99965 20.9042 9.84296 20.7341L7.23879 17.9058C6.9163 17.5555 6.92105 16.9927 7.24941 16.6487C7.57777 16.3048 8.10538 16.3098 8.42787 16.6601L10.4375 18.8426L15.5721 13.2661C15.8946 12.9159 16.4222 12.9108 16.7506 13.2548Z" fill="#273142"/>
</svg>
