<svg width="24" height="24" viewBox="0 0 24 24" fill="none" xmlns="http://www.w3.org/2000/svg">
<path fill-rule="evenodd" clip-rule="evenodd" d="M16.2132 0.617848C15.726 -0.0521306 14.7878 -0.200256 14.1178 0.287002C13.4479 0.774259 13.2997 1.71238 13.787 2.38236L15.6908 5.00009H8.30941L10.2132 2.38236C10.7005 1.71238 10.5523 0.774259 9.88236 0.287002C9.21239 -0.200256 8.27426 -0.0521306 7.787 0.617848L4.59992 5.00009H1.5C0.671573 5.00009 0 5.67166 0 6.50009V8.50009C0 9.32852 0.671573 10.0001 1.5 10.0001H22.5C23.3284 10.0001 24 9.32852 24 8.50009V6.50009C24 5.67166 23.3284 5.00009 22.5 5.00009H19.4003L16.2132 0.617848ZM23 11.0001H1L2.98459 21.5545C3.25126 22.9727 4.48986 24.0001 5.93292 24.0001H18.0671C19.5101 24.0001 20.7487 22.9727 21.0154 21.5545L23 11.0001ZM11.7071 14.7072C12.0976 14.3167 12.0976 13.6835 11.7071 13.293C11.3166 12.9025 10.6834 12.9025 10.2929 13.293L7.29289 16.293C6.90237 16.6835 6.90237 17.3167 7.29289 17.7072L10.2929 20.7072C10.6834 21.0977 11.3166 21.0977 11.7071 20.7072C12.0976 20.3167 12.0976 19.6835 11.7071 19.293L10.4142 18.0001H16C16.5523 18.0001 17 17.5524 17 17.0001C17 16.4478 16.5523 16.0001 16 16.0001H10.4142L11.7071 14.7072Z" fill="#273142"/>
</svg>
