<svg width="24" height="24" viewBox="0 0 24 24" fill="none" xmlns="http://www.w3.org/2000/svg">
<mask id="path-1-inside-1_2508_18334" fill="white">
<path d="M0 6.49998C0 5.67156 0.671573 4.99998 1.5 4.99998H22.5C23.3284 4.99998 24 5.67156 24 6.49998V8.49998C24 9.32841 23.3284 9.99998 22.5 9.99998H1.5C0.671573 9.99998 0 9.32841 0 8.49998V6.49998Z"/>
<path fill-rule="evenodd" clip-rule="evenodd" d="M14.1178 0.28688C14.7878 -0.200378 15.7259 -0.0522527 16.2132 0.617726L20.2132 6.11773C20.7005 6.7877 20.5523 7.72583 19.8824 8.21309C19.2124 8.70035 18.2743 8.55222 17.787 7.88224L13.787 2.38224C13.2997 1.71226 13.4479 0.774137 14.1178 0.28688Z"/>
<path fill-rule="evenodd" clip-rule="evenodd" d="M9.88221 0.28688C10.5522 0.774137 10.7003 1.71226 10.2131 2.38224L6.21306 7.88224C5.7258 8.55222 4.78767 8.70035 4.11769 8.21309C3.44772 7.72583 3.29959 6.7877 3.78685 6.11773L7.78685 0.617726C8.2741 -0.0522527 9.21223 -0.200378 9.88221 0.28688Z"/>
<path fill-rule="evenodd" clip-rule="evenodd" d="M23 11H1L2.98459 21.5544C3.25126 22.9726 4.48986 24 5.93292 24H18.0671C19.5101 24 20.7487 22.9726 21.0154 21.5544L23 11ZM13 15C13 14.4477 12.5523 14 12 14C11.4477 14 11 14.4477 11 15V20C11 20.5523 11.4477 21 12 21C12.5523 21 13 20.5523 13 20V15ZM16 14C16.5523 14 17 14.4477 17 15V20C17 20.5523 16.5523 21 16 21C15.4477 21 15 20.5523 15 20V15C15 14.4477 15.4477 14 16 14ZM9 15C9 14.4477 8.55228 14 8 14C7.44772 14 7 14.4477 7 15V20C7 20.5523 7.44772 21 8 21C8.55228 21 9 20.5523 9 20V15Z"/>
</mask>
<path d="M0 6.49998C0 5.67156 0.671573 4.99998 1.5 4.99998H22.5C23.3284 4.99998 24 5.67156 24 6.49998V8.49998C24 9.32841 23.3284 9.99998 22.5 9.99998H1.5C0.671573 9.99998 0 9.32841 0 8.49998V6.49998Z" fill="#273142"/>
<path fill-rule="evenodd" clip-rule="evenodd" d="M14.1178 0.28688C14.7878 -0.200378 15.7259 -0.0522527 16.2132 0.617726L20.2132 6.11773C20.7005 6.7877 20.5523 7.72583 19.8824 8.21309C19.2124 8.70035 18.2743 8.55222 17.787 7.88224L13.787 2.38224C13.2997 1.71226 13.4479 0.774137 14.1178 0.28688Z" fill="#273142"/>
<path fill-rule="evenodd" clip-rule="evenodd" d="M9.88221 0.28688C10.5522 0.774137 10.7003 1.71226 10.2131 2.38224L6.21306 7.88224C5.7258 8.55222 4.78767 8.70035 4.11769 8.21309C3.44772 7.72583 3.29959 6.7877 3.78685 6.11773L7.78685 0.617726C8.2741 -0.0522527 9.21223 -0.200378 9.88221 0.28688Z" fill="#273142"/>
<path fill-rule="evenodd" clip-rule="evenodd" d="M23 11H1L2.98459 21.5544C3.25126 22.9726 4.48986 24 5.93292 24H18.0671C19.5101 24 20.7487 22.9726 21.0154 21.5544L23 11ZM13 15C13 14.4477 12.5523 14 12 14C11.4477 14 11 14.4477 11 15V20C11 20.5523 11.4477 21 12 21C12.5523 21 13 20.5523 13 20V15ZM16 14C16.5523 14 17 14.4477 17 15V20C17 20.5523 16.5523 21 16 21C15.4477 21 15 20.5523 15 20V15C15 14.4477 15.4477 14 16 14ZM9 15C9 14.4477 8.55228 14 8 14C7.44772 14 7 14.4477 7 15V20C7 20.5523 7.44772 21 8 21C8.55228 21 9 20.5523 9 20V15Z" fill="#273142"/>
<path d="M16.2132 0.617726L15.4045 1.2059L16.2132 0.617726ZM14.1178 0.28688L14.706 1.09562V1.09562L14.1178 0.28688ZM20.2132 6.11773L19.4045 6.7059V6.7059L20.2132 6.11773ZM19.8824 8.21309L19.2942 7.40435V7.40435L19.8824 8.21309ZM17.787 7.88224L18.5957 7.29407L17.787 7.88224ZM13.787 2.38224L14.5957 1.79407L13.787 2.38224ZM10.2131 2.38224L9.40432 1.79407V1.79407L10.2131 2.38224ZM9.88221 0.28688L9.29404 1.09562V1.09562L9.88221 0.28688ZM6.21306 7.88224L5.40432 7.29407H5.40432L6.21306 7.88224ZM4.11769 8.21309L4.70587 7.40435L4.11769 8.21309ZM3.78685 6.11773L4.59558 6.7059L4.59558 6.7059L3.78685 6.11773ZM7.78685 0.617726L8.59558 1.2059V1.2059L7.78685 0.617726ZM1 11V9.99998H-0.205559L0.017223 11.1848L1 11ZM23 11L23.9828 11.1848L24.2056 9.99998H23V11ZM2.98459 21.5544L3.96736 21.3696L2.98459 21.5544ZM21.0154 21.5544L21.9982 21.7392L21.0154 21.5544ZM1.5 5.99998H22.5V3.99998H1.5V5.99998ZM23 6.49998V8.49998H25V6.49998H23ZM22.5 8.99998H1.5V11H22.5V8.99998ZM1 8.49998V6.49998H-1V8.49998H1ZM1.5 8.99998C1.22386 8.99998 1 8.77613 1 8.49998H-1C-1 9.8807 0.119288 11 1.5 11V8.99998ZM23 8.49998C23 8.77613 22.7761 8.99998 22.5 8.99998V11C23.8807 11 25 9.8807 25 8.49998H23ZM22.5 5.99998C22.7761 5.99998 23 6.22384 23 6.49998H25C25 5.11927 23.8807 3.99998 22.5 3.99998V5.99998ZM1.5 3.99998C0.119288 3.99998 -1 5.11927 -1 6.49998H1C1 6.22384 1.22386 5.99998 1.5 5.99998V3.99998ZM17.0219 0.0295545C16.2098 -1.08708 14.6463 -1.33395 13.5297 -0.521856L14.706 1.09562C14.9293 0.933197 15.242 0.982572 15.4045 1.2059L17.0219 0.0295545ZM21.0219 5.52955L17.0219 0.0295545L15.4045 1.2059L19.4045 6.7059L21.0219 5.52955ZM20.4705 9.02182C21.5872 8.20973 21.834 6.64619 21.0219 5.52955L19.4045 6.7059C19.5669 6.92922 19.5175 7.24193 19.2942 7.40435L20.4705 9.02182ZM16.9783 8.47041C17.7904 9.58704 19.3539 9.83392 20.4705 9.02182L19.2942 7.40435C19.0709 7.56677 18.7581 7.5174 18.5957 7.29407L16.9783 8.47041ZM12.9783 2.97041L16.9783 8.47041L18.5957 7.29407L14.5957 1.79407L12.9783 2.97041ZM13.5297 -0.521856C12.413 0.290239 12.1662 1.85378 12.9783 2.97041L14.5957 1.79407C14.4333 1.57074 14.4827 1.25803 14.706 1.09562L13.5297 -0.521856ZM11.0218 2.97041C11.8339 1.85378 11.587 0.290239 10.4704 -0.521857L9.29404 1.09562C9.51736 1.25803 9.56674 1.57074 9.40432 1.79407L11.0218 2.97041ZM7.02179 8.47041L11.0218 2.97041L9.40432 1.79407L5.40432 7.29407L7.02179 8.47041ZM3.52952 9.02182C4.64615 9.83392 6.2097 9.58704 7.02179 8.47041L5.40432 7.29407C5.2419 7.5174 4.92919 7.56677 4.70587 7.40435L3.52952 9.02182ZM2.97811 5.52955C2.16602 6.64619 2.41289 8.20973 3.52952 9.02182L4.70587 7.40435C4.48254 7.24193 4.43316 6.92922 4.59558 6.7059L2.97811 5.52955ZM6.97811 0.0295545L2.97811 5.52955L4.59558 6.7059L8.59558 1.2059L6.97811 0.0295545ZM10.4704 -0.521856C9.35375 -1.33395 7.79021 -1.08708 6.97811 0.0295546L8.59558 1.2059C8.758 0.982572 9.07071 0.933197 9.29404 1.09562L10.4704 -0.521856ZM1 12H23V9.99998H1V12ZM3.96736 21.3696L1.98278 10.8152L0.017223 11.1848L2.00181 21.7392L3.96736 21.3696ZM5.93292 23C4.97088 23 4.14514 22.315 3.96736 21.3696L2.00181 21.7392C2.35737 23.6301 4.00884 25 5.93292 25V23ZM18.0671 23H5.93292V25H18.0671V23ZM20.0326 21.3696C19.8549 22.315 19.0291 23 18.0671 23V25C19.9912 25 21.6426 23.6301 21.9982 21.7392L20.0326 21.3696ZM22.0172 10.8152L20.0326 21.3696L21.9982 21.7392L23.9828 11.1848L22.0172 10.8152ZM12 15H14C14 13.8954 13.1046 13 12 13V15ZM12 15V13C10.8954 13 10 13.8954 10 15H12ZM12 20V15H10V20H12ZM12 20H10C10 21.1046 10.8954 22 12 22V20ZM12 20V22C13.1046 22 14 21.1046 14 20H12ZM12 15V20H14V15H12ZM18 15C18 13.8954 17.1046 13 16 13V15H18ZM18 20V15H16V20H18ZM16 22C17.1046 22 18 21.1046 18 20H16V22ZM14 20C14 21.1046 14.8954 22 16 22V20H14ZM14 15V20H16V15H14ZM16 13C14.8954 13 14 13.8954 14 15H16V13ZM8 15H10C10 13.8954 9.10457 13 8 13V15ZM8 15V13C6.89543 13 6 13.8954 6 15H8ZM8 20V15H6V20H8ZM8 20H6C6 21.1046 6.89543 22 8 22V20ZM8 20V22C9.10457 22 10 21.1046 10 20H8ZM8 15V20H10V15H8Z" fill="#273142" mask="url(#path-1-inside-1_2508_18334)"/>
</svg>
