<svg width="24" height="24" viewBox="0 0 24 24" fill="none" xmlns="http://www.w3.org/2000/svg">
<path fill-rule="evenodd" clip-rule="evenodd" d="M2 0C1.44775 0 1 0.447723 1 1V3C1 3.55228 1.44775 4 2 4H22C22.5522 4 23 3.55228 23 3V1C23 0.447723 22.5522 0 22 0H2ZM10 6H2.8335L1.52393 10.2858C1.17676 11.4223 1 12.6041 1 13.7924V22C1 23.1046 1.89551 24 3 24H11.3427C9.30367 22.35 8 19.8273 8 17C8 12.0294 12.0294 8 17 8C18.9842 8 20.8184 8.64209 22.3062 9.72982L21.1665 6H14V7.5C14 7.8717 13.6089 8.11343 13.2764 7.9472L12.2236 7.42084C12.1812 7.39951 12.1362 7.38464 12.0903 7.37625C11.9849 7.3569 11.8745 7.37177 11.7764 7.42084L10.7236 7.9472C10.3911 8.11343 10 7.8717 10 7.5V6ZM17 24C20.866 24 24 20.866 24 17C24 13.134 20.866 10 17 10C13.134 10 10 13.134 10 17C10 20.866 13.134 24 17 24ZM14.7922 13.6641C14.7664 13.293 14.4571 13 14.0795 13C13.6849 13 13.3651 13.3199 13.3651 13.7144V15.3116C13.3651 15.6636 13.6214 15.9631 13.9692 16.0175L15.4295 16.2456C15.8193 16.3065 16.1847 16.0399 16.2456 15.65C16.3065 15.2602 16.0399 14.8948 15.65 14.8339L15.6212 14.8294C16.0195 14.5756 16.492 14.4289 17 14.4289C18.42 14.4289 19.5711 15.58 19.5711 17C19.5711 18.42 18.42 19.5711 17 19.5711C15.58 19.5711 14.4289 18.42 14.4289 17C14.4289 16.6054 14.109 16.2856 13.7144 16.2856C13.3199 16.2856 13 16.6054 13 17C13 19.2091 14.7909 21 17 21C19.2091 21 21 19.2091 21 17C21 14.7909 19.2091 13 17 13C16.1846 13 15.4249 13.2446 14.7922 13.6641Z" fill="#273142"/>
</svg>
