<svg width="24" height="24" viewBox="0 0 24 24" fill="none" xmlns="http://www.w3.org/2000/svg">
<path d="M2 0C1.44775 0 1 0.447723 1 1V3C1 3.55228 1.44775 4 2 4H22C22.5522 4 23 3.55228 23 3V1C23 0.447723 22.5522 0 22 0H2Z" fill="#273142"/>
<path d="M10 6H2.8335L1.52393 10.2858C1.17676 11.4223 1 12.6041 1 13.7924V22C1 23.1046 1.89551 24 3 24H11.3427C9.30367 22.35 8 19.8273 8 17C8 12.0294 12.0294 8 17 8C18.9842 8 20.8184 8.64209 22.3062 9.72982L21.1665 6H14V7.5C14 7.8717 13.6089 8.11343 13.2764 7.9472L12.2236 7.42084C12.1812 7.39951 12.1362 7.38464 12.0903 7.37625C11.9849 7.3569 11.8745 7.37177 11.7764 7.42084L10.7236 7.9472C10.3911 8.11343 10 7.8717 10 7.5V6Z" fill="#273142"/>
<path fill-rule="evenodd" clip-rule="evenodd" d="M24 17C24 20.866 20.866 24 17 24C13.134 24 10 20.866 10 17C10 13.134 13.134 10 17 10C20.866 10 24 13.134 24 17ZM13.8285 13.8284C14.2664 13.3905 14.9764 13.3905 15.4143 13.8284L17 15.4142L18.5857 13.8284C19.0236 13.3905 19.7336 13.3905 20.1715 13.8284C20.6094 14.2663 20.6094 14.9763 20.1715 15.4142L18.5858 16.9999L20.1716 18.5858C20.6095 19.0237 20.6095 19.7337 20.1716 20.1716C19.7337 20.6095 19.0237 20.6095 18.5858 20.1716L17 18.5857L15.4142 20.1716C14.9763 20.6095 14.2663 20.6095 13.8284 20.1716C13.3905 19.7337 13.3905 19.0237 13.8284 18.5858L15.4142 16.9999L13.8285 15.4142C13.3906 14.9763 13.3906 14.2663 13.8285 13.8284Z" fill="#273142"/>
</svg>
