<svg width="16" height="16" viewBox="0 0 16 16" fill="none" xmlns="http://www.w3.org/2000/svg">
<path d="M12 0.2C12 0.089543 11.9105 0 11.8 0H8.86667C8.75621 0 8.66667 0.089543 8.66667 0.2V3.04815C8.66667 3.1504 8.7439 3.23583 8.84521 3.24961C9.89491 3.3924 10.8574 3.79727 11.6592 4.39341C11.7966 4.49557 12 4.40092 12 4.22971V0.2Z" fill="#273142"/>
<path d="M4 0.2C4 0.089543 4.08954 0 4.2 0H7.13333C7.24379 0 7.33333 0.089543 7.33333 0.2V3.04815C7.33333 3.1504 7.2561 3.23583 7.15479 3.24961C6.10509 3.3924 5.14265 3.79727 4.34085 4.39341C4.20345 4.49557 4 4.40092 4 4.22971V0.2Z" fill="#273142"/>
<path fill-rule="evenodd" clip-rule="evenodd" d="M8 16C11.3137 16 14 13.3137 14 10C14 6.68629 11.3137 4 8 4C4.68629 4 2 6.68629 2 10C2 13.3137 4.68629 16 8 16ZM8.94885 8.44816L8.24864 6.64154C8.16064 6.41447 7.83936 6.41447 7.75136 6.64154L7.05115 8.44816C7.01331 8.54578 6.92186 8.61223 6.81732 8.61804L4.88275 8.7257C4.6396 8.73923 4.54032 9.04479 4.72908 9.19865L6.2309 10.4229C6.31205 10.489 6.34699 10.5965 6.32022 10.6977L5.82479 12.5709C5.76252 12.8063 6.02244 12.9952 6.2271 12.8632L7.85549 11.8132C7.94348 11.7564 8.05652 11.7564 8.14451 11.8132L9.7729 12.8632C9.97756 12.9952 10.2375 12.8063 10.1752 12.5709L9.67978 10.6977C9.65301 10.5965 9.68795 10.489 9.7691 10.4229L11.2709 9.19865C11.4597 9.04479 11.3604 8.73923 11.1173 8.7257L9.18268 8.61805C9.07814 8.61223 8.98669 8.54578 8.94885 8.44816Z" fill="#273142"/>
</svg>
