<svg width="24" height="24" viewBox="0 0 24 24" fill="none" xmlns="http://www.w3.org/2000/svg">
<path fill-rule="evenodd" clip-rule="evenodd" d="M4.8 0C2.14903 0 0 2.14903 0 4.8V19.2C0 21.851 2.14903 24 4.8 24H19.2C21.851 24 24 21.851 24 19.2V4.8C24 2.14903 21.851 0 19.2 0H4.8ZM6 4.8C5.33726 4.8 4.8 5.33726 4.8 6C4.8 6.66274 5.33726 7.2 6 7.2H18C18.6627 7.2 19.2 6.66274 19.2 6C19.2 5.33726 18.6627 4.8 18 4.8H6ZM4.8 12C4.8 11.3373 5.33726 10.8 6 10.8H18C18.6627 10.8 19.2 11.3373 19.2 12C19.2 12.6627 18.6627 13.2 18 13.2H6C5.33726 13.2 4.8 12.6627 4.8 12ZM6 16.8C5.33726 16.8 4.8 17.3373 4.8 18C4.8 18.6627 5.33726 19.2 6 19.2H18C18.6627 19.2 19.2 18.6627 19.2 18C19.2 17.3373 18.6627 16.8 18 16.8H6Z" fill="#273142"/>
</svg>
