<svg width="24" height="24" viewBox="0 0 24 24" fill="none" xmlns="http://www.w3.org/2000/svg">
<g clip-path="url(#clip0_1407_15968)">
<path d="M12 24C18.6274 24 24 18.6274 24 12C24 5.37258 18.6274 0 12 0C5.37258 0 0 5.37258 0 12C0 18.6274 5.37258 24 12 24Z" fill="#F0F0F0"/>
<path d="M7.82617 12V23.2536C9.12611 23.736 10.5322 24 12.0001 24C18.6274 24 24.0001 18.6274 24.0001 12C24.0001 5.37263 7.82617 12 7.82617 12Z" fill="#6DA544"/>
<path d="M12.0001 0C10.5322 0 9.12611 0.264047 7.82617 0.746391V12H24.0001C24.0001 5.37262 18.6274 0 12.0001 0Z" fill="#D80027"/>
</g>
<defs>
<clipPath id="clip0_1407_15968">
<rect width="24" height="24" fill="white"/>
</clipPath>
</defs>
</svg>
