<svg width="24" height="24" viewBox="0 0 24 24" fill="none" xmlns="http://www.w3.org/2000/svg">
<g clip-path="url(#clip0_1407_16009)">
<path d="M23.2536 16.1739C23.736 14.874 24 13.4678 24 12C24 10.5322 23.736 9.12605 23.2536 7.82611L12 6.78262L0.746391 7.82611C0.264047 9.12605 0 10.5322 0 12C0 13.4678 0.264047 14.874 0.746391 16.1739L12 17.2174L23.2536 16.1739Z" fill="#6DA544"/>
<path d="M23.2536 7.82611C21.558 3.2565 17.1595 0 11.9999 0C6.84037 0 2.44185 3.2565 0.746338 7.82611H23.2536Z" fill="#FFDA44"/>
<path d="M11.9999 24C17.1595 24 21.558 20.7435 23.2536 16.1739H0.746338C2.44185 20.7435 6.84037 24 11.9999 24Z" fill="#D80027"/>
<path d="M20.229 10.1525H13.9427L12.0001 4.17389L10.0575 10.1525H3.77124L8.85694 13.8474L6.91435 19.8261L12.0001 16.1739L17.0858 19.8261L15.1433 13.8474L20.229 10.1525Z" fill="#F0F0F0"/>
</g>
<defs>
<clipPath id="clip0_1407_16009">
<rect width="24" height="24" fill="white"/>
</clipPath>
</defs>
</svg>
