<svg width="24" height="24" viewBox="0 0 24 24" fill="none" xmlns="http://www.w3.org/2000/svg">
<g clip-path="url(#clip0_1407_16004)">
<path d="M12 24C13.4678 24 14.8739 23.736 16.1739 23.2536L16.6956 12L16.1739 0.746391C14.8739 0.264047 13.4678 0 12 0C10.5321 0 9.12602 0.264047 7.82609 0.746391L7.30432 12L7.82604 23.2536C9.12602 23.736 10.5321 24 12 24Z" fill="#0052B4"/>
<path d="M0 12C0 17.1596 3.2565 21.5581 7.82611 23.2536V0.746399C3.2565 2.44191 0 6.84043 0 12Z" fill="#A2001D"/>
<path d="M16.174 0.746399V23.2537C20.7436 21.5581 24.0001 17.1596 24.0001 12C24.0001 6.84043 20.7436 2.44191 16.174 0.746399Z" fill="#A2001D"/>
<path d="M5.73914 12H6.78262V16.1739H5.73914V12Z" fill="#FFDA44"/>
<path d="M1.56519 12H2.60867V16.1739H1.56519V12Z" fill="#FFDA44"/>
<path d="M4.17386 14.6087C4.75016 14.6087 5.21734 14.1415 5.21734 13.5652C5.21734 12.9889 4.75016 12.5217 4.17386 12.5217C3.59756 12.5217 3.13037 12.9889 3.13037 13.5652C3.13037 14.1415 3.59756 14.6087 4.17386 14.6087Z" fill="#FFDA44"/>
<path d="M4.17382 10.4348C4.46196 10.4348 4.69554 10.2012 4.69554 9.91305C4.69554 9.62491 4.46196 9.39133 4.17382 9.39133C3.88568 9.39133 3.6521 9.62491 3.6521 9.91305C3.6521 10.2012 3.88568 10.4348 4.17382 10.4348Z" fill="#FFDA44"/>
<path d="M3.13049 15.1305H5.21746V16.1739H3.13049V15.1305Z" fill="#FFDA44"/>
<path d="M3.13049 10.9565H5.21746V12H3.13049V10.9565Z" fill="#FFDA44"/>
<path d="M4.17385 6.26086L4.54341 7.39805H5.7391L4.77183 8.1009L5.14111 9.23808L4.17385 8.53524L3.20663 9.23808L3.57591 8.1009L2.60864 7.39805H3.80433L4.17385 6.26086Z" fill="#FFDA44"/>
</g>
<defs>
<clipPath id="clip0_1407_16004">
<rect width="24" height="24" fill="white"/>
</clipPath>
</defs>
</svg>
