<svg width="24" height="24" viewBox="0 0 24 24" fill="none" xmlns="http://www.w3.org/2000/svg">
<g clip-path="url(#clip0_1407_15967)">
<path d="M12 24C18.6274 24 24 18.6274 24 12C24 5.37258 18.6274 0 12 0C5.37258 0 0 5.37258 0 12C0 18.6274 5.37258 24 12 24Z" fill="#496E2D"/>
<path d="M14.087 11.4996C13.7924 11.4996 13.5128 11.5583 13.2531 11.6518C13.3953 11.3348 13.4907 10.982 13.4907 10.6052C13.4907 9.11457 12.0001 7.99655 12.0001 7.99655C12.0001 7.99655 10.5094 9.11457 10.5094 10.6052C10.5094 10.9819 10.6048 11.3348 10.747 11.6518C10.4873 11.5584 10.2076 11.4996 9.91313 11.4996C8.42246 11.4996 7.30444 12.9903 7.30444 12.9903C7.30444 12.9903 8.42246 14.481 9.91313 14.481C10.7871 14.481 11.5325 13.9688 12.0001 13.5447C12.4677 13.9687 13.2131 14.481 14.0871 14.481C15.5777 14.481 16.6958 12.9903 16.6958 12.9903C16.6958 12.9903 15.5776 11.4996 14.087 11.4996Z" fill="#F0F0F0"/>
<path d="M12.0001 4.69566L12.3081 5.64329H13.3045L12.4985 6.22904L12.8062 7.17666L12.0001 6.59091L11.1941 7.17666L11.5018 6.22904L10.6958 5.64329H11.6922L12.0001 4.69566Z" fill="#FFDA44"/>
<path d="M8.2111 6.35312L8.80351 6.88646L9.49384 6.48793L9.16965 7.21613L9.76201 7.74957L8.96926 7.66623L8.64507 8.39443L8.47923 7.61476L7.68652 7.53142L8.3768 7.13279L8.2111 6.35312Z" fill="#FFDA44"/>
<path d="M5.43726 9.1269L6.21697 9.29261L6.61555 8.60228L6.6989 9.39498L7.47852 9.56083L6.75037 9.88506L6.83371 10.6777L6.30022 10.0855L5.57207 10.4096L5.97065 9.71926L5.43726 9.1269Z" fill="#FFDA44"/>
<path d="M15.7891 6.35312L15.1968 6.88646L14.5065 6.48793L14.8306 7.21613L14.2383 7.74957L15.031 7.66623L15.3552 8.39443L15.5211 7.61476L16.3138 7.53142L15.6235 7.13279L15.7891 6.35312Z" fill="#FFDA44"/>
<path d="M18.5627 9.1269L17.783 9.29261L17.3845 8.60228L17.3011 9.39498L16.5215 9.56083L17.2496 9.88506L17.1663 10.6777L17.6998 10.0855L18.4279 10.4096L18.0294 9.71926L18.5627 9.1269Z" fill="#FFDA44"/>
<path d="M12.0002 18.6549C13.1843 18.6549 14.2757 18.2599 15.1512 17.5952H8.84912C9.72465 18.2598 10.816 18.6549 12.0002 18.6549Z" fill="#F0F0F0"/>
<path d="M7.21729 15.5245C7.38289 15.9035 7.59289 16.2585 7.83955 16.5843H16.1607C16.4074 16.2586 16.6174 15.9035 16.783 15.5245H7.21729Z" fill="#F0F0F0"/>
</g>
<defs>
<clipPath id="clip0_1407_15967">
<rect width="24" height="24" fill="white"/>
</clipPath>
</defs>
</svg>
