<svg width="24" height="24" viewBox="0 0 24 24" fill="none" xmlns="http://www.w3.org/2000/svg">
  <path fill-rule="evenodd" clip-rule="evenodd" d="M1.21341 1.25H18.7866C19.1086 1.2507 19.4173 1.38586 19.6448 1.62584C19.8722 1.86582 20 2.191 20 2.53003V12.4726C20 12.8114 19.8722 13.1363 19.6446 13.3759C19.417 13.6154 19.1084 13.75 18.7866 13.75H1.21341C0.891795 13.7493 0.583544 13.6145 0.356129 13.3751C0.128713 13.1357 0.000661078 12.8112 0 12.4726V2.53003C0 2.191 0.12776 1.86582 0.355247 1.62584C0.582734 1.38586 0.891362 1.2507 1.21341 1.25ZM5 7.5C5 8.19036 4.44036 8.75 3.75 8.75C3.05964 8.75 2.5 8.19036 2.5 7.5C2.5 6.80964 3.05964 6.25 3.75 6.25C4.44036 6.25 5 6.80964 5 7.5ZM16.25 8.75C16.9404 8.75 17.5 8.19036 17.5 7.5C17.5 6.80964 16.9404 6.25 16.25 6.25C15.5596 6.25 15 6.80964 15 7.5C15 8.19036 15.5596 8.75 16.25 8.75ZM10 4.375C8.27411 4.375 6.875 5.77411 6.875 7.5C6.875 9.22589 8.27411 10.625 10 10.625C11.7259 10.625 13.125 9.22589 13.125 7.5C13.125 5.77411 11.7259 4.375 10 4.375Z" fill="#273142"/>
  <path fill-rule="evenodd" clip-rule="evenodd" d="M1.51733 15L16.1126 18.7147C16.4066 18.7895 16.7214 18.7445 16.9879 18.5895C17.2544 18.4346 17.4507 18.1824 17.5336 17.8885L18.3484 15H16.4003L15.9125 16.729L9.11927 15H1.51733Z" fill="#273142"/>
  </svg>
  