<svg width="24" height="24" viewBox="0 0 24 24" fill="none" xmlns="http://www.w3.org/2000/svg">
<path fill-rule="evenodd" clip-rule="evenodd" d="M17.9999 1C21.3136 1 23.9999 3.68629 23.9999 7C23.9999 10.3137 21.3136 13 17.9999 13C14.6862 13 11.9999 10.3137 11.9999 7C11.9999 3.68629 14.6862 1 17.9999 1ZM20.7045 5.04543C20.9555 5.29648 20.9555 5.70352 20.7045 5.95457L17.7045 8.95457C17.4534 9.20562 17.0464 9.20562 16.7954 8.95457L15.2954 7.45457C15.0443 7.20352 15.0443 6.79648 15.2954 6.54543C15.5464 6.29438 15.9534 6.29438 16.2045 6.54543L17.2499 7.59086L19.7954 5.04543C20.0464 4.79438 20.4534 4.79438 20.7045 5.04543ZM8.99994 6C9.54984 6 9.99652 6.4436 9.99992 6.99368L9.99992 7L9.99992 7.00632C9.99652 7.5564 9.54984 8 8.99994 8H7.85694L6.15794 14.409C6.31394 14.47 6.46894 14.537 6.62094 14.611C7.82394 15.199 8.79994 16.175 9.38994 17.382C9.48794 17.582 9.57394 17.788 9.64994 18H11.9999V14C11.9999 13.5183 12.3141 13.117 12.7328 13.0216C14.14 14.2534 15.9828 15 17.9999 15C19.1376 15 20.2198 14.7625 21.1996 14.3345C21.4126 14.6792 21.5622 15.076 21.6289 15.507L21.9879 18.836C22.0809 19.445 21.6459 20 21.0749 20H7.99994C7.99994 17.794 6.20594 16 3.99994 16C3.12694 16 2.29594 16.276 1.59994 16.8C1.15894 17.131 0.530938 17.042 0.199938 16.6C-0.131062 16.159 -0.0420622 15.532 0.398938 15.2C0.929938 14.802 1.51194 14.499 2.12694 14.297C2.41194 13.54 3.14394 13 3.99994 13H4.49994L4.99994 11H4.49994C3.67094 11 2.99994 10.328 2.99994 9.5C2.99994 8.672 3.67094 8 4.49994 8H5.74994L5.99994 7C5.99994 6.486 6.38694 6.064 6.88394 6.007L6.99994 6H8.99994ZM16.9999 23C18.3909 23 19.5609 22.162 19.9999 21H13.9999C14.4399 22.162 15.6099 23 16.9999 23ZM3.99992 17C5.65692 17 6.99992 18.344 6.99992 20C6.99992 21.656 5.65692 23 3.99992 23C2.34292 23 0.99992 21.656 0.99992 20C0.99992 18.344 2.34292 17 3.99992 17Z" fill="#273142"/>
</svg>
