<svg width="24" height="24" viewBox="0 0 24 24" fill="none" xmlns="http://www.w3.org/2000/svg">
<g clip-path="url(#clip0_1407_15986)">
<path d="M12 24C18.6274 24 24 18.6274 24 12C24 5.37258 18.6274 0 12 0C5.37258 0 0 5.37258 0 12C0 18.6274 5.37258 24 12 24Z" fill="#F0F0F0"/>
<path d="M23.8971 10.4348C23.5661 7.90416 22.4294 5.45888 20.4852 3.51474C18.5411 1.5706 16.0958 0.43383 13.5652 0.102798L13.5652 10.4348H23.8971Z" fill="#0052B4"/>
<path d="M10.4347 0.102798C7.90414 0.43383 5.45881 1.57055 3.51467 3.51469C1.57058 5.45888 0.433814 7.90421 0.102783 10.4348L10.4348 10.4348L10.4347 0.102798Z" fill="#0052B4"/>
<path d="M0.102783 13.5652C0.433814 16.0958 1.57058 18.5412 3.51467 20.4853C5.45881 22.4294 7.9041 23.5661 10.4348 23.8973L10.4347 13.5653L0.102783 13.5652Z" fill="#0052B4"/>
<path d="M13.5652 23.8972C16.0958 23.5661 18.5411 22.4294 20.4852 20.4853C22.4293 18.5411 23.5661 16.0958 23.8971 13.5652H13.5652V23.8972Z" fill="#0052B4"/>
<path d="M16.0963 7.61428C16.0963 7.45472 16.226 7.32502 16.3856 7.32502H17.0055C17.9854 7.32502 18.7826 6.52786 18.7826 5.54803C18.7826 4.56821 17.9854 3.771 17.0055 3.771H16.4168C16.2247 3.62667 15.9669 3.53766 15.6826 3.53766C15.0895 3.53766 14.6087 3.92227 14.6087 4.39674C14.6087 4.86661 15.0803 5.2478 15.6655 5.25521L15.6652 5.25863H17.0055C17.1651 5.25863 17.2948 5.38838 17.2948 5.54794C17.2948 5.7075 17.1651 5.83721 17.0055 5.83721H16.3856C15.4058 5.83721 14.6086 6.63436 14.6086 7.61419C14.6086 8.59402 15.4057 9.39122 16.3856 9.39122H18.7825V7.9035H16.3856C16.226 7.90355 16.0963 7.77385 16.0963 7.61428Z" fill="#F0F0F0"/>
<path d="M6.70503 7.61428C6.70503 7.45472 6.83474 7.32502 6.99434 7.32502H7.61422C8.59409 7.32502 9.3913 6.52786 9.3913 5.54803C9.3913 4.56821 8.59414 3.771 7.61422 3.771H7.02556C6.83342 3.62667 6.57566 3.53766 6.29131 3.53766C5.6982 3.53766 5.21741 3.92227 5.21741 4.39674C5.21741 4.86661 5.68902 5.2478 6.2742 5.25521L6.27392 5.25863H7.61427C7.77388 5.25863 7.90358 5.38838 7.90358 5.54794C7.90358 5.7075 7.77388 5.83721 7.61427 5.83721H6.99439C6.01452 5.83721 5.21741 6.63436 5.21741 7.61419C5.21741 8.59402 6.01447 9.39122 6.99439 9.39122H9.39125V7.9035H6.99434C6.83474 7.90355 6.70503 7.77385 6.70503 7.61428Z" fill="#F0F0F0"/>
<path d="M16.0964 18.6853C16.0964 18.5258 16.2261 18.396 16.3857 18.396H17.0055C17.9854 18.396 18.7826 17.5989 18.7826 16.6191C18.7826 15.6392 17.9855 14.842 17.0055 14.842H16.4169C16.2248 14.6977 15.967 14.6087 15.6826 14.6087C15.0895 14.6087 14.6087 14.9933 14.6087 15.4678C14.6087 15.9376 15.0803 16.3188 15.6655 16.3262L15.6652 16.3297H17.0055C17.1651 16.3297 17.2948 16.4594 17.2948 16.619C17.2948 16.7785 17.1651 16.9082 17.0055 16.9082H16.3856C15.4058 16.9082 14.6086 17.7054 14.6086 18.6852C14.6086 19.665 15.4057 20.4623 16.3856 20.4623H18.7826V18.9746H16.3857C16.2261 18.9746 16.0964 18.8448 16.0964 18.6853Z" fill="#F0F0F0"/>
<path d="M6.70508 18.6853C6.70508 18.5258 6.83478 18.396 6.99439 18.396H7.61427C8.59414 18.396 9.39134 17.5989 9.39134 16.6191C9.39134 15.6392 8.59419 14.842 7.61427 14.842H7.02561C6.83347 14.6977 6.5757 14.6087 6.29136 14.6087C5.6982 14.6087 5.21741 14.9933 5.21741 15.4678C5.21741 15.9376 5.68902 16.3188 6.2742 16.3262L6.27392 16.3297H7.61427C7.77388 16.3297 7.90358 16.4594 7.90358 16.619C7.90358 16.7785 7.77388 16.9082 7.61427 16.9082H6.99439C6.01452 16.9082 5.21741 17.7054 5.21741 18.6852C5.21741 19.665 6.01447 20.4623 6.99439 20.4623H9.3913V18.9746H6.99439C6.83478 18.9746 6.70508 18.8448 6.70508 18.6853Z" fill="#F0F0F0"/>
</g>
<defs>
<clipPath id="clip0_1407_15986">
<rect width="24" height="24" fill="white"/>
</clipPath>
</defs>
</svg>
