<svg width="24" height="24" viewBox="0 0 24 24" fill="none" xmlns="http://www.w3.org/2000/svg">
<g clip-path="url(#clip0_1407_15987)">
<path d="M12 24C18.6274 24 24 18.6274 24 12C24 5.37258 18.6274 0 12 0C5.37258 0 0 5.37258 0 12C0 18.6274 5.37258 24 12 24Z" fill="#496E2D"/>
<path d="M12.0001 13.8633C10.002 13.8633 8.33275 12.459 7.9232 10.5838C7.8603 10.8721 7.82617 11.171 7.82617 11.4782C7.82617 13.7835 9.69484 15.6521 12.0001 15.6521C14.3053 15.6521 16.174 13.7834 16.174 11.4782C16.174 11.171 16.1398 10.8721 16.0769 10.5838C15.6674 12.4591 13.9982 13.8633 12.0001 13.8633Z" fill="#FFDA44"/>
<path d="M12 8.34782L12.3885 9.54356H13.6458L12.6287 10.2825L13.0172 11.4783L12 10.7392L10.9828 11.4783L11.3714 10.2825L10.3542 9.54356H11.6115L12 8.34782Z" fill="#FFDA44"/>
</g>
<defs>
<clipPath id="clip0_1407_15987">
<rect width="24" height="24" fill="white"/>
</clipPath>
</defs>
</svg>
