<svg width="24" height="24" viewBox="0 0 24 24" fill="none" xmlns="http://www.w3.org/2000/svg">
<g clip-path="url(#clip0_1407_16006)">
<path d="M24 12C24 18.6274 18.6274 24 12 24C5.37262 24 0 18.6274 0 12C0 12.0029 12 0.0013125 12 0C18.6274 0 24 5.37262 24 12Z" fill="#0052B4"/>
<path d="M11.9678 12H11.9999C11.9999 11.9892 11.9999 11.9787 11.9999 11.9679C11.9892 11.9786 11.9785 11.9893 11.9678 12Z" fill="#F0F0F0"/>
<path d="M12 6.26086C12 4.14937 12 2.76586 12 0H11.998C5.37145 0.001125 0 5.37323 0 12H6.26086V8.47448L9.78638 12H11.9679C11.9786 11.9893 11.9893 11.9786 12 11.9679C12 11.1594 12 10.4381 12 9.78647L8.47444 6.26086H12Z" fill="#F0F0F0"/>
<path d="M6.071 1.56522C4.19417 2.63392 2.63384 4.1942 1.56519 6.07103V12H4.69564V4.69576V4.69567H12C12 3.70834 12 2.76775 12 1.56522H6.071Z" fill="#D80027"/>
<path d="M12 10.5243L7.73649 6.26093H6.26086V6.26102L11.9999 12H12C12 12 12 10.9825 12 10.5243Z" fill="#D80027"/>
<path d="M13.5652 6.26086V12C13.5652 14.7956 17.2174 15.6522 17.2174 15.6522C17.2174 15.6522 20.8695 14.7956 20.8695 12V6.26086H13.5652Z" fill="#338AF3"/>
<path d="M13.5652 11.9999C13.5652 14.7956 17.2174 15.6522 17.2174 15.6522C17.2174 15.6522 20.8695 14.7956 20.8695 11.9999H13.5652Z" fill="#A2001D"/>
<path d="M18.7826 8.86964H17.739V7.82611H16.6955V8.86964H15.6521V9.91308H16.6955V13.0435H17.739V9.91308H18.7826V8.86964Z" fill="black"/>
</g>
<defs>
<clipPath id="clip0_1407_16006">
<rect width="24" height="24" fill="white"/>
</clipPath>
</defs>
</svg>
