<svg width="24" height="24" viewBox="0 0 24 24" fill="none" xmlns="http://www.w3.org/2000/svg">
<g clip-path="url(#clip0_1407_15988)">
<path d="M1.45898 6.26086L11.9999 7.30434L22.5408 6.26086C20.5056 2.53073 16.5484 0 11.9999 0C7.45139 0 3.49425 2.53073 1.45898 6.26086Z" fill="#D80027"/>
<path d="M1.45908 17.7391L12 18.7826L22.5409 17.7391C23.4711 16.0342 24 14.0789 24 12L12 10.9565L0 12C0 14.0789 0.528891 16.0342 1.45908 17.7391Z" fill="#FFDA44"/>
<path d="M1.45908 6.26086C0.528891 7.96575 0 9.9211 0 12H24C24 9.9211 23.4711 7.96575 22.5409 6.26086H12H1.45908Z" fill="#0052B4"/>
<path d="M11.9999 24C16.5484 24 20.5056 21.4693 22.5408 17.7391H1.45898C3.49425 21.4693 7.45139 24 11.9999 24Z" fill="#6DA544"/>
</g>
<defs>
<clipPath id="clip0_1407_15988">
<rect width="24" height="24" fill="white"/>
</clipPath>
</defs>
</svg>
