<svg width="24" height="24" viewBox="0 0 24 24" fill="none" xmlns="http://www.w3.org/2000/svg">
<g clip-path="url(#clip0_1407_15970)">
<path d="M0 12C0 13.4679 0.264047 14.8739 0.746391 16.1739L12 16.6957L23.2536 16.1739C23.736 14.8739 24 13.4679 24 12C24 10.5322 23.736 9.1261 23.2536 7.82612L12 7.30435L0.746391 7.82607C0.264047 9.1261 0 10.5322 0 12H0Z" fill="#D80027"/>
<path d="M11.9999 0C6.84037 0 2.44185 3.2565 0.746338 7.82611H23.2536C21.558 3.2565 17.1595 0 11.9999 0Z" fill="black"/>
<path d="M23.2536 16.1739H0.746338C2.44185 20.7435 6.84037 24 11.9999 24C17.1595 24 21.558 20.7435 23.2536 16.1739Z" fill="#496E2D"/>
<path d="M15.5866 5.73915L14.1211 5.0498L14.9015 3.63048L13.3101 3.93493L13.1085 2.32721L12 3.50963L10.8915 2.32721L10.6898 3.93493L9.09845 3.63048L9.87888 5.0498L8.41333 5.73915H15.5866Z" fill="#D80027"/>
</g>
<defs>
<clipPath id="clip0_1407_15970">
<rect width="24" height="24" fill="white"/>
</clipPath>
</defs>
</svg>
