<svg width="24" height="24" viewBox="0 0 24 24" fill="none" xmlns="http://www.w3.org/2000/svg">
<g clip-path="url(#clip0_1407_16008)">
<path d="M12 24C18.6274 24 24 18.6274 24 12C24 5.37258 18.6274 0 12 0C5.37258 0 0 5.37258 0 12C0 18.6274 5.37258 24 12 24Z" fill="#F0F0F0"/>
<path d="M6.48617 16.6956L3.51514 20.4849C5.68657 22.6566 8.68625 24 12 24C16.9608 24 21.2177 20.9893 23.0452 16.6956H6.48617Z" fill="#FFDA44"/>
<path d="M23.0639 7.3478C21.2466 3.03103 16.9776 0 12 0C8.68625 0 5.68657 1.34339 3.51514 3.51511L6.52029 7.3478H23.0639Z" fill="#496E2D"/>
<path d="M2.60864 8.82608V15.1304H23.5866C23.8558 14.1324 24 13.0831 24 12C24 10.9011 23.8519 9.83708 23.5752 8.82608H2.60864Z" fill="black"/>
<path d="M3.51471 3.51468C-1.17157 8.20096 -1.17157 15.799 3.51471 20.4853C5.45126 18.5488 7.31374 16.6863 12 12L3.51471 3.51468Z" fill="#A2001D"/>
<path d="M4.8567 8.86954L5.63365 11.2609H8.14831L6.11403 12.739L6.89094 15.1304L4.8567 13.6524L2.82237 15.1304L3.59947 12.739L1.56519 11.2609H4.07965L4.8567 8.86954Z" fill="#FFDA44"/>
<path d="M2.58325 12H7.13125V14.087H2.58325V12Z" fill="#F0F0F0"/>
<path d="M7.99228 9.60744L7.25442 8.86954L4.85686 11.2671L2.45929 8.86954L1.72144 9.60744L4.12111 12.0029L1.72144 14.4026L2.45929 15.1304L4.85686 12.7372L7.25442 15.1304L7.99228 14.4026L5.59261 12.0029L7.99228 9.60744Z" fill="black"/>
</g>
<defs>
<clipPath id="clip0_1407_16008">
<rect width="24" height="24" fill="white"/>
</clipPath>
</defs>
</svg>
