<svg width="24" height="24" viewBox="0 0 24 24" fill="none" xmlns="http://www.w3.org/2000/svg">
<g clip-path="url(#clip0_1407_16010)">
<path d="M12 24C18.6274 24 24 18.6274 24 12C24 5.37258 18.6274 0 12 0C5.37258 0 0 5.37258 0 12C0 18.6274 5.37258 24 12 24Z" fill="#F0F0F0"/>
<path d="M3.51475 20.4853C4.01814 20.9887 4.55524 21.4376 5.11863 21.8329L21.8328 5.11866C21.4376 4.55527 20.9887 4.01817 20.4852 3.51478C19.9818 3.01139 19.4448 2.56252 18.8814 2.16727L2.16724 18.8815C2.56244 19.4448 3.01136 19.9819 3.51475 20.4853Z" fill="#A2001D"/>
<path d="M3.51477 3.51469C-0.271044 7.3005 -0.997794 12.9861 1.33297 17.5021L17.5021 1.33298C12.9861 -0.997783 7.30049 -0.27094 3.51477 3.51469Z" fill="#0052B4"/>
<path d="M20.4852 20.4853C24.2709 16.6996 24.9976 11.014 22.667 6.49789L6.4978 22.6671C11.0138 24.9978 16.6994 24.2711 20.4852 20.4853Z" fill="#496E2D"/>
<path d="M9.91307 6.78261L8.56842 7.4151L9.28448 8.71738L7.82437 8.4381L7.63931 9.91302L6.62231 8.82819L5.60526 9.91302L5.42029 8.4381L3.96014 8.71733L4.67615 7.41505L3.33154 6.78261L4.6762 6.15008L3.96014 4.84789L5.42025 5.12718L5.60531 3.65216L6.62231 4.73704L7.63936 3.65216L7.82437 5.12718L9.28448 4.84789L8.56851 6.15013L9.91307 6.78261Z" fill="#FFDA44"/>
</g>
<defs>
<clipPath id="clip0_1407_16010">
<rect width="24" height="24" fill="white"/>
</clipPath>
</defs>
</svg>
