<svg width="24" height="24" viewBox="0 0 24 24" fill="none" xmlns="http://www.w3.org/2000/svg">
<g clip-path="url(#clip0_1407_16027)">
<path d="M1.19072 6.78262C0.427875 8.36025 0 10.1301 0 12C0 13.8699 0.427875 15.6397 1.19072 17.2174L12 18.2609L22.8093 17.2174C23.5721 15.6397 24 13.8699 24 12C24 10.1301 23.5721 8.36025 22.8093 6.78262L12 5.73914L1.19072 6.78262Z" fill="#F0F0F0"/>
<path d="M1.19116 17.2174C3.13207 21.2313 7.24249 24 12 24C16.7576 24 20.868 21.2313 22.8089 17.2174H1.19116Z" fill="#6DA544"/>
<path d="M1.19116 6.78263H22.8089C20.868 2.76867 16.7575 0 12 0C7.24254 0 3.13207 2.76867 1.19116 6.78263Z" fill="#FF9811"/>
<path d="M12.0001 16.1739C14.3052 16.1739 16.174 14.3052 16.174 12C16.174 9.69483 14.3052 7.82611 12.0001 7.82611C9.69489 7.82611 7.82617 9.69483 7.82617 12C7.82617 14.3052 9.69489 16.1739 12.0001 16.1739Z" fill="#FF9811"/>
</g>
<defs>
<clipPath id="clip0_1407_16027">
<rect width="24" height="24" fill="white"/>
</clipPath>
</defs>
</svg>
