<svg width="16" height="16" viewBox="0 0 16 16" fill="none" xmlns="http://www.w3.org/2000/svg">
<path fill-rule="evenodd" clip-rule="evenodd" d="M8.74065 0.494813C8.2923 0.195306 7.7077 0.195306 7.25936 0.494813L7.05446 0.631692C6.76049 0.82807 6.40057 0.899663 6.05382 0.830729L5.81214 0.782681C5.28331 0.677547 4.74321 0.901264 4.44361 1.34955L4.30668 1.55442C4.11025 1.84834 3.80512 2.05222 3.45839 2.12123L3.21672 2.16933C2.68791 2.27457 2.27453 2.68795 2.16929 3.21676L2.12119 3.45843C2.05218 3.80516 1.8483 4.11029 1.55438 4.30673L1.34951 4.44365C0.901223 4.74325 0.677507 5.28335 0.782641 5.81218L0.830689 6.05387C0.899622 6.40061 0.828029 6.76053 0.631651 7.0545L0.494772 7.2594C0.195265 7.70774 0.195265 8.29234 0.494772 8.74069L0.631651 8.94559C0.828029 9.23955 0.899622 9.59948 0.830689 9.94622L0.782641 10.1879C0.677506 10.7167 0.901224 11.2568 1.34951 11.5564L1.55438 11.6934C1.8483 11.8898 2.05218 12.1949 2.12119 12.5416L2.16929 12.7833C2.27453 13.3121 2.68791 13.7255 3.21672 13.8308L3.45839 13.8789C3.80512 13.9479 4.11025 14.1517 4.30669 14.4457L4.44361 14.6505C4.74321 15.0988 5.28331 15.3225 5.81214 15.2174L6.05382 15.1694C6.40057 15.1004 6.76049 15.172 7.05446 15.3684L7.25936 15.5053C7.7077 15.8048 8.2923 15.8048 8.74065 15.5053L8.94555 15.3684C9.23951 15.172 9.59944 15.1004 9.94618 15.1694L10.1879 15.2174C10.7167 15.3225 11.2568 15.0988 11.5564 14.6505L11.6933 14.4457C11.8898 14.1517 12.1949 13.9479 12.5416 13.8789L12.7833 13.8308C13.3121 13.7255 13.7255 13.3121 13.8307 12.7833L13.8788 12.5416C13.9478 12.1949 14.1517 11.8898 14.4456 11.6934L14.6505 11.5564C15.0988 11.2568 15.3225 10.7167 15.2174 10.1879L15.1693 9.94622C15.1004 9.59948 15.172 9.23955 15.3683 8.94559L15.5052 8.74069C15.8047 8.29234 15.8047 7.70774 15.5052 7.2594L15.3683 7.0545C15.172 6.76053 15.1004 6.40061 15.1693 6.05386L15.2174 5.81218C15.3225 5.28335 15.0988 4.74325 14.6505 4.44365L14.4456 4.30673C14.1517 4.11029 13.9478 3.80516 13.8788 3.45843L13.8307 3.21676C13.7255 2.68795 13.3121 2.27457 12.7833 2.16933L12.5416 2.12123C12.1949 2.05222 11.8898 1.84834 11.6933 1.55442L11.5564 1.34955C11.2568 0.901264 10.7167 0.677547 10.1879 0.782681L9.94618 0.830729C9.59944 0.899663 9.23951 0.82807 8.94555 0.631692L8.74065 0.494813ZM11.8001 8.56821C11.5363 8.54876 11.2969 8.44335 11.1112 8.2805C10.9992 8.37871 10.8676 8.45609 10.7228 8.50628L10.7222 10.0953H5.27778L5.27783 8.50646C5.13292 8.45629 5.00115 8.37888 4.88893 8.2805C4.68279 8.46131 4.41008 8.57147 4.11111 8.57147V11.2381C4.11111 11.6589 4.45933 12 4.88889 12H11.1111C11.5407 12 11.8889 11.6589 11.8889 11.2381V8.57147L11.8001 8.56821ZM11.85 4.45718C11.6297 4.16941 11.2839 4.00004 10.9167 4.00004H5.08333C4.71612 4.00004 4.37033 4.16941 4.15 4.45718L3.56667 5.21909C3.41521 5.41691 3.33333 5.65752 3.33333 5.9048V7.04766C3.33333 7.46845 3.68156 7.80956 4.11111 7.80956C4.54067 7.80956 4.88889 7.46845 4.88889 7.04766C4.88889 7.46845 5.23711 7.80956 5.66667 7.80956C6.09622 7.80956 6.44444 7.46845 6.44444 7.04766C6.44444 7.46845 6.79267 7.80956 7.22222 7.80956C7.65178 7.80956 8 7.46845 8 7.04766C8 7.46845 8.34822 7.80956 8.77778 7.80956C9.20733 7.80956 9.55556 7.46845 9.55556 7.04766C9.55556 7.46845 9.90378 7.80956 10.3333 7.80956C10.7629 7.80956 11.1111 7.46845 11.1111 7.04766C11.1111 7.46845 11.4593 7.80956 11.8889 7.80956C12.3184 7.80956 12.6667 7.46845 12.6667 7.04766V5.9048C12.6667 5.65752 12.5848 5.41691 12.4333 5.21909L11.85 4.45718Z" fill="#14B85D"/>
</svg>
