<svg width="24" height="24" viewBox="0 0 24 24" fill="none" xmlns="http://www.w3.org/2000/svg">
<g clip-path="url(#clip0_1407_16030)">
<path d="M17.2175 1.19072C15.6399 0.427875 13.87 0 12.0001 0C10.1302 0 8.36037 0.427875 6.78274 1.19072L5.73926 12L6.78274 22.8093C8.36037 23.5721 10.1302 24 12.0001 24C13.87 24 15.6399 23.5721 17.2175 22.8093L18.261 12L17.2175 1.19072Z" fill="#F0F0F0"/>
<path d="M6.78263 1.19113C2.76867 3.13204 0 7.24246 0 12C0 16.7575 2.76867 20.8679 6.78263 22.8088V1.19113Z" fill="#6DA544"/>
<path d="M17.2173 1.19113V22.8088C21.2312 20.8679 23.9999 16.7575 23.9999 12C23.9999 7.24251 21.2312 3.13204 17.2173 1.19113Z" fill="#6DA544"/>
<path d="M15.1305 15.6522L12.0001 5.73914L8.86963 15.6522H11.2175V18.2609H12.7827V15.6522H15.1305Z" fill="#6DA544"/>
</g>
<defs>
<clipPath id="clip0_1407_16030">
<rect width="24" height="24" fill="white"/>
</clipPath>
</defs>
</svg>
