<svg width="24" height="24" viewBox="0 0 24 24" fill="none" xmlns="http://www.w3.org/2000/svg">
<g clip-path="url(#clip0_1407_16023)">
<path d="M12 24C18.6274 24 24 18.6274 24 12C24 5.37258 18.6274 0 12 0C5.37258 0 0 5.37258 0 12C0 18.6274 5.37258 24 12 24Z" fill="#F0F0F0"/>
<path d="M23.9295 13.3043L23.9292 13.304L23.9292 13.3043H23.9295Z" fill="#0052B4"/>
<path d="M23.9292 13.3043C23.9292 13.3042 23.9293 13.3041 23.9293 13.304L10.7693 0.0623779C10.1757 0.122894 9.59475 0.226675 9.02986 0.370534C3.83897 1.69217 0 12 0 12C0 12 16.7999 23.2423 18.7165 21.9452C19.1 21.6857 19.4677 21.4046 19.8177 21.1036L12.0185 13.3043H23.9292Z" fill="#0052B4"/>
<path d="M20.8695 12L9.19898 0.329498C3.92287 1.59123 0 6.33714 0 12C0 18.6274 5.37262 24 12 24C14.5139 24 16.8467 23.2265 18.7748 21.9052L8.86955 12H20.8695Z" fill="#D80027"/>
<path d="M11.4127 17.7184L9.94716 17.0291L10.7276 15.6098L9.13618 15.9142L8.93452 14.3065L7.82607 15.4889L6.71761 14.3065L6.51591 15.9142L4.92455 15.6097L5.70497 17.0291L4.23938 17.7184L5.70497 18.4077L4.92455 19.8271L6.51601 19.5227L6.71757 21.1303L7.82607 19.9479L8.93452 21.1303L9.13618 19.5227L10.7275 19.8271L9.94711 18.4078L11.4127 17.7184Z" fill="#F0F0F0"/>
<path d="M10.4347 6.65545L9.36877 6.15412L9.93638 5.1218L8.77889 5.34323L8.63222 4.17389L7.82602 5.0339L7.01982 4.17389L6.8731 5.34323L5.71561 5.1218L6.28327 6.15412L5.21729 6.65545L7.82602 7.17726L10.4347 6.65545Z" fill="#F0F0F0"/>
<path d="M10.9565 6.65546C10.9565 8.38435 9.5549 9.78591 7.82601 9.78591C6.09712 9.78591 4.69556 8.38435 4.69556 6.65546" fill="#F0F0F0"/>
</g>
<defs>
<clipPath id="clip0_1407_16023">
<rect width="24" height="24" fill="white"/>
</clipPath>
</defs>
</svg>
