<svg width="24" height="24" viewBox="0 0 24 24" fill="none" xmlns="http://www.w3.org/2000/svg">
<g clip-path="url(#clip0_1407_16025)">
<path d="M24 12C24 18.6274 18.6274 24 12 24C5.37262 24 0 18.6274 0 12C0 12.0029 12 0.0013125 12 0C18.6274 0 24 5.37262 24 12Z" fill="#0052B4"/>
<path d="M11.9679 12H12C12 11.9892 12 11.9787 12 11.9679C11.9893 11.9786 11.9786 11.9893 11.9679 12Z" fill="#F0F0F0"/>
<path d="M12 6.26086C12 4.14937 12 2.76586 12 0H11.998C5.3715 0.001125 0 5.37323 0 12H6.26086V8.47448L9.78642 12H11.9679C11.9786 11.9893 11.9894 11.9786 12 11.9679C12 11.1594 12 10.4381 12 9.78647L8.47444 6.26086H12Z" fill="#F0F0F0"/>
<path d="M6.071 1.56522C4.19417 2.63392 2.63389 4.1942 1.56519 6.07103V12H4.69564V4.69576V4.69567H12C12 3.70834 12 2.76775 12 1.56522H6.071Z" fill="#D80027"/>
<path d="M12 10.5243L7.73654 6.26093C7.73654 6.26093 6.26086 6.26102 6.26086 6.26093V6.26102L11.9999 12H12C12 12 12 10.9825 12 10.5243Z" fill="#D80027"/>
<path d="M20.7811 8.90433L21.0401 9.70148H21.8782L21.2002 10.1941L21.4592 10.9912L20.7811 10.4986L20.1029 10.9912L20.362 10.1941L19.6838 9.70148H20.522L20.7811 8.90433Z" fill="#D80027"/>
<path d="M17.7848 14.6434L18.1734 15.8392H19.4306L18.4134 16.5782L18.802 17.7739L17.7848 17.0349L16.7676 17.7739L17.1562 16.5782L16.139 15.8392H17.3963L17.7848 14.6434Z" fill="#D80027"/>
<path d="M17.898 5.25217L18.2218 6.24868H19.2695L18.4219 6.86439L18.7457 7.86085L17.898 7.24496L17.0504 7.86085L17.3742 6.86439L16.5266 6.24868H17.5743L17.898 5.25217Z" fill="#D80027"/>
<path d="M15.015 8.86957L15.4035 10.0653H16.6608L15.6436 10.8043L16.0322 12L15.015 11.261L13.9979 12L14.3864 10.8043L13.3693 10.0653H14.6265L15.015 8.86957Z" fill="#D80027"/>
</g>
<defs>
<clipPath id="clip0_1407_16025">
<rect width="24" height="24" fill="white"/>
</clipPath>
</defs>
</svg>
