<svg width="21" height="20" viewBox="0 0 21 20" fill="none" xmlns="http://www.w3.org/2000/svg">
<path d="M14.7959 0.105836C14.7677 -0.0352789 14.566 -0.0352788 14.5377 0.105837C14.225 1.66937 13.0029 2.89153 11.4393 3.20423C11.2982 3.23246 11.2982 3.43421 11.4393 3.46243C13.0029 3.77514 14.225 4.9973 14.5377 6.56083C14.566 6.70194 14.7677 6.70194 14.7959 6.56083C15.1086 4.9973 16.3308 3.77514 17.8943 3.46243C18.0354 3.43421 18.0354 3.23246 17.8943 3.20423C16.3308 2.89153 15.1086 1.66937 14.7959 0.105836Z" fill="white"/>
<path d="M6.90847 3.545C6.96491 3.26277 7.36842 3.26277 7.42487 3.545C8.05028 6.67206 10.4946 9.11638 13.6217 9.7418C13.9039 9.79824 13.9039 10.2017 13.6217 10.2582C10.4946 10.8836 8.05028 13.3279 7.42487 16.455C7.36842 16.7372 6.96491 16.7372 6.90847 16.455C6.28305 13.3279 3.83874 10.8836 0.711673 10.2582C0.429442 10.2017 0.429442 9.79824 0.711673 9.7418C3.83874 9.11638 6.28305 6.67206 6.90847 3.545Z" fill="white"/>
<path d="M16.1718 11.799C16.2071 11.6226 16.4593 11.6226 16.4945 11.799C16.8854 13.7534 18.4131 15.2811 20.3675 15.672C20.5439 15.7072 20.5439 15.9594 20.3675 15.9947C18.4131 16.3856 16.8854 17.9133 16.4945 19.8677C16.4593 20.0441 16.2071 20.0441 16.1718 19.8677C15.7809 17.9133 14.2532 16.3856 12.2988 15.9947C12.1224 15.9594 12.1224 15.7072 12.2988 15.672C14.2532 15.2811 15.7809 13.7534 16.1718 11.799Z" fill="white"/>
</svg>
