<svg width="24" height="24" viewBox="0 0 24 24" fill="none" xmlns="http://www.w3.org/2000/svg">
<path d="M14.0224 12.5719L13.1294 12.7783C11.1991 13.2239 9.6918 14.7303 9.2455 16.6592L8.58222 19.5278C8.54818 19.6743 8.33943 19.6743 8.30539 19.5278L7.64211 16.6592C7.19618 14.7299 5.68856 13.2239 3.75821 12.7783L2.86635 12.5723C2.86635 12.5723 1.50949 12.357 0 12.3634C0.192661 18.8224 5.48954 24 12 24C18.5105 24 23.8051 18.8243 24 12.3671H16.4409C15.1335 12.397 14.0445 12.5682 14.0224 12.5719Z" fill="#273142"/>
<path d="M7.64174 7.29525L8.30501 4.42627C8.33906 4.27973 8.5478 4.27973 8.58185 4.42627L9.24513 7.29525C9.69105 9.2241 11.1987 10.7302 13.129 11.1761L13.1395 11.1784C13.2484 11.2012 14.1784 11.3877 16.5393 11.5552C17.2239 11.6038 22.0098 11.5772 23.9985 11.5798C23.7767 5.14734 18.4914 0 12 0C5.50862 0 0.224085 5.1466 0.00149536 11.5787C2.78592 11.3941 3.75783 11.1758 3.75783 11.1758C5.68819 10.7302 7.19581 9.22372 7.64174 7.29487V7.29525Z" fill="#273142"/>
</svg>
