<svg width="24" height="24" viewBox="0 0 24 24" fill="none" xmlns="http://www.w3.org/2000/svg">
<g clip-path="url(#clip0_1407_16051)">
<path d="M12 24C18.6274 24 24 18.6274 24 12C24 5.37258 18.6274 0 12 0C5.37258 0 0 5.37258 0 12C0 18.6274 5.37258 24 12 24Z" fill="#F0F0F0"/>
<path d="M0 12C0 18.6274 5.37262 24 12 24C12 19.4365 12 12 12 12C12 12 4.17389 12 0 12Z" fill="#0052B4"/>
<path d="M12 0C18.6274 0 24 5.37262 24 12C19.4365 12 12 12 12 12C12 12 12 4.17389 12 0Z" fill="#D80027"/>
<path d="M7.14313 4.17389L7.92017 6.56536H10.4347L8.40041 8.04333L9.17741 10.4348L7.14313 8.95678L5.10884 10.4348L5.88584 8.04333L3.85156 6.56536H6.36608L7.14313 4.17389Z" fill="#0052B4"/>
<path d="M16.8567 13.5652L17.6338 15.9567H20.1483L18.114 17.4347L18.891 19.8261L16.8567 18.3481L14.8225 19.8261L15.5995 17.4347L13.5652 15.9567H16.0797L16.8567 13.5652Z" fill="#D80027"/>
</g>
<defs>
<clipPath id="clip0_1407_16051">
<rect width="24" height="24" fill="white"/>
</clipPath>
</defs>
</svg>
