<svg width="24" height="24" viewBox="0 0 24 24" fill="none" xmlns="http://www.w3.org/2000/svg">
<path fill-rule="evenodd" clip-rule="evenodd" d="M0.774621 3.81604C0.872928 1.68069 2.63278 0 4.77039 0H19.2285C21.3661 0 23.1259 1.68069 23.2242 3.81604L23.9609 19.816C24.0658 22.095 22.2464 24 19.9651 24H4.03378C1.75242 24 -0.0669059 22.095 0.0380119 19.816L0.774621 3.81604ZM4.9998 19C4.9998 18.4477 5.44752 18 5.9998 18H17.9998C18.5521 18 18.9998 18.4477 18.9998 19C18.9998 19.5523 18.5521 20 17.9998 20H5.9998C5.44752 20 4.9998 19.5523 4.9998 19ZM5.9998 13C5.44752 13 4.9998 13.4477 4.9998 14C4.9998 14.5523 5.44752 15 5.9998 15H11.9998C12.5521 15 12.9998 14.5523 12.9998 14C12.9998 13.4477 12.5521 13 11.9998 13H5.9998Z" fill="#273142"/>
</svg>
