<svg width="24" height="24" viewBox="0 0 24 24" fill="none" xmlns="http://www.w3.org/2000/svg">
<g clip-path="url(#clip0_1407_16116)">
<path d="M12 24C18.6274 24 24 18.6274 24 12C24 5.37258 18.6274 0 12 0C5.37258 0 0 5.37258 0 12C0 18.6274 5.37258 24 12 24Z" fill="#F0F0F0"/>
<path d="M1.45911 6.26086H22.5409C20.5057 2.53073 16.5485 0 12 0C7.45151 0 3.49437 2.53073 1.45911 6.26086Z" fill="#D80027"/>
<path d="M12 24C16.5485 24 20.5057 21.4693 22.5409 17.7391H1.45911C3.49437 21.4693 7.45151 24 12 24Z" fill="#D80027"/>
<path d="M16.1738 12C16.1738 14.3052 14.3051 15.6522 11.9999 15.6522C9.69477 15.6522 7.82605 14.3052 7.82605 12C7.82605 9.69478 9.69477 7.82611 11.9999 7.82611C14.3051 7.82611 16.1738 9.69478 16.1738 12Z" fill="#FFDA44"/>
<path d="M16.1738 12C16.1738 14.3052 14.3051 16.1739 11.9999 16.1739C9.69477 16.1739 7.82605 14.3052 7.82605 12" fill="#0052B4"/>
<path d="M9.39136 10.9565H10.4348V13.0435H9.39136V10.9565Z" fill="#D80027"/>
<path d="M13.5653 10.9565H14.6088V13.0435H13.5653V10.9565Z" fill="#D80027"/>
<path d="M11.4783 9.3913H12.5218V13.0435H11.4783V9.3913Z" fill="#D80027"/>
</g>
<defs>
<clipPath id="clip0_1407_16116">
<rect width="24" height="24" fill="white"/>
</clipPath>
</defs>
</svg>
