<svg width="24" height="24" viewBox="0 0 24 24" fill="none" xmlns="http://www.w3.org/2000/svg">
<g clip-path="url(#clip0_1407_16065)">
<path d="M12 24C18.6274 24 24 18.6274 24 12C24 5.37258 18.6274 0 12 0C5.37258 0 0 5.37258 0 12C0 18.6274 5.37258 24 12 24Z" fill="#F0F0F0"/>
<path d="M12 0V12L3.51465 20.4853C5.68623 22.6568 8.68623 24 12 24C18.6273 24 24 18.6274 24 12C24 5.37262 12 0 12 0Z" fill="#D80027"/>
<path d="M12 0C8.68623 0 5.68623 1.34316 3.51465 3.51469C6.45887 6.45891 7.50404 7.50412 12 12H24C24 5.37262 18.6273 0 12 0Z" fill="#0052B4"/>
<path d="M8.21674 12L6.75124 11.3107L7.53166 9.89132L5.94025 10.1958L5.7386 8.5881L4.6301 9.77048L3.52164 8.5881L3.31994 10.1958L1.72858 9.89128L2.509 11.3107L1.04346 12L2.509 12.6893L1.72858 14.1087L3.32008 13.8043L3.5216 15.4119L4.6301 14.2295L5.7386 15.4119L5.94025 13.8043L7.53157 14.1087L6.75119 12.6894L8.21674 12Z" fill="#FFDA44"/>
<path d="M3.20021 4.69565L3.6879 5.37735L4.48688 5.12427L3.98916 5.79871L4.47685 6.48041L3.68157 6.21552L3.1839 6.88991L3.19013 6.05179L2.3949 5.78685L3.19402 5.53377L3.20021 4.69565Z" fill="#FFDA44"/>
<path d="M3.20021 17.1101L3.6879 17.7918L4.48688 17.5387L3.98916 18.2131L4.47685 18.8948L3.68157 18.63L3.1839 19.3043L3.19013 18.4662L2.3949 18.2013L3.19402 17.9482L3.20021 17.1101Z" fill="#FFDA44"/>
<path d="M10.1562 10.9029L9.66854 11.5846L8.86951 11.3314L9.36723 12.0059L8.87954 12.6877L9.67482 12.4227L10.1725 13.0971L10.1663 12.259L10.9615 11.9941L10.1624 11.741L10.1562 10.9029Z" fill="#FFDA44"/>
</g>
<defs>
<clipPath id="clip0_1407_16065">
<rect width="24" height="24" fill="white"/>
</clipPath>
</defs>
</svg>
