<svg width="24" height="24" viewBox="0 0 24 24" fill="none" xmlns="http://www.w3.org/2000/svg">
<g clip-path="url(#clip0_1407_16048)">
<path d="M12 24C18.6274 24 24 18.6274 24 12C24 5.37258 18.6274 0 12 0C5.37258 0 0 5.37258 0 12C0 18.6274 5.37258 24 12 24Z" fill="#F0F0F0"/>
<path d="M0 12C0 16.5485 2.53073 20.5057 6.26086 22.5409V1.45908C2.53073 3.49434 0 7.45148 0 12Z" fill="#F0F0F0"/>
<path d="M11.9999 0C9.92098 0 7.96563 0.528891 6.26074 1.45908V22.5409C7.96563 23.4711 9.92098 24 11.9999 24C18.6273 24 23.9999 18.6274 23.9999 12C23.9999 5.37262 18.6273 0 11.9999 0Z" fill="#496E2D"/>
<path d="M17.1307 13.9846C15.6126 15.0815 13.4926 14.74 12.3957 13.2219C11.2987 11.7038 11.6402 9.58384 13.1584 8.48696C13.6317 8.14496 14.1636 7.94279 14.7046 7.87252C13.6637 7.71685 12.5633 7.95141 11.6428 8.61652C9.77437 9.96662 9.35404 12.5757 10.7041 14.4443C12.0541 16.3126 14.6633 16.733 16.5318 15.3828C17.4524 14.7177 18.0206 13.7468 18.1995 12.7095C17.963 13.201 17.6041 13.6425 17.1307 13.9846Z" fill="#F0F0F0"/>
<path d="M17.0657 7.8262L17.9208 8.74781L19.0616 8.21944L18.4493 9.31744L19.3044 10.2391L18.0708 9.99609L17.4586 11.0942L17.3085 9.84591L16.075 9.60286L17.2157 9.07448L17.0657 7.8262Z" fill="#F0F0F0"/>
</g>
<defs>
<clipPath id="clip0_1407_16048">
<rect width="24" height="24" fill="white"/>
</clipPath>
</defs>
</svg>
