<svg width="24" height="24" viewBox="0 0 24 24" fill="none" xmlns="http://www.w3.org/2000/svg">
<g clip-path="url(#clip0_9977_2404)">
<path d="M12 24C18.6274 24 24 18.6274 24 12C24 5.37258 18.6274 0 12 0C5.37258 0 0 5.37258 0 12C0 18.6274 5.37258 24 12 24Z" fill="#F0F0F0"/>
<path d="M24 12C24 5.37262 18.6274 0 12 0C9.65249 0 7.46277 0.674766 5.61318 1.83989L8.24348 2.95744L4.69565 4.46484L8.24348 5.9722L4.69565 7.47952L8.24348 8.98678L4.69565 10.4939L8.24348 12.0008L4.69565 13.5082L8.24348 15.0154L4.69565 16.5225L8.24348 18.0297L4.69565 19.537L8.24348 21.0441L5.61435 22.161C7.46371 23.3256 9.65296 24 12 24C18.6274 24 24 18.6274 24 12Z" fill="#751A46"/>
</g>
<defs>
<clipPath id="clip0_9977_2404">
<rect width="24" height="24" fill="white"/>
</clipPath>
</defs>
</svg>
