<svg width="24" height="24" viewBox="0 0 24 24" fill="none" xmlns="http://www.w3.org/2000/svg">
<g clip-path="url(#clip0_9977_2526)">
<path d="M16.1739 0.746344C14.8739 0.264047 13.4678 6.23894e-09 12 6.23894e-09C10.5322 -4.68688e-05 9.12609 0.264047 7.82611 0.746344L6.78262 12L7.82611 23.2536C9.12605 23.736 10.5321 24 12 24C13.4678 24 14.8739 23.736 16.1739 23.2536L17.2173 12L16.1739 0.746344Z" fill="#FFDA44"/>
<path d="M24 12C24 6.84047 20.7435 2.44186 16.1739 0.74639V23.2537C20.7435 21.558 24 17.1596 24 12Z" fill="#D80027"/>
<path d="M0 12C0 17.1596 3.2565 21.558 7.82602 23.2537L7.82606 0.746437C3.2565 2.44191 0 6.84037 0 12H0Z" fill="#0052B4"/>
</g>
<defs>
<clipPath id="clip0_9977_2526">
<rect width="24" height="24" fill="white"/>
</clipPath>
</defs>
</svg>
