<svg width="24" height="24" viewBox="0 0 24 24" fill="none" xmlns="http://www.w3.org/2000/svg">
<g clip-path="url(#clip0_1407_16104)">
<path d="M12 24C18.6274 24 24 18.6274 24 12C24 5.37258 18.6274 0 12 0C5.37258 0 0 5.37258 0 12C0 18.6274 5.37258 24 12 24Z" fill="#005430"/>
<path d="M4.37971 9.27195C4.42389 9.55516 4.59507 9.64403 4.74391 9.6324C4.91941 9.61879 5.07333 9.45832 5.07333 9.28881V8.31696C5.07333 8.26832 5.11294 8.2286 5.16169 8.2286C5.21044 8.2286 5.25005 8.26826 5.25005 8.31696V9.29298C5.25005 9.41033 5.30804 9.51977 5.40529 9.58548C5.46465 9.6257 5.53376 9.64636 5.60338 9.64636C5.64772 9.64636 5.69225 9.63788 5.7347 9.62097L5.82301 9.58568C5.83114 10.4015 5.78152 11.1185 5.78061 11.1316C5.7737 11.229 5.84693 11.3135 5.94428 11.3204C5.94859 11.3208 5.95281 11.3209 5.95707 11.3209C6.04899 11.3209 6.12653 11.2498 6.13318 11.1568C6.1373 11.0994 6.19173 10.3141 6.17543 9.44471L6.22886 9.42338C6.27568 9.40475 6.32829 9.40698 6.37333 9.42943C6.56797 9.52642 6.80217 9.48859 6.95599 9.33482L6.98783 9.30303C7.13063 9.15998 7.17973 8.95218 7.1158 8.76049L6.96533 8.30909C7.04669 8.33357 7.13606 8.29757 7.17536 8.21921C7.21904 8.13192 7.18364 8.02578 7.09635 7.98211L6.74296 7.80539C6.67903 7.7733 6.6023 7.78315 6.54812 7.82987C6.49409 7.87684 6.47367 7.95154 6.49627 8.01934L6.78059 8.87236C6.80187 8.93619 6.78552 9.00556 6.73794 9.05319L6.70615 9.08498C6.66009 9.13104 6.58991 9.14226 6.53126 9.11326C6.41675 9.05603 6.28634 9.04532 6.16401 9.0765C6.13918 8.50932 6.07809 7.94453 5.94798 7.55408C5.91716 7.46155 5.81727 7.41138 5.7244 7.44241C5.63182 7.47313 5.5818 7.57317 5.61268 7.6659C5.73999 8.04772 5.79544 8.62962 5.81514 9.20822L5.60359 9.29282V8.31681C5.60359 8.07316 5.40539 7.87502 5.16179 7.87502C4.91819 7.87502 4.71999 8.07311 4.71999 8.31681V9.17222L4.53972 8.28177C4.52053 8.186 4.42739 8.12354 4.33152 8.14355C4.2358 8.16305 4.17395 8.25623 4.19339 8.35185L4.37971 9.27195Z" fill="#F5F5F5"/>
<path d="M4.71981 7.78687C4.81741 7.78687 4.89653 7.70785 4.89653 7.61015V7.43343C4.89653 7.33578 4.81741 7.25671 4.71981 7.25671C4.62221 7.25671 4.54309 7.33573 4.54309 7.43343V7.61015C4.54309 7.7078 4.62221 7.78687 4.71981 7.78687Z" fill="#F5F5F5"/>
<path d="M6.4869 7.61015H6.66362C6.76122 7.61015 6.84034 7.53114 6.84034 7.43343C6.84034 7.33578 6.76122 7.25671 6.66362 7.25671H6.4869C6.3893 7.25671 6.31018 7.33573 6.31018 7.43343C6.31018 7.53114 6.3893 7.61015 6.4869 7.61015Z" fill="#F5F5F5"/>
<path d="M5.33569 9.93252L4.45215 10.4627C4.36841 10.5129 4.34134 10.6214 4.39157 10.7052C4.42468 10.7604 4.48318 10.7909 4.54325 10.7909C4.57423 10.7909 4.60556 10.7828 4.63405 10.7657L5.51759 10.2355C5.60133 10.1853 5.62839 10.0768 5.57817 9.99305C5.52795 9.90937 5.41948 9.8823 5.33569 9.93252Z" fill="#F5F5F5"/>
<path d="M7.71799 10.2451L7.72216 10.2423C7.73698 10.302 7.76242 10.3598 7.80371 10.4083C7.87551 10.4929 7.98317 10.5354 8.10484 10.5253C8.27745 10.5127 8.39475 10.4339 8.47245 10.332C8.48428 10.3402 8.49672 10.3476 8.50972 10.3541C8.60524 10.4023 8.71569 10.3987 8.82086 10.3441C9.08791 10.2066 9.14545 9.88836 9.13732 9.72201C9.13255 9.62501 9.05008 9.55656 8.95334 9.55463C8.8563 9.55879 8.78074 9.64111 8.78424 9.7381C8.78434 9.74034 8.78825 9.95001 8.66008 10.0279C8.63916 9.99871 8.61438 9.9331 8.60504 9.87892C8.59011 9.78797 8.50657 9.72465 8.41669 9.73191C8.32508 9.73912 8.25429 9.8161 8.25399 9.90807C8.25388 9.93376 8.2482 10.1605 8.07315 10.1795C8.05279 10.1517 8.05244 10.0347 8.07249 9.94824C8.0894 9.87729 8.06097 9.80326 8.00094 9.76187C7.94082 9.72028 7.86155 9.72028 7.80117 9.76121L7.70255 9.82829C7.65573 8.80353 7.54782 7.60941 7.5465 7.59412C7.53772 7.49713 7.4523 7.42482 7.35455 7.43416C7.25735 7.44295 7.1857 7.52892 7.19454 7.62627C7.19606 7.64262 7.32083 9.02422 7.35932 10.0793C7.35028 10.0879 7.34099 10.0973 7.33216 10.1055C7.26228 9.92935 7.12375 9.81839 6.94536 9.80148C6.69358 9.77924 6.42079 9.95057 6.32298 10.1953C6.23868 10.4058 6.29175 10.6128 6.45806 10.7223C6.57765 10.8012 6.75812 10.826 6.98507 10.7465C6.92966 10.9411 6.82876 11.1385 6.69765 11.2912C6.58019 11.4281 6.38407 11.586 6.13311 11.5789C5.98701 11.5732 5.87479 11.5254 5.78993 11.4326C5.58533 11.2091 5.60296 10.8046 5.60311 10.8003C5.60819 10.7029 5.53364 10.62 5.43639 10.6146C5.33844 10.6042 5.25556 10.6838 5.25018 10.7813C5.24896 10.8037 5.22332 11.3353 5.52765 11.6695C5.67745 11.8343 5.87646 11.9225 6.1192 11.932C6.13103 11.9325 6.14286 11.9327 6.15474 11.9327C6.45034 11.9327 6.73715 11.7877 6.96562 11.5214C7.18052 11.2712 7.32647 10.9313 7.37024 10.6157C7.36968 11.2202 7.00538 11.902 6.5224 12.2024C6.31729 12.3297 5.99752 12.4446 5.63733 12.2671C5.1933 12.0479 5.24622 11.5404 5.24855 11.5197C5.26069 11.4228 5.19198 11.3345 5.09514 11.3224C4.99876 11.3107 4.90989 11.3788 4.89791 11.4758C4.89395 11.5074 4.80904 12.2524 5.48098 12.5839C5.65358 12.6691 5.83406 12.7114 6.01596 12.7114C6.2496 12.7114 6.48543 12.6415 6.70897 12.5024C7.29701 12.1369 7.72383 11.3428 7.72383 10.6142C7.72378 10.5003 7.7216 10.3759 7.71799 10.2451ZM6.65245 10.4272C6.62086 10.4063 6.64554 10.3396 6.65088 10.3263C6.6881 10.2331 6.80449 10.1525 6.89747 10.1525C6.90224 10.1525 6.90707 10.1526 6.91169 10.1531C6.93429 10.1552 6.99426 10.1609 7.02005 10.2943C7.0228 10.3085 7.02513 10.323 7.02696 10.3378C6.83003 10.4535 6.698 10.4571 6.65245 10.4272Z" fill="#F5F5F5"/>
<path d="M4.80912 12.0525C4.72538 12.0033 4.61721 12.0314 4.56755 12.1151C4.55942 12.1288 4.54866 12.1436 4.53769 12.157C4.53576 12.1526 4.53388 12.1477 4.53195 12.1425C4.45827 11.9459 4.51073 11.6431 4.53723 11.543C4.56217 11.4488 4.50605 11.3522 4.41191 11.3269C4.31786 11.3027 4.22112 11.3576 4.19583 11.4519C4.18298 11.4997 4.07436 11.9287 4.20101 12.2666C4.28211 12.4826 4.40662 12.5372 4.49686 12.5445C4.50489 12.5452 4.51281 12.5456 4.52068 12.5456C4.71091 12.5456 4.8375 12.3539 4.87269 12.2931C4.92149 12.209 4.8929 12.1018 4.80912 12.0525Z" fill="#F5F5F5"/>
<path d="M8.07003 8.84709C8.10827 8.84709 8.14676 8.8348 8.17906 8.80931L9.06996 8.1099C9.08225 8.10025 9.09012 8.08761 9.09911 8.07572C9.22744 7.99833 9.31422 7.85899 9.31422 7.69857C9.31422 7.45492 9.11602 7.25677 8.87242 7.25677C8.62883 7.25677 8.43063 7.45487 8.43063 7.69857C8.43063 7.83492 8.494 7.95542 8.5913 8.03652L7.96075 8.53153C7.88402 8.59176 7.87066 8.70287 7.93089 8.7795C7.96578 8.82393 8.01768 8.84709 8.07003 8.84709ZM8.87248 7.61016C8.92123 7.61016 8.96084 7.64982 8.96084 7.69852C8.96084 7.74722 8.92123 7.78688 8.87248 7.78688C8.82373 7.78688 8.78412 7.74722 8.78412 7.69852C8.78412 7.64982 8.82373 7.61016 8.87248 7.61016Z" fill="#F5F5F5"/>
<path d="M8.66331 8.67953C8.57023 8.64851 8.47054 8.69868 8.43972 8.7912C8.42083 8.84777 8.33536 9.1393 8.50858 9.31232C8.57581 9.3796 8.66412 9.41327 8.77259 9.41306C8.84505 9.41306 8.92651 9.39824 9.01669 9.36802C9.10927 9.3373 9.15929 9.23726 9.12841 9.14453C9.09754 9.05201 8.99765 9.00164 8.90482 9.03287C8.8061 9.06567 8.76436 9.06034 8.76055 9.06374C8.75014 9.03754 8.757 8.95863 8.77513 8.90221C8.8057 8.80999 8.75568 8.71026 8.66331 8.67953Z" fill="#F5F5F5"/>
<path d="M10.6858 7.94902C10.7024 7.95384 10.719 7.95608 10.7354 7.95608C10.812 7.95608 10.8824 7.90606 10.905 7.82887L11.0081 7.47548C11.0354 7.38179 10.9816 7.28358 10.888 7.25631C10.794 7.2292 10.6962 7.28272 10.6688 7.37641L10.5657 7.7298C10.5384 7.82364 10.5922 7.9218 10.6858 7.94902Z" fill="#F5F5F5"/>
<path d="M9.65578 7.92832C9.68381 7.94473 9.71458 7.9525 9.7448 7.9525C9.80553 7.9525 9.86464 7.92127 9.8975 7.86505C9.94676 7.78086 9.91842 7.67244 9.83417 7.62328C9.79863 7.60256 9.80345 7.54406 9.80477 7.53249C9.81005 7.48607 9.83773 7.42945 9.88587 7.41447C9.97905 7.38553 10.0311 7.28645 10.0021 7.19327C9.97296 7.09993 9.87409 7.04829 9.78075 7.07693C9.60459 7.13177 9.47617 7.29488 9.45357 7.49232C9.43265 7.67604 9.51014 7.84311 9.65578 7.92832Z" fill="#F5F5F5"/>
<path d="M8.25387 10.7909C8.15627 10.7909 8.07715 10.8699 8.07715 10.9676C8.07715 11.0539 8.13895 11.1257 8.22071 11.1412C8.23 11.1548 8.25382 11.2016 8.25382 11.321C8.25382 11.4186 8.33293 11.4977 8.43053 11.4977C8.52814 11.4977 8.60725 11.4187 8.60725 11.321C8.6073 10.7969 8.26829 10.7909 8.25387 10.7909Z" fill="#F5F5F5"/>
<path d="M11.2517 10.0592C11.2739 10.0628 11.296 10.0645 11.3182 10.0645C11.457 10.0645 11.5973 9.99448 11.7362 9.85555C11.8052 9.78653 11.8052 9.67471 11.7362 9.6057C11.6672 9.53669 11.5554 9.53669 11.4864 9.6057C11.3807 9.71148 11.3238 9.71371 11.3092 9.71041C11.2755 9.70559 11.245 9.66156 11.2381 9.64953C11.1938 9.56355 11.0887 9.52928 11.0022 9.57254C10.9149 9.61621 10.8794 9.72235 10.9231 9.80964C10.9341 9.83158 11.0361 10.0241 11.2517 10.0592Z" fill="#F5F5F5"/>
<path d="M14.2555 8.81735C14.2544 8.81461 14.2533 8.81202 14.2524 8.80958C14.2211 8.71782 14.121 8.66791 14.0294 8.69914C13.9367 8.72986 13.8867 8.8299 13.9176 8.92262C13.9313 8.96401 14.0101 9.17181 14.2051 9.19801C14.2181 9.19974 14.2311 9.2006 14.2439 9.2006C14.3664 9.2006 14.4812 9.12138 14.5857 8.96467C14.6398 8.88357 14.6178 8.77383 14.5366 8.71965C14.4553 8.66562 14.3456 8.68735 14.2916 8.76871C14.2777 8.78958 14.2656 8.80547 14.2555 8.81735Z" fill="#F5F5F5"/>
<path d="M13.9086 12.0278C13.9086 11.2743 13.8755 10.5673 13.8295 9.94791C14.0804 10.383 14.3062 10.8228 14.45 11.2064C14.4766 11.2773 14.5439 11.321 14.6154 11.321C14.636 11.321 14.657 11.3173 14.6774 11.3098C14.7688 11.2754 14.8151 11.1736 14.7809 11.0822C14.5572 10.4859 14.1552 9.77576 13.7589 9.14536C13.6624 8.19347 13.5542 7.58927 13.5523 7.57851C13.5349 7.48243 13.4431 7.41753 13.3469 7.43627C13.2509 7.45369 13.1872 7.54565 13.2046 7.64163C13.206 7.6493 13.2617 7.96054 13.3283 8.48434C13.1925 8.28289 13.0663 8.10115 12.9605 7.95155L12.9691 7.95429C13.0622 7.98532 13.1618 7.93514 13.1927 7.84262C13.2236 7.74995 13.1736 7.64986 13.081 7.61913L12.5509 7.44242C12.4773 7.41758 12.3966 7.44384 12.3516 7.50665C12.3396 7.52341 12.3314 7.54179 12.3258 7.56079C12.22 7.48258 12.0843 7.419 11.957 7.47233C11.8799 7.50427 11.7881 7.58465 11.7881 7.78671C11.7881 7.94185 11.8473 8.10958 11.9101 8.28731C12.0141 8.58205 12.0793 8.79878 11.9691 8.90217C11.9082 8.95925 11.8473 8.98083 11.788 8.96585C11.679 8.93823 11.5711 8.79309 11.4993 8.57758C11.4961 8.56823 11.4896 8.56143 11.4852 8.55305C11.5223 8.27934 11.5061 7.94957 11.4312 7.57536C11.4122 7.47959 11.3193 7.41728 11.2233 7.43678C11.1276 7.45592 11.0656 7.54895 11.0847 7.64473C11.2001 8.22175 11.1654 8.69249 10.9921 8.90395C10.9251 8.98576 10.8411 9.02369 10.7279 9.02369C10.6921 9.02369 10.6676 9.01231 10.6433 8.98433C10.5039 8.82366 10.5045 8.30529 10.5495 7.98826C10.5566 7.93773 10.5414 7.88629 10.5079 7.8476C10.4743 7.80895 10.4257 7.78671 10.3745 7.78671C10.0705 7.78671 9.95518 8.13253 9.85341 8.43762C9.80883 8.57174 9.72565 8.82107 9.66766 8.84697C9.56071 8.84697 9.49155 8.53289 9.49094 8.31666C9.49063 8.21916 9.41167 8.1403 9.31422 8.1403C9.31422 8.1403 9.31407 8.1403 9.31392 8.1403C9.21642 8.1403 9.13745 8.21932 9.13745 8.31682C9.13745 8.72439 9.27629 9.20036 9.66761 9.20036C9.95899 9.20036 10.077 8.88282 10.1758 8.58773C10.193 8.82239 10.246 9.06553 10.3763 9.21569C10.4678 9.32132 10.5893 9.37703 10.7279 9.37703C10.946 9.37703 11.1318 9.2909 11.2654 9.12799C11.2896 9.09854 11.3104 9.06467 11.331 9.03049C11.4336 9.17634 11.5595 9.27257 11.7013 9.30837C11.7429 9.31888 11.7847 9.32421 11.8261 9.32421C11.9625 9.32421 12.0958 9.26795 12.2109 9.15973C12.2348 9.13719 12.2517 9.11266 12.2699 9.08844C12.3132 9.10078 12.357 9.10809 12.4005 9.10809C12.5436 9.10809 12.6815 9.05045 12.767 8.99556C12.8488 8.9431 12.8725 8.83473 12.8205 8.75257C12.7685 8.67061 12.6596 8.64608 12.5772 8.69752C12.5757 8.69823 12.4577 8.76608 12.3772 8.75013C12.3774 8.5564 12.3073 8.35069 12.2433 8.16945C12.2069 8.06621 12.1695 7.96048 12.1519 7.87406C12.1665 7.88634 12.1807 7.89909 12.1935 7.91148C12.2623 7.98049 12.3742 7.98049 12.4433 7.91148C12.4547 7.90006 12.4613 7.88619 12.4689 7.87284C12.6521 8.12517 13.0288 8.65542 13.4163 9.26668C13.4903 10.018 13.5552 10.9764 13.5552 12.0275C13.5552 12.1252 13.6343 12.2043 13.7319 12.2043C13.8295 12.2045 13.9086 12.1255 13.9086 12.0278Z" fill="#F5F5F5"/>
<path d="M14.0852 8.14025C14.0852 8.2379 14.1643 8.31696 14.2619 8.31696C14.3595 8.31696 14.4386 8.23795 14.4386 8.14025C14.4386 7.9323 14.2759 7.59633 14.2433 7.53107C14.1996 7.44393 14.0936 7.40874 14.0062 7.45206C13.9189 7.49573 13.8835 7.60186 13.9272 7.68916C13.9909 7.81667 14.0852 8.04808 14.0852 8.14025Z" fill="#F5F5F5"/>
<path d="M13.2812 12.0471C13.1946 12.0029 13.0881 12.0379 13.044 12.1249C13.025 12.162 12.9956 12.2033 12.9708 12.2298C12.963 12.1596 12.9817 12.0193 13.0173 11.903C13.041 11.8254 13.0088 11.7415 12.9393 11.6997C12.87 11.6578 12.7807 11.6687 12.7234 11.7261L12.37 12.0795C12.301 12.1485 12.301 12.2604 12.37 12.3294C12.439 12.3984 12.5508 12.3984 12.6198 12.3294L12.6288 12.3204C12.6441 12.3913 12.6734 12.456 12.7234 12.5061C12.7897 12.5724 12.8698 12.6074 12.953 12.6074C12.9692 12.6074 12.9854 12.606 13.0016 12.6034C13.2018 12.571 13.3264 12.3503 13.3598 12.2835C13.4032 12.1963 13.368 12.0909 13.2812 12.0471Z" fill="#F5F5F5"/>
<path d="M13.2128 10.6251H11.9674C11.9784 10.5812 11.9898 10.5392 12.0014 10.4994C12.4981 10.3961 12.7932 10.2358 12.88 10.0219C12.91 9.94772 12.9414 9.79776 12.8136 9.62536C12.6983 9.47002 12.5357 9.40035 12.3668 9.43483C12.1157 9.48571 11.892 9.75627 11.7315 10.1894C11.2326 10.2748 10.9133 10.4539 10.7112 10.6306C10.6395 9.90643 10.3584 9.47626 10.3447 9.4558C10.2905 9.3745 10.1807 9.35256 10.0997 9.40674C10.0185 9.46093 9.99658 9.57051 10.0506 9.65176C10.0538 9.65659 10.3743 10.1468 10.3743 10.9674C10.3743 11.774 9.73119 12.381 9.31413 12.381C9.11573 12.381 9.02884 12.1452 8.9907 11.9458C9.39909 11.6595 9.75943 11.3284 9.839 11.0102C9.94671 10.5796 9.81117 10.2623 9.72149 10.0523C9.71728 10.0426 9.71286 10.0323 9.70839 10.0216C9.7122 10.025 9.71581 10.0286 9.71941 10.0321C9.78827 10.1011 9.90019 10.1011 9.96921 10.0321C10.0382 9.96305 10.0382 9.85123 9.96921 9.78222C9.86592 9.67883 9.66533 9.51643 9.48298 9.59276C9.40594 9.6247 9.31413 9.70508 9.31413 9.90714C9.31413 9.99845 9.35227 10.0876 9.39644 10.1912C9.47602 10.3774 9.57499 10.6091 9.49608 10.9245C9.44941 11.1112 9.22018 11.3376 8.91768 11.5625C8.88523 11.5237 8.83841 11.4977 8.78397 11.4977H8.78367C8.68617 11.4978 8.6072 11.5767 8.6072 11.6742C8.6072 11.706 8.60863 11.7399 8.61066 11.7748C8.23249 12.0197 7.80456 12.2464 7.47377 12.3968C7.385 12.4373 7.34575 12.542 7.38612 12.6308C7.41573 12.6959 7.47991 12.7344 7.54705 12.7344C7.57152 12.7344 7.59641 12.7294 7.62007 12.7185C7.7194 12.6734 8.191 12.4537 8.67545 12.1534C8.76468 12.4564 8.95373 12.7345 9.31408 12.7345C9.738 12.7345 10.2189 12.3879 10.4964 11.8703C10.5299 11.9295 10.5684 11.9862 10.6144 12.039C11.0592 12.5519 11.9279 12.5578 11.9647 12.5578C12.0599 12.5578 12.1379 12.4825 12.1413 12.3874C12.1447 12.2923 12.0722 12.2116 11.9773 12.2049C11.9759 12.2047 11.8351 12.1892 11.7568 12.0977C11.7095 12.0425 11.6906 11.9666 11.699 11.8657C11.717 11.6479 12.4195 11.4851 13.0386 11.4755C13.1124 11.4743 13.1777 11.4275 13.2024 11.358L13.3791 10.8611C13.3983 10.807 13.3901 10.7468 13.3569 10.7001C13.3242 10.6531 13.2702 10.6251 13.2128 10.6251ZM12.4372 9.78131C12.4405 9.78065 12.445 9.77958 12.4506 9.77958C12.4675 9.77958 12.4942 9.78786 12.5297 9.83584C12.5364 9.84483 12.558 9.8755 12.5525 9.88901C12.5323 9.93903 12.4103 10.0217 12.1561 10.0966C12.2679 9.87845 12.3772 9.79339 12.4372 9.78131ZM11.37 12.1042C11.1905 12.0458 11.0075 11.9534 10.8809 11.8069C10.7417 11.6459 10.6903 11.4423 10.724 11.1846C10.7291 11.171 10.7407 11.1444 10.7609 11.1097C11.0097 11.0869 11.6745 11.1849 11.7205 11.3753C11.5155 11.48 11.3645 11.6272 11.347 11.8364C11.3382 11.9413 11.3489 12.0302 11.37 12.1042Z" fill="#F5F5F5"/>
<path d="M15.1365 8.08431L14.9597 7.55415C14.9313 7.46894 14.8428 7.41801 14.7551 7.4373C14.667 7.45614 14.6073 7.53805 14.6163 7.62763C14.7382 8.84699 14.9688 11.2249 14.9688 11.4976C14.9688 11.7425 14.5333 12.2246 13.8296 12.5765C13.7423 12.6202 13.7068 12.7263 13.7505 12.8136C13.7815 12.8756 13.8439 12.9113 13.9088 12.9113C13.9353 12.9113 13.9623 12.9052 13.9876 12.8926C14.6305 12.5712 15.3223 11.9976 15.3223 11.4976C15.3223 11.2365 15.1417 9.358 15.0383 8.30277C15.122 8.26702 15.1658 8.17236 15.1365 8.08431Z" fill="#F5F5F5"/>
<path d="M16.6109 9.67885C16.6449 9.71288 16.6901 9.73065 16.7359 9.73065C16.7657 9.73065 16.7959 9.72308 16.8232 9.70749C16.8923 9.66814 16.9266 9.58739 16.9071 9.51026C16.8754 9.38605 16.8649 9.23071 16.8816 9.16723C16.9701 9.16997 17.0523 9.107 17.0653 9.0157C17.0791 8.91906 17.012 8.82948 16.9154 8.81572C16.7986 8.79988 16.696 8.83421 16.6243 8.91388C16.5779 8.96568 16.5503 9.0321 16.5353 9.10355L16.3307 8.8989C16.2616 8.82989 16.1498 8.82989 16.0808 8.8989C16.0118 8.96791 16.0118 9.07973 16.0808 9.14875L16.6109 9.67885Z" fill="#F5F5F5"/>
<path d="M17.0085 9.86314L16.3459 10.338C16.2666 10.3948 16.2483 10.5053 16.3052 10.5846C16.3397 10.6328 16.3939 10.6583 16.449 10.6583C16.4847 10.6583 16.5206 10.6476 16.5518 10.6252L17.2145 10.1503C17.2937 10.0935 17.3121 9.98309 17.2552 9.90372C17.1982 9.82429 17.0876 9.80581 17.0085 9.86314Z" fill="#F5F5F5"/>
<path d="M16.9498 10.5277C16.8942 10.5993 16.9022 10.7001 16.9653 10.762C16.9729 10.7748 17.0073 10.8424 17.0011 11.0164C16.9976 11.114 17.0739 11.1959 17.1714 11.1993C17.1736 11.1995 17.1757 11.1995 17.1778 11.1995C17.2726 11.1995 17.3509 11.1244 17.3543 11.0291C17.3672 10.6685 17.2492 10.5367 17.1978 10.4967C17.1209 10.4366 17.0097 10.4507 16.9498 10.5277Z" fill="#F5F5F5"/>
<path d="M18.4919 11.829C18.5895 11.829 18.6686 11.7499 18.6686 11.6522C18.6686 11.3915 18.6552 11.1004 18.6333 10.7976C18.8086 11.0848 18.9541 11.3495 19.0474 11.5672C19.0761 11.6343 19.1413 11.6743 19.2099 11.6743C19.2331 11.6743 19.2567 11.6699 19.2794 11.66C19.3691 11.6215 19.4106 11.5176 19.3721 11.4281C19.2103 11.0505 18.908 10.5504 18.5636 10.0341C18.4943 9.38557 18.4038 8.75004 18.3334 8.29418C18.3708 8.29799 18.4097 8.28884 18.4438 8.2667C18.4996 8.23095 18.5257 8.16885 18.522 8.10705C18.5265 8.12442 18.5314 8.14183 18.5415 8.15783C18.5427 8.15956 18.6563 8.34709 18.6059 8.59048C18.5861 8.6859 18.6476 8.77944 18.7432 8.79925C18.7552 8.80163 18.7673 8.8029 18.7791 8.8029C18.8611 8.8029 18.9347 8.74542 18.952 8.66193C19.0318 8.2759 18.8475 7.9805 18.8397 7.96806C18.7872 7.8859 18.678 7.86178 18.5956 7.91388C18.5396 7.94958 18.5131 8.01173 18.5167 8.07368C18.5122 8.05622 18.5071 8.03865 18.4968 8.02265L18.1986 7.55882C18.153 7.48803 18.0639 7.45939 17.9857 7.4898C17.9072 7.52053 17.8613 7.60213 17.8759 7.68496C17.8784 7.69887 18.0134 8.4743 18.1331 9.40892C17.9976 9.21763 17.8622 9.03061 17.7308 8.85206C17.7095 8.5847 17.688 8.33754 17.6695 8.13315C17.6792 8.13026 17.6888 8.12645 17.6982 8.12178C17.7855 8.0781 17.821 7.97197 17.7773 7.88468L17.6005 7.53129C17.5624 7.45502 17.4754 7.41703 17.3934 7.4405C17.3115 7.46431 17.2582 7.54297 17.2666 7.62788C17.2877 7.83877 17.3097 8.07221 17.3312 8.31743C17.2194 8.17012 17.116 8.03524 17.0275 7.92104C17.0448 7.90621 17.0595 7.88778 17.0704 7.86599C17.1141 7.7787 17.0787 7.67256 16.9914 7.62889L16.638 7.45217C16.5638 7.41526 16.4739 7.4346 16.4215 7.49915C16.3694 7.56369 16.3691 7.65581 16.421 7.72071C16.4305 7.73259 16.8656 8.27798 17.3861 8.98191C17.4764 10.1494 17.5365 11.3639 17.4516 11.6186C17.4361 11.6651 17.4089 11.72 17.3835 11.722C17.2767 11.7368 17.0218 11.498 16.8938 11.2421C16.82 11.0947 16.7138 11.0794 16.6571 11.0819C16.4671 11.0936 16.3931 11.3026 16.2584 11.6819C16.1619 11.9537 16.0419 12.2916 15.9072 12.4298C15.8343 12.3407 15.7399 12.0415 15.6875 11.7341C15.7121 11.8021 15.7757 11.8512 15.8522 11.8512C15.9498 11.8512 16.0289 11.7722 16.0289 11.6745C16.0289 11.411 15.8446 9.40405 15.7417 8.30418C15.8277 8.26965 15.8729 8.17357 15.8432 8.0845L15.6664 7.55435C15.638 7.46914 15.5509 7.41886 15.4622 7.43735C15.3743 7.45598 15.3143 7.53759 15.3228 7.62701C15.4429 8.8876 15.6681 11.3225 15.6751 11.6585C15.6747 11.6555 15.6741 11.6525 15.6736 11.6495C15.6599 11.5529 15.5697 11.4866 15.4737 11.4995C15.3771 11.5135 15.3101 11.6029 15.3238 11.6995C15.3754 12.0607 15.5073 12.6817 15.811 12.7829C15.8349 12.791 15.8672 12.7982 15.9051 12.7982C15.9748 12.7982 16.0632 12.7735 16.1538 12.6829C16.3462 12.4905 16.4765 12.1236 16.5914 11.8001C16.6174 11.7269 16.6481 11.6403 16.6771 11.5661C16.8392 11.8028 17.122 12.0976 17.4086 12.0745C17.5093 12.0673 17.6926 12.0131 17.7869 11.7304C17.8808 11.4485 17.8437 10.4655 17.7803 9.5243C17.9292 9.73296 18.0782 9.94665 18.2204 10.1576C18.2756 10.6868 18.315 11.217 18.315 11.6524C18.3152 11.7499 18.3943 11.829 18.4919 11.829Z" fill="#F5F5F5"/>
<path d="M19.8329 10.8995C19.7077 9.96698 19.5334 8.88671 19.4229 8.22371C19.4728 8.236 19.5271 8.22595 19.5709 8.19228C19.6486 8.13312 19.6635 8.02211 19.6042 7.94467L19.2839 7.52496C19.2345 7.46042 19.1473 7.43767 19.0727 7.47027C18.9981 7.50287 18.9554 7.5823 18.9693 7.66253C18.9725 7.68061 19.2876 9.49461 19.4825 10.9464C19.557 11.5012 19.4483 11.9971 19.1916 12.2724C19.0266 12.4494 18.808 12.5294 18.5434 12.514C18.4463 12.5088 18.362 12.582 18.3559 12.6793C18.3498 12.7766 18.4237 12.8605 18.5212 12.8667C18.551 12.8686 18.5804 12.8694 18.6096 12.8694C18.9428 12.8694 19.232 12.7473 19.4501 12.5132C19.7831 12.1562 19.9227 11.5679 19.8329 10.8995Z" fill="#F5F5F5"/>
<path d="M17.8888 12.0643C17.8239 12.1349 17.8288 12.246 17.8976 12.3127C17.9072 12.322 17.9186 12.3403 17.9187 12.3493C17.9188 12.3543 17.9116 12.3692 17.892 12.3888C17.823 12.4578 17.823 12.5697 17.892 12.6387C17.9265 12.6732 17.9717 12.6905 18.0169 12.6905C18.0621 12.6905 18.1074 12.6732 18.1419 12.6387C18.254 12.5266 18.2745 12.4129 18.272 12.3372C18.2666 12.1741 18.1555 12.0689 18.1334 12.0494C18.0611 11.9865 17.9537 11.9941 17.8888 12.0643Z" fill="#F5F5F5"/>
<path d="M17.266 15.9396H17.0893H16.0291V15.7629C16.0291 15.6652 15.95 15.5862 15.8524 15.5862C15.7548 15.5862 15.6756 15.6652 15.6756 15.7629V15.9396H6.31018C6.66357 16.293 7.37039 16.4698 7.90054 16.4698C8.28074 16.4698 13.0233 16.4698 15.6756 16.4698V16.8232C15.6756 16.9208 15.7548 16.9999 15.8524 16.9999H17.266C17.5584 16.9999 17.7962 16.7621 17.7962 16.4697C17.7962 16.1774 17.5584 15.9396 17.266 15.9396ZM17.266 16.6464H16.029V16.4697C16.8806 16.4697 17.4427 16.4697 17.4427 16.4697L17.4109 16.3746C17.4293 16.4024 17.4427 16.4339 17.4427 16.4697C17.4427 16.5673 17.3634 16.6464 17.266 16.6464Z" fill="#F5F5F5"/>
</g>
<defs>
<clipPath id="clip0_1407_16104">
<rect width="24" height="24" fill="white"/>
</clipPath>
</defs>
</svg>
