<svg width="24" height="24" viewBox="0 0 24 24" fill="none" xmlns="http://www.w3.org/2000/svg">
<g clip-path="url(#clip0_9977_2695)">
<path d="M12 24C18.6274 24 24 18.6274 24 12C24 5.37258 18.6274 0 12 0C5.37258 0 0 5.37258 0 12C0 18.6274 5.37258 24 12 24Z" fill="#005430"/>
<path d="M4.3797 9.27193C4.42388 9.55514 4.59507 9.644 4.74391 9.63238C4.9194 9.61877 5.07332 9.4583 5.07332 9.28879V8.31694C5.07332 8.26829 5.11293 8.22858 5.16168 8.22858C5.21043 8.22858 5.25004 8.26824 5.25004 8.31694V9.29295C5.25004 9.41031 5.30803 9.51974 5.40528 9.58545C5.46464 9.62567 5.53376 9.64634 5.60338 9.64634C5.64771 9.64634 5.69224 9.63786 5.7347 9.62095L5.823 9.58566C5.83113 10.4015 5.78152 11.1184 5.7806 11.1316C5.7737 11.2289 5.84692 11.3135 5.94427 11.3204C5.94859 11.3207 5.9528 11.3209 5.95707 11.3209C6.04898 11.3209 6.12652 11.2498 6.13318 11.1568C6.13729 11.0993 6.19173 10.3141 6.17543 9.44469L6.22885 9.42336C6.27567 9.40472 6.32828 9.40696 6.37332 9.4294C6.56796 9.5264 6.80217 9.48856 6.95598 9.3348L6.98782 9.30301C7.13062 9.15996 7.17973 8.95216 7.11579 8.76046L6.96533 8.30907C7.04668 8.33355 7.13605 8.29754 7.17536 8.21919C7.21903 8.13189 7.18363 8.02576 7.09634 7.98209L6.74296 7.80537C6.67902 7.77328 6.60229 7.78313 6.54811 7.82985C6.49408 7.87682 6.47366 7.95152 6.49626 8.01931L6.78058 8.87233C6.80186 8.93617 6.78551 9.00553 6.73793 9.05317L6.70614 9.08495C6.66008 9.13101 6.5899 9.14224 6.53125 9.11324C6.41674 9.05601 6.28633 9.04529 6.164 9.07647C6.13917 8.5093 6.07808 7.94451 5.94798 7.55406C5.91715 7.46153 5.81727 7.41136 5.72439 7.44239C5.63181 7.47311 5.58179 7.57315 5.61267 7.66588C5.73998 8.0477 5.79543 8.6296 5.81513 9.2082L5.60358 9.2928V8.31679C5.60358 8.07314 5.40538 7.87499 5.16178 7.87499C4.91819 7.87499 4.71999 8.07309 4.71999 8.31679V9.1722L4.53971 8.28175C4.52052 8.18598 4.42739 8.12352 4.33151 8.14352C4.23579 8.16302 4.17394 8.25621 4.19339 8.35183L4.3797 9.27193Z" fill="#F5F5F5"/>
<path d="M4.71982 7.78683C4.81742 7.78683 4.89654 7.70782 4.89654 7.61012V7.4334C4.89654 7.33575 4.81742 7.25668 4.71982 7.25668C4.62222 7.25668 4.5431 7.3357 4.5431 7.4334V7.61012C4.5431 7.70777 4.62222 7.78683 4.71982 7.78683Z" fill="#F5F5F5"/>
<path d="M6.48686 7.61012H6.66358C6.76118 7.61012 6.8403 7.5311 6.8403 7.4334C6.8403 7.33575 6.76118 7.25668 6.66358 7.25668H6.48686C6.38926 7.25668 6.31014 7.3357 6.31014 7.4334C6.31014 7.5311 6.38926 7.61012 6.48686 7.61012Z" fill="#F5F5F5"/>
<path d="M5.33567 9.93249L4.45213 10.4626C4.3684 10.5129 4.34133 10.6214 4.39155 10.7051C4.42466 10.7603 4.48316 10.7909 4.54323 10.7909C4.57421 10.7909 4.60554 10.7828 4.63403 10.7657L5.51757 10.2355C5.60131 10.1853 5.62838 10.0768 5.57816 9.99302C5.52793 9.90934 5.41946 9.88227 5.33567 9.93249Z" fill="#F5F5F5"/>
<path d="M7.71799 10.2451L7.72216 10.2423C7.73698 10.302 7.76242 10.3598 7.80371 10.4083C7.87551 10.4929 7.98317 10.5354 8.10484 10.5253C8.27745 10.5127 8.39475 10.4339 8.47245 10.332C8.48428 10.3402 8.49672 10.3476 8.50972 10.3541C8.60524 10.4023 8.71569 10.3987 8.82086 10.3441C9.08791 10.2066 9.14545 9.88837 9.13732 9.72201C9.13255 9.62502 9.05008 9.55656 8.95334 9.55463C8.8563 9.5588 8.78074 9.64112 8.78424 9.73811C8.78434 9.74034 8.78825 9.95002 8.66008 10.0279C8.63916 9.99872 8.61438 9.93311 8.60504 9.87892C8.59011 9.78797 8.50657 9.72465 8.41669 9.73191C8.32508 9.73912 8.25429 9.81611 8.25399 9.90807C8.25388 9.93377 8.2482 10.1605 8.07315 10.1795C8.05279 10.1517 8.05244 10.0347 8.07249 9.94824C8.0894 9.8773 8.06097 9.80326 8.00094 9.76187C7.94082 9.72028 7.86155 9.72028 7.80117 9.76121L7.70255 9.82829C7.65573 8.80353 7.54782 7.60941 7.5465 7.59413C7.53772 7.49713 7.4523 7.42482 7.35455 7.43417C7.25735 7.44295 7.1857 7.52892 7.19454 7.62627C7.19606 7.64262 7.32083 9.02423 7.35932 10.0793C7.35028 10.0879 7.34099 10.0973 7.33216 10.1055C7.26228 9.92935 7.12375 9.81839 6.94536 9.80148C6.69358 9.77924 6.42079 9.95058 6.32298 10.1953C6.23868 10.4058 6.29175 10.6128 6.45806 10.7223C6.57765 10.8012 6.75812 10.826 6.98507 10.7465C6.92966 10.9411 6.82876 11.1386 6.69765 11.2912C6.58019 11.4281 6.38407 11.586 6.13311 11.5789C5.98701 11.5732 5.87479 11.5254 5.78993 11.4326C5.58533 11.2091 5.60296 10.8046 5.60311 10.8003C5.60819 10.7029 5.53364 10.62 5.43639 10.6146C5.33844 10.6042 5.25556 10.6838 5.25018 10.7813C5.24896 10.8037 5.22332 11.3353 5.52765 11.6695C5.67745 11.8343 5.87646 11.9225 6.1192 11.932C6.13103 11.9325 6.14286 11.9327 6.15474 11.9327C6.45034 11.9327 6.73715 11.7877 6.96562 11.5214C7.18052 11.2712 7.32647 10.9313 7.37024 10.6157C7.36968 11.2202 7.00538 11.902 6.5224 12.2024C6.31729 12.3297 5.99752 12.4446 5.63733 12.2671C5.1933 12.0479 5.24622 11.5404 5.24855 11.5197C5.26069 11.4228 5.19198 11.3345 5.09514 11.3224C4.99876 11.3107 4.90989 11.3788 4.89791 11.4758C4.89395 11.5074 4.80904 12.2524 5.48098 12.5839C5.65358 12.6691 5.83406 12.7114 6.01596 12.7114C6.2496 12.7114 6.48543 12.6415 6.70897 12.5024C7.29701 12.1369 7.72383 11.3428 7.72383 10.6142C7.72378 10.5003 7.7216 10.3759 7.71799 10.2451ZM6.65245 10.4272C6.62086 10.4063 6.64554 10.3396 6.65088 10.3263C6.6881 10.2331 6.80449 10.1525 6.89747 10.1525C6.90224 10.1525 6.90707 10.1526 6.91169 10.1531C6.93429 10.1552 6.99426 10.1609 7.02005 10.2943C7.0228 10.3085 7.02513 10.323 7.02696 10.3378C6.83003 10.4535 6.698 10.4571 6.65245 10.4272Z" fill="#F5F5F5"/>
<path d="M4.8091 12.0525C4.72536 12.0032 4.6172 12.0314 4.56753 12.1151C4.55941 12.1287 4.54864 12.1436 4.53768 12.157C4.53575 12.1525 4.53387 12.1477 4.53194 12.1425C4.45825 11.9459 4.51071 11.6431 4.53722 11.543C4.56215 11.4488 4.50604 11.3521 4.41189 11.3269C4.31784 11.3027 4.22111 11.3576 4.19582 11.4519C4.18297 11.4997 4.07435 11.9286 4.201 12.2665C4.28209 12.4826 4.40661 12.5372 4.49685 12.5445C4.50487 12.5452 4.51279 12.5455 4.52066 12.5455C4.71089 12.5455 4.83749 12.3538 4.87268 12.2931C4.92148 12.209 4.89289 12.1018 4.8091 12.0525Z" fill="#F5F5F5"/>
<path d="M8.06996 8.84706C8.1082 8.84706 8.14669 8.83477 8.17899 8.80928L9.06989 8.10987C9.08218 8.10022 9.09005 8.08758 9.09904 8.0757C9.22737 7.99831 9.31415 7.85896 9.31415 7.69854C9.31415 7.4549 9.11595 7.25675 8.87236 7.25675C8.62876 7.25675 8.43056 7.45485 8.43056 7.69854C8.43056 7.83489 8.49393 7.95539 8.59123 8.03649L7.96068 8.53151C7.88395 8.59173 7.8706 8.70284 7.93082 8.77947C7.96571 8.8239 8.01761 8.84706 8.06996 8.84706ZM8.87241 7.61013C8.92116 7.61013 8.96077 7.64979 8.96077 7.69849C8.96077 7.74719 8.92116 7.78685 8.87241 7.78685C8.82366 7.78685 8.78405 7.74719 8.78405 7.69849C8.78405 7.64979 8.82366 7.61013 8.87241 7.61013Z" fill="#F5F5F5"/>
<path d="M8.66328 8.67953C8.5702 8.64851 8.47051 8.69868 8.43969 8.7912C8.4208 8.84777 8.33533 9.1393 8.50855 9.31232C8.57578 9.3796 8.66409 9.41327 8.77256 9.41306C8.84502 9.41306 8.92648 9.39824 9.01666 9.36802C9.10924 9.3373 9.15926 9.23726 9.12838 9.14453C9.09751 9.05201 8.99762 9.00164 8.90479 9.03287C8.80607 9.06567 8.76433 9.06034 8.76052 9.06374C8.75011 9.03754 8.75697 8.95863 8.7751 8.90221C8.80567 8.80999 8.75565 8.71026 8.66328 8.67953Z" fill="#F5F5F5"/>
<path d="M10.6858 7.94899C10.7024 7.95382 10.719 7.95605 10.7354 7.95605C10.8119 7.95605 10.8824 7.90603 10.9049 7.82884L11.008 7.47546C11.0353 7.38177 10.9815 7.28356 10.8879 7.25629C10.794 7.22917 10.6961 7.28269 10.6688 7.37638L10.5657 7.72977C10.5383 7.82361 10.5921 7.92177 10.6858 7.94899Z" fill="#F5F5F5"/>
<path d="M9.6558 7.92832C9.68383 7.94472 9.71461 7.95249 9.74482 7.95249C9.80556 7.95249 9.86467 7.92126 9.89752 7.86504C9.94678 7.78085 9.91844 7.67243 9.8342 7.62327C9.79865 7.60256 9.80347 7.54406 9.80479 7.53248C9.81008 7.48606 9.83775 7.42944 9.88589 7.41446C9.97908 7.38552 10.0311 7.28644 10.0021 7.19326C9.97298 7.09992 9.87411 7.04828 9.78077 7.07692C9.60461 7.13176 9.47619 7.29487 9.45359 7.49231C9.43267 7.67604 9.51016 7.84311 9.6558 7.92832Z" fill="#F5F5F5"/>
<path d="M8.2539 10.7909C8.1563 10.7909 8.07719 10.8699 8.07719 10.9676C8.07719 11.0539 8.13899 11.1257 8.22074 11.1411C8.23004 11.1548 8.25385 11.2016 8.25385 11.321C8.25385 11.4186 8.33297 11.4977 8.43057 11.4977C8.52817 11.4977 8.60729 11.4187 8.60729 11.321C8.60734 10.7969 8.26833 10.7909 8.2539 10.7909Z" fill="#F5F5F5"/>
<path d="M11.2517 10.0591C11.2739 10.0628 11.296 10.0645 11.3182 10.0645C11.457 10.0645 11.5973 9.99445 11.7362 9.85551C11.8052 9.7865 11.8052 9.67468 11.7362 9.60566C11.6672 9.53665 11.5554 9.53665 11.4864 9.60566C11.3807 9.71144 11.3238 9.71368 11.3093 9.71038C11.2755 9.70555 11.245 9.66152 11.2382 9.64949C11.1938 9.56352 11.0887 9.52924 11.0022 9.5725C10.9149 9.61618 10.8795 9.72231 10.9232 9.8096C10.9341 9.83154 11.0361 10.0241 11.2517 10.0591Z" fill="#F5F5F5"/>
<path d="M14.2555 8.81735C14.2544 8.8146 14.2533 8.81201 14.2525 8.80958C14.2211 8.71782 14.121 8.6679 14.0294 8.69913C13.9367 8.72985 13.8867 8.82989 13.9176 8.92262C13.9314 8.964 14.0101 9.1718 14.2051 9.198C14.2182 9.19973 14.2311 9.20059 14.244 9.20059C14.3664 9.20059 14.4812 9.12137 14.5857 8.96466C14.6398 8.88356 14.6179 8.77383 14.5367 8.71964C14.4554 8.66561 14.3456 8.68735 14.2917 8.7687C14.2777 8.78957 14.2656 8.80546 14.2555 8.81735Z" fill="#F5F5F5"/>
<path d="M13.9086 12.0278C13.9086 11.2742 13.8755 10.5673 13.8295 9.94789C14.0804 10.383 14.3061 10.8227 14.4499 11.2063C14.4766 11.2773 14.5439 11.321 14.6154 11.321C14.636 11.321 14.657 11.3173 14.6774 11.3097C14.7688 11.2754 14.8151 11.1736 14.7808 11.0821C14.5571 10.4859 14.1551 9.77574 13.7589 9.14535C13.6623 8.19345 13.5541 7.58926 13.5523 7.57849C13.5348 7.48242 13.443 7.41752 13.3469 7.43626C13.2508 7.45367 13.1871 7.54564 13.2046 7.64161C13.206 7.64928 13.2616 7.96052 13.3282 8.48433C13.1924 8.28288 13.0663 8.10113 12.9605 7.95153L12.9691 7.95427C13.0622 7.9853 13.1618 7.93513 13.1927 7.84261C13.2236 7.74993 13.1735 7.64984 13.081 7.61912L12.5508 7.4424C12.4773 7.41757 12.3966 7.44382 12.3516 7.50664C12.3396 7.5234 12.3313 7.54178 12.3257 7.56077C12.22 7.48257 12.0843 7.41899 11.9569 7.47231C11.8799 7.50425 11.7881 7.58464 11.7881 7.7867C11.7881 7.94183 11.8472 8.10956 11.91 8.2873C12.014 8.58203 12.0792 8.79876 11.969 8.90215C11.9081 8.95923 11.8472 8.98082 11.7879 8.96583C11.6789 8.93821 11.5711 8.79308 11.4992 8.57756C11.4961 8.56822 11.4896 8.56141 11.4851 8.55303C11.5223 8.27932 11.5061 7.94955 11.4312 7.57535C11.4121 7.47957 11.3193 7.41726 11.2232 7.43676C11.1275 7.45591 11.0655 7.54894 11.0847 7.64471C11.2 8.22174 11.1654 8.69248 10.9921 8.90393C10.925 8.98574 10.8411 9.02367 10.7278 9.02367C10.692 9.02367 10.6676 9.0123 10.6433 8.98432C10.5039 8.82365 10.5044 8.30527 10.5494 7.98825C10.5566 7.93772 10.5414 7.88628 10.5078 7.84758C10.4743 7.80894 10.4256 7.7867 10.3744 7.7867C10.0704 7.7867 9.95513 8.13252 9.85336 8.43761C9.80878 8.57172 9.7256 8.82106 9.6676 8.84696C9.56066 8.84696 9.49149 8.53287 9.49089 8.31665C9.49058 8.21915 9.41162 8.14029 9.31417 8.14029C9.31417 8.14029 9.31401 8.14029 9.31386 8.14029C9.21636 8.14029 9.1374 8.2193 9.1374 8.3168C9.1374 8.72437 9.27623 9.20034 9.66755 9.20034C9.95894 9.20034 10.077 8.88281 10.1758 8.58772C10.1929 8.82238 10.2459 9.06552 10.3762 9.21568C10.4678 9.3213 10.5893 9.37701 10.7278 9.37701C10.946 9.37701 11.1318 9.29088 11.2653 9.12798C11.2896 9.09853 11.3104 9.06465 11.3309 9.03048C11.4335 9.17632 11.5594 9.27255 11.7012 9.30835C11.7428 9.31887 11.7847 9.3242 11.8261 9.3242C11.9625 9.3242 12.0958 9.26793 12.2109 9.15972C12.2348 9.13717 12.2517 9.11264 12.2699 9.08842C12.3131 9.10076 12.3569 9.10807 12.4004 9.10807C12.5436 9.10807 12.6814 9.05044 12.7669 8.99554C12.8487 8.94308 12.8724 8.83472 12.8205 8.75255C12.7684 8.67059 12.6595 8.64607 12.5772 8.69751C12.5756 8.69822 12.4576 8.76606 12.3771 8.75012C12.3773 8.55639 12.3073 8.35067 12.2433 8.16943C12.2069 8.0662 12.1695 7.96047 12.1519 7.87404C12.1664 7.88633 12.1807 7.89908 12.1934 7.91147C12.2623 7.98048 12.3742 7.98048 12.4432 7.91147C12.4546 7.90004 12.4612 7.88618 12.4688 7.87282C12.652 8.12515 13.0288 8.65541 13.4163 9.26666C13.4903 10.018 13.5552 10.9764 13.5552 12.0275C13.5552 12.1252 13.6343 12.2043 13.7319 12.2043C13.8295 12.2045 13.9086 12.1255 13.9086 12.0278Z" fill="#F5F5F5"/>
<path d="M14.0852 8.14023C14.0852 8.23788 14.1644 8.31695 14.262 8.31695C14.3596 8.31695 14.4387 8.23793 14.4387 8.14023C14.4387 7.93228 14.276 7.59631 14.2433 7.53106C14.1996 7.44392 14.0936 7.40873 14.0062 7.45204C13.9189 7.49571 13.8835 7.60185 13.9272 7.68914C13.9909 7.81665 14.0852 8.04806 14.0852 8.14023Z" fill="#F5F5F5"/>
<path d="M13.2812 12.0471C13.1945 12.0029 13.0881 12.0379 13.044 12.1249C13.025 12.162 12.9956 12.2033 12.9708 12.2298C12.9629 12.1596 12.9816 12.0193 13.0173 11.903C13.041 11.8254 13.0088 11.7415 12.9393 11.6997C12.87 11.6578 12.7807 11.6687 12.7234 11.7261L12.37 12.0795C12.301 12.1485 12.301 12.2604 12.37 12.3294C12.439 12.3984 12.5508 12.3984 12.6198 12.3294L12.6288 12.3204C12.6441 12.3913 12.6733 12.456 12.7234 12.5061C12.7897 12.5724 12.8698 12.6074 12.953 12.6074C12.9691 12.6074 12.9853 12.606 13.0016 12.6034C13.2018 12.571 13.3264 12.3503 13.3598 12.2835C13.4032 12.1963 13.368 12.091 13.2812 12.0471Z" fill="#F5F5F5"/>
<path d="M13.2127 10.6251H11.9673C11.9783 10.5812 11.9897 10.5392 12.0013 10.4994C12.498 10.3961 12.7932 10.2358 12.88 10.0219C12.91 9.94772 12.9413 9.79777 12.8135 9.62536C12.6983 9.47002 12.5357 9.40035 12.3668 9.43483C12.1157 9.48572 11.8919 9.75628 11.7314 10.1894C11.2326 10.2749 10.9133 10.4539 10.7111 10.6306C10.6394 9.90644 10.3583 9.47627 10.3446 9.45581C10.2904 9.37451 10.1806 9.35257 10.0996 9.40675C10.0184 9.46094 9.99651 9.57052 10.0505 9.65177C10.0537 9.65659 10.3743 10.1468 10.3743 10.9674C10.3743 11.774 9.73113 12.3811 9.31406 12.3811C9.11566 12.3811 9.02877 12.1452 8.99063 11.9458C9.39902 11.6596 9.75936 11.3284 9.83893 11.0102C9.94664 10.5796 9.81111 10.2623 9.72143 10.0523C9.71721 10.0426 9.71279 10.0323 9.70832 10.0216C9.71213 10.025 9.71574 10.0286 9.71934 10.0321C9.7882 10.1011 9.90013 10.1011 9.96914 10.0321C10.0381 9.96306 10.0381 9.85124 9.96914 9.78223C9.86585 9.67884 9.66526 9.51644 9.48291 9.59276C9.40587 9.6247 9.31406 9.70509 9.31406 9.90715C9.31406 9.99845 9.3522 10.0876 9.39638 10.1912C9.47595 10.3774 9.57492 10.6091 9.49601 10.9245C9.44934 11.1112 9.22011 11.3377 8.91761 11.5625C8.88516 11.5237 8.83834 11.4977 8.7839 11.4977H8.7836C8.6861 11.4978 8.60714 11.5767 8.60714 11.6742C8.60714 11.706 8.60856 11.7399 8.61059 11.7748C8.23242 12.0197 7.80449 12.2464 7.4737 12.3968C7.38493 12.4373 7.34568 12.542 7.38605 12.6308C7.41566 12.6959 7.47984 12.7344 7.54698 12.7344C7.57145 12.7344 7.59634 12.7294 7.62 12.7185C7.71933 12.6734 8.19093 12.4537 8.67539 12.1535C8.76461 12.4564 8.95367 12.7345 9.31401 12.7345C9.73793 12.7345 10.2188 12.3879 10.4963 11.8703C10.5299 11.9295 10.5684 11.9862 10.6143 12.039C11.0591 12.5519 11.9279 12.5578 11.9646 12.5578C12.0598 12.5578 12.1378 12.4825 12.1412 12.3875C12.1446 12.2923 12.0721 12.2116 11.9773 12.2049C11.9759 12.2047 11.835 12.1892 11.7567 12.0977C11.7095 12.0425 11.6906 11.9666 11.6989 11.8657C11.717 11.6479 12.4194 11.4851 13.0385 11.4755C13.1123 11.4743 13.1776 11.4275 13.2023 11.358L13.379 10.8611C13.3982 10.807 13.39 10.7468 13.3568 10.7001C13.3241 10.6531 13.2701 10.6251 13.2127 10.6251ZM12.4371 9.78131C12.4405 9.78065 12.4449 9.77959 12.4506 9.77959C12.4675 9.77959 12.4941 9.78786 12.5297 9.83585C12.5364 9.84484 12.5579 9.87551 12.5525 9.88902C12.5322 9.93904 12.4102 10.0217 12.156 10.0966C12.2678 9.87846 12.3771 9.7934 12.4371 9.78131ZM11.3699 12.1042C11.1904 12.0458 11.0075 11.9534 10.8808 11.8069C10.7416 11.6459 10.6902 11.4423 10.7239 11.1846C10.729 11.171 10.7406 11.1444 10.7608 11.1097C11.0096 11.0869 11.6744 11.185 11.7205 11.3753C11.5154 11.48 11.3644 11.6272 11.3469 11.8364C11.3381 11.9413 11.3489 12.0302 11.3699 12.1042Z" fill="#F5F5F5"/>
<path d="M15.1364 8.08432L14.9597 7.55417C14.9312 7.46895 14.8428 7.41802 14.7551 7.43732C14.667 7.45616 14.6072 7.53807 14.6162 7.62765C14.7382 8.847 14.9688 11.2249 14.9688 11.4976C14.9688 11.7425 14.5333 12.2246 13.8295 12.5765C13.7422 12.6202 13.7068 12.7263 13.7505 12.8136C13.7815 12.8756 13.8439 12.9113 13.9088 12.9113C13.9353 12.9113 13.9623 12.9052 13.9876 12.8926C14.6305 12.5712 15.3222 11.9976 15.3222 11.4976C15.3222 11.2366 15.1417 9.35801 15.0382 8.30278C15.122 8.26703 15.1657 8.17237 15.1364 8.08432Z" fill="#F5F5F5"/>
<path d="M16.6109 9.67885C16.6449 9.71288 16.6901 9.73065 16.7359 9.73065C16.7658 9.73065 16.7959 9.72308 16.8232 9.70749C16.8923 9.66814 16.9266 9.58739 16.9071 9.51026C16.8755 9.38605 16.8649 9.23071 16.8817 9.16723C16.9702 9.16997 17.0523 9.107 17.0653 9.0157C17.0791 8.91906 17.012 8.82948 16.9154 8.81572C16.7986 8.79988 16.696 8.83421 16.6243 8.91388C16.5779 8.96568 16.5503 9.0321 16.5353 9.10355L16.3307 8.8989C16.2617 8.82989 16.1498 8.82989 16.0808 8.8989C16.0118 8.96791 16.0118 9.07973 16.0808 9.14875L16.6109 9.67885Z" fill="#F5F5F5"/>
<path d="M17.0085 9.86313L16.3459 10.338C16.2666 10.3948 16.2483 10.5053 16.3052 10.5846C16.3397 10.6328 16.3939 10.6583 16.449 10.6583C16.4847 10.6583 16.5206 10.6476 16.5518 10.6252L17.2145 10.1503C17.2937 10.0935 17.3121 9.98308 17.2552 9.90371C17.1982 9.82429 17.0876 9.8058 17.0085 9.86313Z" fill="#F5F5F5"/>
<path d="M16.9498 10.5277C16.8942 10.5993 16.9022 10.7001 16.9653 10.762C16.9729 10.7748 17.0073 10.8424 17.0011 11.0164C16.9976 11.114 17.0739 11.1958 17.1714 11.1993C17.1736 11.1994 17.1757 11.1994 17.1778 11.1994C17.2726 11.1994 17.3509 11.1243 17.3543 11.0291C17.3672 10.6685 17.2492 10.5366 17.1978 10.4967C17.1209 10.4366 17.0097 10.4507 16.9498 10.5277Z" fill="#F5F5F5"/>
<path d="M18.4919 11.829C18.5895 11.829 18.6687 11.75 18.6687 11.6522C18.6687 11.3915 18.6552 11.1005 18.6334 10.7977C18.8086 11.0848 18.9541 11.3495 19.0475 11.5672C19.0761 11.6343 19.1413 11.6743 19.2099 11.6743C19.2331 11.6743 19.2567 11.6699 19.2794 11.66C19.3691 11.6215 19.4107 11.5176 19.3722 11.4281C19.2104 11.0505 18.908 10.5504 18.5637 10.0342C18.4944 9.38558 18.4038 8.75005 18.3334 8.29419C18.3709 8.298 18.4097 8.28886 18.4438 8.26672C18.4996 8.23097 18.5258 8.16886 18.522 8.10706C18.5265 8.12443 18.5314 8.14185 18.5415 8.15784C18.5428 8.15957 18.6563 8.34711 18.6059 8.5905C18.5861 8.68592 18.6476 8.77946 18.7432 8.79926C18.7553 8.80165 18.7674 8.80292 18.7792 8.80292C18.8612 8.80292 18.9347 8.74543 18.9521 8.66195C19.0318 8.27591 18.8476 7.98052 18.8397 7.96808C18.7873 7.88591 18.678 7.86179 18.5957 7.91389C18.5397 7.94959 18.5132 8.01175 18.5168 8.0737C18.5122 8.05623 18.5072 8.03866 18.4969 8.02266L18.1986 7.55883C18.1531 7.48804 18.0639 7.4594 17.9857 7.48982C17.9072 7.52054 17.8613 7.60215 17.8759 7.68497C17.8784 7.69888 18.0134 8.47431 18.1331 9.40894C17.9976 9.21765 17.8622 9.03062 17.7308 8.85207C17.7095 8.58471 17.6881 8.33756 17.6695 8.13317C17.6793 8.13027 17.6889 8.12646 17.6983 8.12179C17.7856 8.07812 17.821 7.97199 17.7773 7.88469L17.6006 7.53131C17.5624 7.45503 17.4754 7.41705 17.3934 7.44051C17.3116 7.46433 17.2582 7.54299 17.2667 7.62789C17.2878 7.83879 17.3097 8.07223 17.3312 8.31745C17.2195 8.17013 17.1161 8.03526 17.0276 7.92105C17.0448 7.90622 17.0596 7.88779 17.0704 7.86601C17.1141 7.77871 17.0787 7.67258 16.9914 7.62891L16.638 7.45219C16.5639 7.41527 16.4739 7.43462 16.4215 7.49916C16.3694 7.56371 16.3691 7.65582 16.421 7.72072C16.4306 7.7326 16.8657 8.27799 17.3861 8.98192C17.4764 10.1494 17.5365 11.364 17.4516 11.6186C17.4361 11.6651 17.409 11.72 17.3835 11.722C17.2767 11.7368 17.0218 11.498 16.8938 11.2421C16.82 11.0947 16.7139 11.0794 16.6571 11.0819C16.4672 11.0937 16.3931 11.3026 16.2584 11.682C16.1619 11.9537 16.0419 12.2916 15.9073 12.4299C15.8343 12.3407 15.74 12.0415 15.6875 11.7342C15.7121 11.8021 15.7758 11.8513 15.8522 11.8513C15.9498 11.8513 16.0289 11.7722 16.0289 11.6745C16.0289 11.411 15.8447 9.40406 15.7417 8.3042C15.8277 8.26966 15.8729 8.17359 15.8432 8.08452L15.6665 7.55436C15.6381 7.46915 15.5509 7.41888 15.4622 7.43736C15.3743 7.456 15.3144 7.5376 15.3229 7.62703C15.443 8.88762 15.6681 11.3225 15.6752 11.6585C15.6747 11.6555 15.6741 11.6526 15.6737 11.6495C15.66 11.5529 15.5698 11.4866 15.4738 11.4995C15.3771 11.5135 15.3101 11.6029 15.3239 11.6995C15.3754 12.0607 15.5073 12.6817 15.811 12.7829C15.835 12.791 15.8673 12.7982 15.9051 12.7982C15.9748 12.7982 16.0633 12.7735 16.1538 12.683C16.3463 12.4905 16.4765 12.1236 16.5914 11.8001C16.6174 11.7269 16.6482 11.6403 16.6771 11.5661C16.8392 11.8029 17.1221 12.0976 17.4086 12.0745C17.5094 12.0673 17.6926 12.0131 17.7869 11.7305C17.8808 11.4486 17.8437 10.4655 17.7804 9.52431C17.9293 9.73297 18.0783 9.94666 18.2205 10.1577C18.2756 10.6868 18.315 11.217 18.315 11.6525C18.3153 11.7499 18.3944 11.829 18.4919 11.829Z" fill="#F5F5F5"/>
<path d="M19.8329 10.8995C19.7078 9.96699 19.5334 8.88672 19.4229 8.22372C19.4728 8.23601 19.5271 8.22596 19.571 8.19229C19.6486 8.13313 19.6635 8.02212 19.6042 7.94468L19.2839 7.52497C19.2345 7.46043 19.1473 7.43768 19.0727 7.47028C18.9981 7.50288 18.9554 7.5823 18.9694 7.66254C18.9726 7.68062 19.2876 9.49462 19.4825 10.9465C19.557 11.5012 19.4483 11.9971 19.1916 12.2725C19.0266 12.4494 18.808 12.5294 18.5435 12.514C18.4463 12.5088 18.3621 12.582 18.356 12.6793C18.3499 12.7767 18.4238 12.8605 18.5212 12.8667C18.5511 12.8686 18.5805 12.8694 18.6096 12.8694C18.9428 12.8694 19.232 12.7473 19.4501 12.5133C19.7832 12.1562 19.9227 11.5679 19.8329 10.8995Z" fill="#F5F5F5"/>
<path d="M17.8888 12.0643C17.8239 12.1349 17.8289 12.246 17.8976 12.3127C17.9072 12.322 17.9186 12.3403 17.9187 12.3493C17.9188 12.3543 17.9116 12.3692 17.892 12.3888C17.823 12.4578 17.823 12.5697 17.892 12.6387C17.9265 12.6732 17.9717 12.6905 18.017 12.6905C18.0621 12.6905 18.1074 12.6732 18.1419 12.6387C18.254 12.5267 18.2746 12.413 18.272 12.3372C18.2666 12.1741 18.1555 12.0689 18.1334 12.0494C18.0611 11.9865 17.9537 11.9941 17.8888 12.0643Z" fill="#F5F5F5"/>
<path d="M17.266 15.9396H17.0893H16.029V15.7629C16.029 15.6652 15.9499 15.5862 15.8523 15.5862C15.7547 15.5862 15.6756 15.6652 15.6756 15.7629V15.9396H6.31014C6.66353 16.293 7.37035 16.4698 7.90051 16.4698C8.2807 16.4698 13.0233 16.4698 15.6756 16.4698V16.8232C15.6756 16.9208 15.7547 16.9999 15.8523 16.9999H17.266C17.5583 16.9999 17.7961 16.7621 17.7961 16.4697C17.7961 16.1774 17.5583 15.9396 17.266 15.9396ZM17.266 16.6464H16.029V16.4697C16.8806 16.4697 17.4426 16.4697 17.4426 16.4697L17.4109 16.3746C17.4293 16.4024 17.4426 16.4339 17.4426 16.4697C17.4426 16.5673 17.3634 16.6464 17.266 16.6464Z" fill="#F5F5F5"/>
</g>
<defs>
<clipPath id="clip0_9977_2695">
<rect width="24" height="24" fill="white"/>
</clipPath>
</defs>
</svg>
