<svg width="24" height="24" viewBox="0 0 24 24" fill="none" xmlns="http://www.w3.org/2000/svg">
<g clip-path="url(#clip0_1407_16108)">
<path d="M12 24C18.6274 24 24 18.6274 24 12C24 5.37258 18.6274 0 12 0C5.37258 0 0 5.37258 0 12C0 18.6274 5.37258 24 12 24Z" fill="#F0F0F0"/>
<path d="M20.1003 3.14705C17.9656 1.19273 15.1222 0 11.9999 0C11.4888 0 10.9851 0.0322031 10.4908 0.0942187L4.69556 6.78263L0.379639 15.0061C0.658451 16.0871 1.08473 17.1087 1.63472 18.0491L11.9999 12L20.1003 3.14705Z" fill="#FFDA44"/>
<path d="M21.9905 18.6487L5.20142 21.8887C7.13403 23.22 9.47581 24 12 24C16.1682 24 19.8394 21.8746 21.9905 18.6487Z" fill="#6DA544"/>
<path d="M20.1021 3.14862L1.6416 18.0607C2.12446 18.8842 2.70257 19.6451 3.36102 20.328L23.9999 12C23.9999 8.49565 22.4976 5.34246 20.1021 3.14862Z" fill="#D80027"/>
<path d="M0 12C0 13.0382 0.131906 14.0455 0.379734 15.0062L10.4909 0.0942383C4.57584 0.836457 0 5.88377 0 12Z" fill="#0052B4"/>
</g>
<defs>
<clipPath id="clip0_1407_16108">
<rect width="24" height="24" fill="white"/>
</clipPath>
</defs>
</svg>
