<svg width="24" height="24" viewBox="0 0 24 24" fill="none" xmlns="http://www.w3.org/2000/svg">
<path fill-rule="evenodd" clip-rule="evenodd" d="M11 22C17.0751 22 22 17.0751 22 11C22 4.92487 17.0751 0 11 0C4.92487 0 0 4.92487 0 11C0 17.0751 4.92487 22 11 22ZM11 19C15.4183 19 19 15.4183 19 11C19 6.58172 15.4183 3 11 3C6.58172 3 3 6.58172 3 11C3 15.4183 6.58172 19 11 19Z" fill="#273142"/>
<path d="M18.0488 15.8871C17.5102 16.7676 16.7679 17.5099 15.8875 18.0486L21.3192 23.5357C21.9124 24.135 22.8971 24.157 23.5185 23.585C24.14 23.013 24.1629 22.0635 23.5697 21.4643L18.0488 15.8871Z" fill="#273142"/>
</svg>
