<svg width="24" height="24" viewBox="0 0 24 24" fill="none" xmlns="http://www.w3.org/2000/svg">
<path fill-rule="evenodd" clip-rule="evenodd" d="M21.6786 13.7808L23.1772 14.6375C23.5561 14.8561 23.8319 15.213 23.9444 15.6306C24.057 16.0482 23.9972 16.4926 23.778 16.867L22.1341 19.6923C22.0272 19.8773 21.8841 20.0397 21.713 20.17C21.542 20.3003 21.3464 20.396 21.1375 20.4515C20.9286 20.507 20.7106 20.5212 20.4961 20.4933C20.2815 20.4654 20.0748 20.396 19.8877 20.289L18.3705 19.4193C17.4616 20.1861 16.4288 20.8133 15.2806 21.2163V22.3692C15.2823 22.8 15.1099 23.2138 14.8015 23.5196C14.493 23.8254 14.0736 23.9982 13.6356 24H10.3472C10.1303 23.9991 9.91564 23.9562 9.71558 23.8738C9.51551 23.7913 9.33391 23.6709 9.18117 23.5194C9.02842 23.3679 8.9075 23.1884 8.82533 22.9909C8.74315 22.7935 8.70131 22.5821 8.70222 22.3687V21.2168C7.55399 20.8138 6.52074 20.1856 5.61179 19.4193L4.11128 20.2779C3.92421 20.3849 3.71742 20.4544 3.50287 20.4822C3.28833 20.5101 3.07029 20.4959 2.86138 20.4403C2.65247 20.3848 2.45684 20.2891 2.2858 20.1587C2.11476 20.0283 1.97172 19.8658 1.86495 19.6807L0.220975 16.8564C0.00257569 16.482 -0.0568223 16.0381 0.0556865 15.6209C0.168195 15.2037 0.443523 14.8471 0.821864 14.6284L2.30271 13.7832C2.06426 12.6074 2.06426 11.3969 2.30271 10.2211L0.860189 9.3958C0.481848 9.17711 0.20652 8.82044 0.0940113 8.40327C-0.0184975 7.9861 0.0409005 7.54212 0.2593 7.16777L1.90229 4.34154C2.00906 4.15648 2.15208 3.99408 2.32308 3.86373C2.49408 3.73338 2.68966 3.63766 2.89852 3.58212C3.10737 3.52658 3.32535 3.51232 3.53984 3.54016C3.75433 3.568 3.96108 3.63739 4.14813 3.74431L5.61081 4.58073C6.51976 3.81437 7.55302 3.18718 8.70125 2.78371V1.63128C8.70034 1.41794 8.74217 1.20652 8.82434 1.00909C8.90652 0.811651 9.02743 0.632067 9.18018 0.480589C9.33293 0.32911 9.51453 0.208704 9.71459 0.126244C9.91466 0.0437844 10.1293 0.000886516 10.3462 0H13.6346C14.0726 0.00179057 14.492 0.174597 14.8005 0.480418C15.109 0.786238 15.2813 1.20003 15.2796 1.6308V2.78323C16.4278 3.1867 17.4606 3.81389 18.3695 4.58024L19.8543 3.73126C20.0414 3.6242 20.2482 3.5547 20.4627 3.52678C20.6773 3.49887 20.8953 3.5131 21.1043 3.56865C21.3132 3.62419 21.5088 3.71996 21.6799 3.85039C21.8509 3.98082 21.9939 4.14332 22.1007 4.3285L23.7446 7.15279C23.9631 7.52717 24.0225 7.97124 23.9099 8.38845C23.7973 8.80566 23.5218 9.1623 23.1433 9.38082L21.6786 10.2192C21.9171 11.3948 21.9171 12.6052 21.6786 13.7808ZM12 16C14.2091 16 16 14.2091 16 12C16 9.79086 14.2091 8 12 8C9.79086 8 8 9.79086 8 12C8 14.2091 9.79086 16 12 16Z" fill="#273142"/>
</svg>
