<svg width="24" height="24" viewBox="0 0 24 24" fill="none" xmlns="http://www.w3.org/2000/svg">
<g clip-path="url(#clip0_1407_16110)">
<path d="M12 24C18.6274 24 24 18.6274 24 12C24 5.37258 18.6274 0 12 0C5.37258 0 0 5.37258 0 12C0 18.6274 5.37258 24 12 24Z" fill="#F0F0F0"/>
<path d="M0 12C0 5.37263 5.37262 0 12 0C18.6274 0 24 5.37263 24 12" fill="#D80027"/>
<path d="M7.30426 6.26083C7.30426 4.51248 8.533 3.05195 10.1738 2.69359C9.92162 2.63856 9.66001 2.6087 9.39119 2.6087C7.37411 2.6087 5.73901 4.2438 5.73901 6.26088C5.73901 8.27795 7.37411 9.91305 9.39119 9.91305C9.65992 9.91305 9.92158 9.88319 10.1738 9.82811C8.533 9.46975 7.30426 8.00922 7.30426 6.26083Z" fill="#F0F0F0"/>
<path d="M12 2.86957L12.259 3.66668H13.0972L12.4191 4.15938L12.6781 4.95649L12 4.46388L11.3219 4.95649L11.5809 4.15938L10.9028 3.66668H11.741L12 2.86957Z" fill="#F0F0F0"/>
<path d="M9.96663 4.43475L10.2256 5.23191H11.0638L10.3857 5.72457L10.6447 6.52168L9.96663 6.02907L9.28845 6.52168L9.54753 5.72457L8.86938 5.23191H9.70756L9.96663 4.43475Z" fill="#F0F0F0"/>
<path d="M14.0332 4.43475L14.2923 5.23191H15.1304L14.4523 5.72457L14.7113 6.52168L14.0332 6.02907L13.3551 6.52168L13.6141 5.72457L12.936 5.23191H13.7742L14.0332 4.43475Z" fill="#F0F0F0"/>
<path d="M13.2505 6.78259L13.5095 7.57975H14.3476L13.6695 8.0724L13.9286 8.86951L13.2505 8.3769L12.5724 8.86951L12.8314 8.0724L12.1533 7.57975H12.9914L13.2505 6.78259Z" fill="#F0F0F0"/>
<path d="M10.7493 6.78259L11.0083 7.57975H11.8465L11.1684 8.0724L11.4274 8.86951L10.7493 8.3769L10.0712 8.86951L10.3302 8.0724L9.6521 7.57975H10.4903L10.7493 6.78259Z" fill="#F0F0F0"/>
</g>
<defs>
<clipPath id="clip0_1407_16110">
<rect width="24" height="24" fill="white"/>
</clipPath>
</defs>
</svg>
