<svg width="24" height="24" viewBox="0 0 24 24" fill="none" xmlns="http://www.w3.org/2000/svg">
<path fill-rule="evenodd" clip-rule="evenodd" d="M4.01649 5H6.09733C6.60791 2.15588 9.05622 0 11.9995 0C14.9428 0 17.3911 2.15588 17.9017 5H19.9835C21.5669 5 22.8777 6.23062 22.9775 7.8109L23.1424 10.4219C21.6243 9.0037 19.6147 8.10486 17.397 8.0086C17.3487 8.00292 17.2995 8 17.2496 8C17.2269 8 17.2043 8.00061 17.1819 8.0018C17.1214 8.0006 17.0608 8 17 8C12.0294 8 8 12.0294 8 17C8 19.8273 9.30367 22.35 11.3427 24H3.19544C1.46419 24 0.0922759 22.5387 0.2014 20.8109L1.02245 7.8109C1.12226 6.23062 2.43306 5 4.01649 5ZM15.3335 5H8.66553C9.12257 3.53041 10.4675 2.5 11.9995 2.5C13.5316 2.5 14.8765 3.53041 15.3335 5ZM6.74965 8C6.0593 8 5.49965 8.55964 5.49965 9.25C5.49965 9.94036 6.0593 10.5 6.74965 10.5C7.44001 10.5 7.99965 9.94036 7.99965 9.25C7.99965 8.55964 7.44001 8 6.74965 8Z" fill="#273142"/>
<path fill-rule="evenodd" clip-rule="evenodd" d="M24 17C24 20.866 20.866 24 17 24C13.134 24 10 20.866 10 17C10 13.134 13.134 10 17 10C20.866 10 24 13.134 24 17ZM14.0795 13C14.4571 13 14.7664 13.293 14.7922 13.6641C15.4249 13.2446 16.1846 13 17 13C19.2091 13 21 14.7909 21 17C21 19.2091 19.2091 21 17 21C14.7909 21 13 19.2091 13 17C13 16.6054 13.3199 16.2856 13.7144 16.2856C14.109 16.2856 14.4289 16.6054 14.4289 17C14.4289 18.42 15.58 19.5711 17 19.5711C18.42 19.5711 19.5711 18.42 19.5711 17C19.5711 15.58 18.42 14.4289 17 14.4289C16.492 14.4289 16.0195 14.5756 15.6212 14.8294L15.65 14.8339C16.0399 14.8948 16.3065 15.2602 16.2456 15.65C16.1847 16.0399 15.8193 16.3065 15.4295 16.2456L13.9692 16.0175C13.6214 15.9631 13.3651 15.6636 13.3651 15.3116V13.7144C13.3651 13.3199 13.6849 13 14.0795 13Z" fill="#273142"/>
</svg>
