<svg width="24" height="24" viewBox="0 0 24 24" fill="none" xmlns="http://www.w3.org/2000/svg">
<path d="M17.4095 5.08835L17.4834 5.5H17.9017H19.9835C21.303 5.5 22.3953 6.52552 22.4785 7.84242L22.5708 9.30402C21.1159 8.24912 19.3495 7.5963 17.4358 7.50983C17.3744 7.50332 17.3123 7.5 17.2496 7.5C17.2246 7.5 17.1996 7.50053 17.1748 7.50158C17.1167 7.50053 17.0584 7.5 17 7.5C11.7533 7.5 7.5 11.7533 7.5 17C7.5 19.5146 8.47737 21.8011 10.0718 23.5H3.19544C1.75273 23.5 0.609469 22.2823 0.700406 20.8424L1.52146 7.84242C1.60463 6.52552 2.69696 5.5 4.01649 5.5H6.09732H6.51555L6.58945 5.08835C7.0591 2.47221 9.30856 0.5 11.9995 0.5C14.6904 0.5 16.9399 2.47221 17.4095 5.08835ZM15.3335 5.5H16.0126L15.8109 4.85152C15.2918 3.18223 13.7601 2 11.9995 2C10.2388 2 8.70721 3.18223 8.18807 4.85152L7.98639 5.5H8.66551H15.3335ZM6.74965 7.5C5.78316 7.5 4.99965 8.2835 4.99965 9.25C4.99965 10.2165 5.78316 11 6.74965 11C7.71615 11 8.49965 10.2165 8.49965 9.25C8.49965 8.2835 7.71615 7.5 6.74965 7.5ZM23.5 17C23.5 20.5899 20.5899 23.5 17 23.5C13.4101 23.5 10.5 20.5899 10.5 17C10.5 13.4101 13.4101 10.5 17 10.5C20.5899 10.5 23.5 13.4101 23.5 17ZM15.7678 13.4749C15.1347 12.8417 14.1081 12.8417 13.475 13.4749C12.8418 14.108 12.8418 15.1346 13.475 15.7678L14.7071 16.9999L13.4749 18.2322C12.8417 18.8654 12.8417 19.892 13.4749 20.5251C14.108 21.1583 15.1346 21.1583 15.7677 20.5251L17 19.2928L18.2323 20.5251C18.8654 21.1583 19.892 21.1583 20.5251 20.5251C21.1583 19.892 21.1583 18.8654 20.5251 18.2322L19.2929 16.9999L20.525 15.7678C21.1582 15.1346 21.1582 14.108 20.525 13.4749C19.8919 12.8417 18.8653 12.8417 18.2322 13.4749L17 14.7071L15.7678 13.4749Z" fill="#273142" stroke="#273142"/>
</svg>
