<svg width="24" height="24" viewBox="0 0 24 24" fill="none" xmlns="http://www.w3.org/2000/svg">
<g clip-path="url(#clip0_1407_16124)">
<path d="M12 24C18.6274 24 24 18.6274 24 12C24 5.37258 18.6274 0 12 0C5.37258 0 0 5.37258 0 12C0 18.6274 5.37258 24 12 24Z" fill="#F0F0F0"/>
<path d="M23.2536 7.82613H10.4348V4.69568H4.17389V7.82613H0.746391C0.264047 9.12607 0 10.5322 0 12C0 13.4679 0.264047 14.8739 0.746391 16.1739L12 17.2174L23.2536 16.1739C23.736 14.8739 24 13.4679 24 12C24 10.5322 23.736 9.12607 23.2536 7.82613Z" fill="#0052B4"/>
<path d="M11.9999 24C17.1595 24 21.558 20.7435 23.2536 16.1739H0.746338C2.44185 20.7435 6.84037 24 11.9999 24Z" fill="#D80027"/>
<path d="M4.17395 7.8261V8.86954C4.17395 11.2658 7.3044 12 7.3044 12C7.3044 12 10.4349 11.2658 10.4349 8.86954V7.8261L9.39137 8.86959L7.3044 7.30438L5.21743 8.86959L4.17395 7.8261Z" fill="#F0F0F0"/>
</g>
<defs>
<clipPath id="clip0_1407_16124">
<rect width="24" height="24" fill="white"/>
</clipPath>
</defs>
</svg>
