<svg width="24" height="24" viewBox="0 0 24 24" fill="none" xmlns="http://www.w3.org/2000/svg">
<g clip-path="url(#clip0_1407_16123)">
<path d="M12 24C18.6274 24 24 18.6274 24 12C24 5.37258 18.6274 0 12 0C5.37258 0 0 5.37258 0 12C0 18.6274 5.37258 24 12 24Z" fill="#F0F0F0"/>
<path d="M12 24C18.6274 24 24 18.6274 24 12C24 10.5322 23.736 9.12605 23.2536 7.82611H0.746391C0.264047 9.12605 0 10.5322 0 12C0 18.6274 5.37262 24 12 24Z" fill="#0052B4"/>
<path d="M11.9999 24C17.1595 24 21.558 20.7435 23.2536 16.1739H0.746338C2.44185 20.7435 6.84037 24 11.9999 24Z" fill="#D80027"/>
<path d="M3.10303 6.78265V12.7689C3.10303 16.1741 7.55151 17.2175 7.55151 17.2175C7.55151 17.2175 11.9999 16.1741 11.9999 12.7689V6.78265H3.10303Z" fill="#F0F0F0"/>
<path d="M4.14648 6.78265V12.7689C4.14648 13.1686 4.23527 13.5462 4.41114 13.9001H10.6918C10.8677 13.5462 10.9564 13.1686 10.9564 12.7689V6.78265H4.14648Z" fill="#D80027"/>
<path d="M9.63849 10.9565H8.07333V9.91303H9.11682V8.86955H8.07333V7.82611H7.02985V8.86955H5.98641V9.91303H7.02985V10.9565H5.4646V12H7.02985V13.0435H8.07333V12H9.63849V10.9565Z" fill="#F0F0F0"/>
<path d="M5.83452 15.3567C6.50694 15.7793 7.19779 16.0247 7.55146 16.1338C7.90513 16.0247 8.59597 15.7793 9.2684 15.3567C9.94649 14.9306 10.4218 14.4431 10.6918 13.9001C10.3941 13.6895 10.0308 13.5653 9.63843 13.5653C9.49555 13.5653 9.35675 13.5822 9.2233 13.6133C8.9405 12.9707 8.29855 12.5218 7.55151 12.5218C6.80446 12.5218 6.16246 12.9707 5.87971 13.6133C5.74625 13.5822 5.60741 13.5653 5.46458 13.5653C5.07219 13.5653 4.70896 13.6895 4.41125 13.9001C4.68102 14.4431 5.15638 14.9305 5.83452 15.3567Z" fill="#0052B4"/>
</g>
<defs>
<clipPath id="clip0_1407_16123">
<rect width="24" height="24" fill="white"/>
</clipPath>
</defs>
</svg>
