<svg width="24" height="24" viewBox="0 0 24 24" fill="none" xmlns="http://www.w3.org/2000/svg">
<g clip-path="url(#clip0_9977_2843)">
<path d="M12 24C18.6274 24 24 18.6274 24 12C24 5.37258 18.6274 0 12 0C5.37258 0 0 5.37258 0 12C0 18.6274 5.37258 24 12 24Z" fill="#F0F0F0"/>
<path d="M12 24C18.6274 24 24 18.6274 24 12C24 10.5322 23.736 9.12605 23.2536 7.82611H0.746391C0.264047 9.12605 0 10.5322 0 12C0 18.6274 5.37262 24 12 24Z" fill="#0052B4"/>
<path d="M12 24C17.1596 24 21.5581 20.7435 23.2536 16.1739H0.746391C2.44191 20.7435 6.84042 24 12 24Z" fill="#D80027"/>
<path d="M3.10303 6.78262V12.7688C3.10303 16.174 7.55152 17.2174 7.55152 17.2174C7.55152 17.2174 12 16.174 12 12.7688V6.78262H3.10303Z" fill="#F0F0F0"/>
<path d="M4.14651 6.78262V12.7688C4.14651 13.1686 4.2353 13.5461 4.41117 13.9001H10.6918C10.8677 13.5462 10.9565 13.1686 10.9565 12.7688V6.78262H4.14651Z" fill="#D80027"/>
<path d="M9.63844 10.9565H8.07328V9.91303H9.11676V8.86955H8.07328V7.82611H7.0298V8.86955H5.98636V9.91303H7.0298V10.9565H5.46455V12H7.0298V13.0435H8.07328V12H9.63844V10.9565Z" fill="#F0F0F0"/>
<path d="M5.83458 15.3567C6.507 15.7793 7.19784 16.0246 7.55152 16.1338C7.90519 16.0247 8.59603 15.7793 9.26845 15.3567C9.94655 14.9305 10.4219 14.4431 10.6918 13.9001C10.3941 13.6895 10.0309 13.5653 9.63848 13.5653C9.49561 13.5653 9.35681 13.5822 9.22336 13.6132C8.94056 12.9707 8.29861 12.5218 7.55156 12.5218C6.80452 12.5218 6.16252 12.9707 5.87977 13.6132C5.74631 13.5822 5.60747 13.5653 5.46464 13.5653C5.07225 13.5653 4.70902 13.6895 4.41131 13.9001C4.68108 14.4431 5.15644 14.9305 5.83458 15.3567Z" fill="#0052B4"/>
</g>
<defs>
<clipPath id="clip0_9977_2843">
<rect width="24" height="24" fill="white"/>
</clipPath>
</defs>
</svg>
