<svg width="24" height="24" viewBox="0 0 24 24" fill="none" xmlns="http://www.w3.org/2000/svg">
<path fill-rule="evenodd" clip-rule="evenodd" d="M18 3.5C18.8284 3.5 19.5 4.17157 19.5 5V18.5911L21.3851 16.4966C21.9393 15.8808 22.8877 15.8309 23.5035 16.3851C24.1192 16.9392 24.1691 17.8877 23.615 18.5034L19.115 23.5034C18.8305 23.8195 18.4252 24 18 24C17.5748 24 17.1695 23.8195 16.8851 23.5034L12.3851 18.5034C11.8309 17.8877 11.8808 16.9392 12.4966 16.3851C13.1123 15.8309 14.0608 15.8808 14.615 16.4966L16.5 18.5911V5C16.5 4.17157 17.1716 3.5 18 3.5Z" fill="#273142"/>
<path fill-rule="evenodd" clip-rule="evenodd" d="M5.99998 20.5C5.17156 20.5 4.49998 19.8284 4.49998 19L4.49999 5.40894L2.61493 7.50345C2.06074 8.11921 1.1123 8.16913 0.496537 7.61494C-0.119228 7.06075 -0.169145 6.11232 0.385044 5.49655L4.88504 0.496554C5.16951 0.180483 5.57476 5.61712e-07 5.99999 5.24538e-07C6.42522 4.87363e-07 6.83046 0.180483 7.11493 0.496554L11.6149 5.49655C12.1691 6.11232 12.1192 7.06075 11.5034 7.61494C10.8877 8.16913 9.93923 8.11921 9.38504 7.50345L7.49999 5.40894L7.49998 19C7.49998 19.8284 6.82841 20.5 5.99998 20.5Z" fill="#273142"/>
</svg>
