<svg width="24" height="24" viewBox="0 0 24 24" fill="none" xmlns="http://www.w3.org/2000/svg">
<g clip-path="url(#clip0_1407_16147)">
<path d="M12 24C18.6274 24 24 18.6274 24 12C24 5.37258 18.6274 0 12 0C5.37258 0 0 5.37258 0 12C0 18.6274 5.37258 24 12 24Z" fill="#F0F0F0"/>
<path d="M23.2536 7.82611H0.746344C0.264047 9.12614 0 10.5322 0 12C0 13.4678 0.264047 14.874 0.746344 16.1739H23.2536C23.736 14.874 24 13.4678 24 12C24 10.5322 23.736 9.12614 23.2536 7.82611Z" fill="#A2001D"/>
<path d="M12.0348 24C16.1449 24 19.7719 21.9332 21.9346 18.7827H2.13501C4.29773 21.9332 7.92463 24 12.0348 24Z" fill="#6DA544"/>
<path d="M12.0348 0.00012207C16.1449 0.00012207 19.7719 2.06693 21.9346 5.2175H2.13501C4.29773 2.06693 7.92463 0.00012207 12.0348 0.00012207Z" fill="#6DA544"/>
<path d="M12 7.82611L13.036 11.0145H16.3888L13.6764 12.9854L14.7125 16.1739L12 14.2033L9.28763 16.1739L10.3238 12.9854L7.61133 11.0145H10.9641L12 7.82611Z" fill="#FFDA44"/>
</g>
<defs>
<clipPath id="clip0_1407_16147">
<rect width="24" height="24" fill="white"/>
</clipPath>
</defs>
</svg>
