<svg width="24" height="24" viewBox="0 0 24 24" fill="none" xmlns="http://www.w3.org/2000/svg">
<path fill-rule="evenodd" clip-rule="evenodd" d="M20 12C20.4777 12.4275 21.0931 12.7042 21.7715 12.7552L21.9999 12.7638L22 21C22 22.1046 21.1046 23 20 23H4C2.89543 23 2 22.1046 2 21L1.9999 12.7638C2.76868 12.7638 3.46992 12.4746 4 12C4.28856 12.2582 4.6274 12.4615 5.00003 12.5931L5 18H19L19.0013 12.5927C19.3736 12.4609 19.7121 12.2578 20 12ZM19.5 1C20.4443 1 21.3334 1.44458 21.9 2.2L23.4 4.2C23.7895 4.71929 24 5.35089 24 6V9C24 10.1046 23.1046 11 22 11C20.8954 11 20 10.1046 20 9C20 10.1046 19.1046 11 18 11C16.8954 11 16 10.1046 16 9C16 10.1046 15.1046 11 14 11C12.8954 11 12 10.1046 12 9C12 10.1046 11.1046 11 10 11C8.89543 11 8 10.1046 8 9C8 10.1046 7.10457 11 6 11C4.89543 11 4 10.1046 4 9C4 10.1046 3.10457 11 2 11C0.895431 11 0 10.1046 0 9V6C0 5.35089 0.210534 4.71929 0.6 4.2L2.1 2.2C2.66656 1.44458 3.55573 1 4.5 1H19.5Z" fill="#273142"/>
</svg>
