<svg width="24" height="24" viewBox="0 0 24 24" fill="none" xmlns="http://www.w3.org/2000/svg">
<path d="M2 0.916667C2 0.410413 2.40705 0 2.90909 0H21.0909C21.593 0 22 0.410413 22 0.916667V2.75C22 3.25625 21.593 3.66667 21.0909 3.66667H2.90909C2.40705 3.66667 2 3.25625 2 2.75V0.916667Z" fill="#273142"/>
<path d="M3.66681 4.99912H10.1818V7.42418C10.1818 7.76491 10.5374 7.9865 10.8397 7.83412L11.7967 7.35161C11.8859 7.30663 11.9862 7.29301 12.0821 7.31075C12.1238 7.31844 12.1647 7.33206 12.2033 7.35161L13.1603 7.83412C13.4626 7.9865 13.8182 7.76491 13.8182 7.42418V4.99912H20.3332L21.5237 8.42777C21.8393 9.46956 22 10.5528 22 11.6422V12.444C21.0162 12.4187 20.0331 12.7233 19.2222 13.3043C18.8271 13.5872 18.495 13.8383 18.1905 14.0687C17.5875 12.3679 14.9178 11.5155 13.6584 11.3019C12.564 11.1532 11.2303 10.972 9.93218 11.0025C8.12129 11.0439 6.58011 11.3405 5.09731 11.985C4.25922 11.4236 3.22408 11.1545 2.21254 11.1545C2.14482 11.1545 2.07747 11.1561 2.01053 11.1592C2.05094 10.2332 2.20738 9.31543 2.4763 8.42777L3.66681 4.99912Z" fill="#273142"/>
<path d="M4.25825 22.4827C4.04066 23.3925 3.18809 23.9991 1.92685 23.9991C0.862682 23.9991 0 23.1234 0 22.0432V15.1198C0 14.0396 0.862682 13.164 1.92685 13.164C3.21126 13.164 4.07185 13.7942 4.26959 14.7323L4.30188 14.7107C6.04364 13.547 7.68478 13.0549 9.92762 13.0023C11.4213 12.966 12.8658 13.248 14.3295 13.4247C15.4052 13.5543 16.286 14.4201 16.286 15.4814C16.286 16.4175 15.5979 17.2175 14.6545 17.3697C13.276 17.592 11.4733 17.8721 11.1375 17.8721C11.4864 17.8852 14.6101 18.072 14.958 18.0639C17.296 18.009 19.063 16.2888 20.846 14.9747C21.698 14.3458 22.8126 14.3709 23.5649 15.1114C24.4 15.9316 23.9577 17.4359 22.8777 18.4991C21.1322 20.2175 19.8153 21.5956 17.4943 22.479C14.1451 23.7546 11.036 23.1535 7.64957 22.4988C6.52338 22.2814 5.39065 22.4264 4.25825 22.4827Z" fill="#273142"/>
</svg>
