<svg width="12" height="12" viewBox="0 0 12 12" fill="none" xmlns="http://www.w3.org/2000/svg">
<path d="M7.87823 2.06114C7.78162 2.15775 7.72735 2.28879 7.72735 2.42541V3.54411L5.30245 5.96901C5.10127 6.17019 5.10127 6.49637 5.30245 6.69755C5.50363 6.89873 5.82981 6.89873 6.03099 6.69755L8.45589 4.27265H9.57459C9.71122 4.27265 9.84225 4.21838 9.93886 4.12177L11.924 2.13659C12.0863 1.97432 11.9714 1.69687 11.7419 1.69687H10.3031V0.258095C10.3031 0.0286172 10.0257 -0.086306 9.86341 0.0759592L7.87823 2.06114Z" fill="#8C4EFF"/>
<path d="M6.69701 3.14626V3.24234L5.66669 4.27265C4.52865 4.27267 3.6061 5.19524 3.6061 6.33328C3.6061 7.47133 4.52867 8.39391 5.66672 8.39391C6.80477 8.39391 7.72735 7.47133 7.72735 6.33328L8.75757 5.30301H8.85375C8.9586 5.62757 9.01524 5.97381 9.01524 6.33328C9.01524 8.18261 7.51606 9.6818 5.66672 9.6818C3.81739 9.6818 2.3182 8.18261 2.3182 6.33328C2.3182 4.48394 3.81739 2.98476 5.66672 2.98476C6.0262 2.98476 6.37244 3.04141 6.69701 3.14626Z" fill="#8C4EFF"/>
<path d="M6.73483 2.08565C6.39296 1.99995 6.03516 1.95445 5.66672 1.95445C3.24836 1.95445 1.28789 3.91492 1.28789 6.33328C1.28789 8.75164 3.24836 10.7121 5.66672 10.7121C8.08508 10.7121 10.0456 8.75164 10.0456 6.33328C10.0456 5.96485 10.0001 5.60705 9.91436 5.26519C10.1973 5.20142 10.459 5.0587 10.6674 4.85035L11.0271 4.49062C11.2257 5.06831 11.3334 5.68821 11.3334 6.33328C11.3334 9.46292 8.79636 12 5.66672 12C2.53708 12 0 9.46292 0 6.33328C0 3.20364 2.53708 0.666559 5.66672 0.666559C6.3118 0.666559 6.93171 0.774348 7.50941 0.972898L7.14967 1.33264C6.94132 1.54099 6.79861 1.8027 6.73483 2.08565Z" fill="#8C4EFF"/>
</svg>
