<svg width="24" height="24" viewBox="0 0 24 24" fill="none" xmlns="http://www.w3.org/2000/svg">
<g clip-path="url(#clip0_1407_16167)">
<path d="M12 24C18.6274 24 24 18.6274 24 12C24 5.37258 18.6274 0 12 0C5.37258 0 0 5.37258 0 12C0 18.6274 5.37258 24 12 24Z" fill="#FFDA44"/>
<path d="M12 0C11.9913 9.375e-05 11.4783 4.8 11.4783 4.8H21.6006C19.4113 1.88545 15.9259 0 12 0Z" fill="#496E2D"/>
<path d="M11.9999 24C15.9258 24 19.4112 22.1146 21.6004 19.2H2.39941C4.58866 22.1146 8.07405 24 11.9999 24Z" fill="#496E2D"/>
<path d="M23.7597 9.59998H11.4783L12 14.4H23.7597C23.9172 13.6245 24 12.8219 24 12C24 11.178 23.9171 10.3754 23.7597 9.59998Z" fill="#496E2D"/>
<path d="M12 14.4C12 11.8957 12 2.81737 12 0C5.37262 0 0 5.37262 0 12C0 12.822 0.082875 13.6245 0.240281 14.4H12Z" fill="#D80027"/>
<path d="M6.6213 5.73914L7.3983 8.13046H9.91291L7.87868 9.60857L8.65558 12L6.6213 10.522L4.58702 12L5.36407 9.60857L3.32983 8.13046H5.84435L6.6213 5.73914Z" fill="#F0F0F0"/>
</g>
<defs>
<clipPath id="clip0_1407_16167">
<rect width="24" height="24" fill="white"/>
</clipPath>
</defs>
</svg>
