<svg width="24" height="24" viewBox="0 0 24 24" fill="none" xmlns="http://www.w3.org/2000/svg">
<g clip-path="url(#clip0_1407_16165)">
<path d="M12 24C18.6274 24 24 18.6274 24 12C24 5.37258 18.6274 0 12 0C5.37258 0 0 5.37258 0 12C0 18.6274 5.37258 24 12 24Z" fill="#F0F0F0"/>
<path d="M23.2536 7.82611H0.746391C0.264 9.1261 0 10.5322 0 12C0 13.4678 0.264 14.8739 0.746391 16.1739H23.2537C23.736 14.8739 24 13.4678 24 12C24 10.5322 23.736 9.1261 23.2536 7.82611Z" fill="#0052B4"/>
<path d="M12.0001 0C8.36297 0 5.10408 1.61831 2.90344 4.17389H21.0966C18.896 1.61831 15.6371 0 12.0001 0Z" fill="#D80027"/>
<path d="M21.0967 19.8261H2.90344C5.10408 22.3817 8.36297 24 12.0001 24C15.6371 24 18.896 22.3817 21.0967 19.8261Z" fill="#D80027"/>
</g>
<defs>
<clipPath id="clip0_1407_16165">
<rect width="24" height="24" fill="white"/>
</clipPath>
</defs>
</svg>
