<svg width="24" height="24" viewBox="0 0 24 24" fill="none" xmlns="http://www.w3.org/2000/svg">
<g clip-path="url(#clip0_1407_16163)">
<path d="M1.19072 6.78262C0.427875 8.36025 0 10.1302 0 12C0 13.8698 0.427875 15.6397 1.19072 17.2174L12 18.2609L22.8093 17.2174C23.5721 15.6397 24 13.8698 24 12C24 10.1302 23.5721 8.36025 22.8093 6.78262L12 5.73914L1.19072 6.78262Z" fill="#F0F0F0"/>
<path d="M1.19116 17.2173C3.13212 21.2313 7.24254 24 12 24C16.7575 24 20.868 21.2313 22.8089 17.2173H1.19116Z" fill="#6DA544"/>
<path d="M1.19116 6.78263H22.8089C20.868 2.76872 16.7575 0 12 0C7.24254 0 3.13212 2.76872 1.19116 6.78263Z" fill="#D80027"/>
<path d="M9.91296 15.1305H14.0869V13.3565L13.2521 13.7739L11.9999 12.5217L10.7478 13.7739L9.91296 13.3565V15.1305Z" fill="#FFDA44"/>
<path d="M7.52492 13.0435L7.71921 13.6413H8.34781L7.83921 14.0108L8.03351 14.6087L7.52492 14.2392L7.01632 14.6087L7.21062 14.0108L6.70203 13.6413H7.33062L7.52492 13.0435Z" fill="#FFDA44"/>
<path d="M8.12721 10.9565L8.32151 11.5544H8.9501L8.44151 11.9239L8.63576 12.5217L8.12721 12.1523L7.61862 12.5217L7.81291 11.9239L7.30432 11.5544H7.93291L8.12721 10.9565Z" fill="#FFDA44"/>
<path d="M9.84901 9.3913L10.0433 9.98914H10.6719L10.1634 10.3587L10.3576 10.9565L9.84901 10.587L9.34047 10.9565L9.53472 10.3587L9.02612 9.98914H9.65476L9.84901 9.3913Z" fill="#FFDA44"/>
<path d="M16.475 13.0435L16.2807 13.6413H15.6521L16.1607 14.0108L15.9664 14.6087L16.475 14.2392L16.9835 14.6087L16.7893 14.0108L17.2979 13.6413H16.6693L16.475 13.0435Z" fill="#FFDA44"/>
<path d="M15.8727 10.9565L15.6784 11.5544H15.0498L15.5584 11.9239L15.3641 12.5217L15.8727 12.1523L16.3813 12.5217L16.187 11.9239L16.6956 11.5544H16.067L15.8727 10.9565Z" fill="#FFDA44"/>
<path d="M14.151 9.3913L13.9567 9.98914H13.3281L13.8366 10.3587L13.6424 10.9565L14.151 10.587L14.6595 10.9565L14.4653 10.3587L14.9738 9.98914H14.3452L14.151 9.3913Z" fill="#FFDA44"/>
<path d="M12 8.60864L12.1943 9.20649H12.8229L12.3143 9.576L12.5086 10.1738L12 9.80438L11.4914 10.1738L11.6857 9.576L11.1771 9.20649H11.8057L12 8.60864Z" fill="#FFDA44"/>
</g>
<defs>
<clipPath id="clip0_1407_16163">
<rect width="24" height="24" fill="white"/>
</clipPath>
</defs>
</svg>
