<svg width="24" height="24" viewBox="0 0 24 24" fill="none" xmlns="http://www.w3.org/2000/svg">
<g clip-path="url(#clip0_1407_16168)">
<path d="M12 24C18.6274 24 24 18.6274 24 12C24 5.37258 18.6274 0 12 0C5.37258 0 0 5.37258 0 12C0 18.6274 5.37258 24 12 24Z" fill="#FFDA44"/>
<path d="M19.3043 5.73914C19.1967 6.25641 19.1478 6.80733 19.1478 7.35652C19.1478 10.5222 21.035 13.2621 23.7394 14.4955C23.9097 13.6904 24 12.8558 24 12C24 5.37262 18.6274 0 12 0C5.37262 0 0 5.37262 0 12C0 18.6274 5.37262 24 12 24C16.1101 24 19.7371 21.9332 21.8998 18.7826H6.78263V17.2174H22.8093C22.9733 16.8782 23.1215 16.53 23.2537 16.1739H6.78263L19.3043 5.73914Z" fill="#0052B4"/>
<path d="M8.81595 6.26086L9.07499 7.05802H9.91311L9.23506 7.55072L9.49409 8.34783L8.81595 7.85522L8.13791 8.34783L8.39689 7.55072L7.71875 7.05802H8.55692L8.81595 6.26086Z" fill="#F0F0F0"/>
<path d="M5.41122 12L5.73503 12.9965H6.78269L5.93504 13.6122L6.25886 14.6087L5.41122 13.9928L4.56362 14.6087L4.88739 13.6122L4.03979 12.9965H5.08745L5.41122 12Z" fill="#F0F0F0"/>
<path d="M5.41122 3.65216L5.73503 4.64868H6.78269L5.93504 5.26438L6.25886 6.26085L5.41122 5.645L4.56362 6.26085L4.88739 5.26438L4.03979 4.64868H5.08745L5.41122 3.65216Z" fill="#F0F0F0"/>
<path d="M2.80257 8.34784L3.12639 9.34435H4.174L3.3264 9.96006L3.65021 10.9565L2.80257 10.3407L1.95498 10.9565L2.27875 9.96006L1.43115 9.34435H2.47876L2.80257 8.34784Z" fill="#F0F0F0"/>
</g>
<defs>
<clipPath id="clip0_1407_16168">
<rect width="24" height="24" fill="white"/>
</clipPath>
</defs>
</svg>
