<svg width="24" height="24" viewBox="0 0 24 24" fill="none" xmlns="http://www.w3.org/2000/svg">
<g clip-path="url(#clip0_1407_16184)">
<path d="M11.9999 0C11.1039 0 10.2311 0.0990469 9.39123 0.285234L8.86951 12L9.39123 23.7147C10.2312 23.9009 11.1039 24 11.9999 24C18.6273 24 23.9999 18.6274 23.9999 12C23.9998 5.37258 18.6273 0 11.9999 0V0Z" fill="#496E2D"/>
<path d="M3.13041 3.91742C1.18584 6.05004 0 8.88645 0 12C0 15.1135 1.18589 17.9499 3.13045 20.0826L3.65217 12L3.13041 3.91742Z" fill="#496E2D"/>
<path d="M17.5509 9.0515C18.1413 7.4059 17.478 5.61617 16.0546 4.72479C16.3106 4.75812 16.5669 4.8184 16.8199 4.9091C18.7185 5.59029 19.7054 7.68148 19.0242 9.58001C18.343 11.4787 16.2518 12.4655 14.3532 11.7843C14.1002 11.6936 13.864 11.5771 13.6453 11.4401C15.3107 11.6569 16.9605 10.6971 17.5509 9.0515Z" fill="#F0F0F0"/>
<path d="M14.2764 4.27374L13.7633 4.93665L12.9745 4.65357L13.4463 5.34629L12.9333 6.0091L13.738 5.77445L14.2099 6.46707L14.2352 5.62932L15.0399 5.39462L14.251 5.11163L14.2764 4.27374Z" fill="#F0F0F0"/>
<path d="M15.6617 6.43372L15.1486 7.09658L14.3597 6.8135L14.8316 7.50622L14.3186 8.16903L15.1232 7.93428L15.5952 8.62704L15.6206 7.78925L16.4252 7.5545L15.6363 7.27147L15.6617 6.43372Z" fill="#F0F0F0"/>
<path d="M11.834 5.06042L11.3209 5.72324L10.5321 5.44025L11.004 6.13293L10.491 6.79578L11.2955 6.56108L11.7675 7.25375L11.7929 6.416L12.5975 6.1813L11.8086 5.89822L11.834 5.06042Z" fill="#F0F0F0"/>
<path d="M11.7778 7.53455L11.2648 8.19741L10.4758 7.91437L10.9478 8.60709L10.4347 9.26991L11.2394 9.03525L11.7113 9.72787L11.7366 8.89012L12.5413 8.65542L11.7523 8.37234L11.7778 7.53455Z" fill="#F0F0F0"/>
<path d="M14.1321 8.37927L13.6191 9.04208L12.8302 8.75905L13.3022 9.45177L12.7891 10.1145L13.5938 9.87988L14.0657 10.5726L14.091 9.73476L14.8957 9.5001L14.1067 9.21707L14.1321 8.37927Z" fill="#F0F0F0"/>
<path d="M3.13049 3.91737V20.0825C4.76549 21.8757 6.93721 23.1706 9.39135 23.7147V0.285217C6.93717 0.829249 4.76554 2.12417 3.13049 3.91737Z" fill="#D80027"/>
<path d="M5.51973 6.31804L4.47156 5.53719V4.43296L5.51973 3.65216H7.00215L8.05032 4.43296V5.53719L7.00215 6.31804H5.51973Z" fill="#F0F0F0"/>
<path d="M6.26096 3.65216H5.51973L4.47156 4.43296V4.97282H6.26096V3.65216Z" fill="#FF9811"/>
<path d="M6.26099 6.31802H7.00217L8.05035 5.53717V4.97388H6.26099V6.31802Z" fill="#FF9811"/>
<path d="M5.51973 20.3478L4.47156 19.5669V18.4627L5.51973 17.6819H7.00215L8.05032 18.4627V19.5669L7.00215 20.3478H5.51973Z" fill="#F0F0F0"/>
<path d="M6.26096 17.6819H5.51973L4.47156 18.4627V19.0026H6.26096V17.6819Z" fill="#FF9811"/>
<path d="M6.26099 20.3478H7.00217L8.05035 19.5669V19.0037H6.26099V20.3478Z" fill="#FF9811"/>
<path d="M5.51961 13.3329L4.47144 12.5521V11.4479L5.51961 10.6671H7.00203L8.0502 11.4479V12.5521L7.00203 13.3329H5.51961Z" fill="#496E2D"/>
<path d="M8.08694 15.0509H7.63038V14.5944H6.82811L6.26083 14.0271L5.6936 14.5944H4.89133V15.0509H4.43481V15.9639H4.89133V16.4204H5.69355L6.26088 16.9878L6.82811 16.4204H7.63038V15.9639H8.08694V15.0509Z" fill="#496E2D"/>
<path d="M8.08694 8.03599H7.63038V7.57943H6.82811L6.26083 7.01215L5.6936 7.57943H4.89133V8.03599H4.43481V8.94902H4.89133V9.40554H5.69355L6.26088 9.97291L6.82811 9.40554H7.63038V8.94902H8.08694V8.03599Z" fill="#496E2D"/>
<path d="M5.73914 11.4782H6.78262V12.5217H5.73914V11.4782Z" fill="#D80027"/>
<path d="M6.26085 9.01402C6.54899 9.01402 6.78257 8.78044 6.78257 8.4923C6.78257 8.20416 6.54899 7.97058 6.26085 7.97058C5.97272 7.97058 5.73914 8.20416 5.73914 8.4923C5.73914 8.78044 5.97272 9.01402 6.26085 9.01402Z" fill="#D80027"/>
<path d="M6.26085 16.0293C6.54899 16.0293 6.78257 15.7957 6.78257 15.5076C6.78257 15.2194 6.54899 14.9858 6.26085 14.9858C5.97272 14.9858 5.73914 15.2194 5.73914 15.5076C5.73914 15.7957 5.97272 16.0293 6.26085 16.0293Z" fill="#D80027"/>
</g>
<defs>
<clipPath id="clip0_1407_16184">
<rect width="24" height="24" fill="white"/>
</clipPath>
</defs>
</svg>
