<svg width="24" height="24" viewBox="0 0 24 24" fill="none" xmlns="http://www.w3.org/2000/svg">
<g clip-path="url(#clip0_9977_3328)">
<path d="M12 24C18.6274 24 24 18.6274 24 12C24 5.37258 18.6274 0 12 0C5.37258 0 0 5.37258 0 12C0 18.6274 5.37258 24 12 24Z" fill="#D80027"/>
<path d="M15.1653 9.97954L16.1499 11.3363L17.7445 10.8193L16.7583 12.1749L17.7428 13.5317L16.1488 13.0127L15.1627 14.3683L15.1637 12.692L13.5697 12.173L15.1643 11.656L15.1653 9.97954Z" fill="#F0F0F0"/>
<path d="M12.4782 15.5652C10.6053 15.5652 9.08692 14.0469 9.08692 12.1739C9.08692 10.301 10.6053 8.78262 12.4782 8.78262C13.0622 8.78262 13.6117 8.93033 14.0914 9.19025C13.3388 8.45422 12.3096 8 11.1739 8C8.86867 8 7 9.86872 7 12.1739C7 14.4791 8.86872 16.3478 11.1739 16.3478C12.3097 16.3478 13.3389 15.8935 14.0914 15.1575C13.6117 15.4175 13.0622 15.5652 12.4782 15.5652Z" fill="#F0F0F0"/>
</g>
<defs>
<clipPath id="clip0_9977_3328">
<rect width="24" height="24" fill="white"/>
</clipPath>
</defs>
</svg>
