<svg width="24" height="24" viewBox="0 0 24 24" fill="none" xmlns="http://www.w3.org/2000/svg">
<path fill-rule="evenodd" clip-rule="evenodd" d="M8 6.5C8 4.567 9.567 3 11.5 3C13.433 3 15 4.567 15 6.5C15 7.32843 15.6716 8 16.5 8C17.3284 8 18 7.32843 18 6.5C18 2.91015 15.0899 0 11.5 0C7.91015 0 5 2.91015 5 6.5L5 9C3.34315 9 2 10.3431 2 12L2 21C2 22.6569 3.34315 24 5 24L19 24C20.6569 24 22 22.6569 22 21L22 12C22 10.3431 20.6569 9 19 9L8 9V6.5ZM13.5 18C13.5 18.8284 12.8284 19.5 12 19.5C11.1716 19.5 10.5 18.8284 10.5 18V15C10.5 14.1716 11.1716 13.5 12 13.5C12.8284 13.5 13.5 14.1716 13.5 15V18Z" fill="#273142"/>
</svg>
