<svg width="24" height="24" viewBox="0 0 24 24" fill="none" xmlns="http://www.w3.org/2000/svg">
<path fill-rule="evenodd" clip-rule="evenodd" d="M14.6426 2.54401C13.4861 0.485328 10.5139 0.485331 9.35737 2.54401L0.390542 18.5056C-0.740057 20.5181 0.719229 23 3.03317 23H20.9668C23.2808 23 24.7401 20.5181 23.6095 18.5056L14.6426 2.54401ZM12 7C11.1716 7 10.5 7.67157 10.5 8.5V13.5C10.5 14.3284 11.1716 15 12 15C12.8284 15 13.5 14.3284 13.5 13.5V8.5C13.5 7.67157 12.8284 7 12 7ZM12 16C11.1716 16 10.5 16.6716 10.5 17.5C10.5 18.3284 11.1716 19 12 19C12.8284 19 13.5 18.3284 13.5 17.5C13.5 16.6716 12.8284 16 12 16Z" fill="#273142"/>
</svg>
