<svg width="24" height="24" viewBox="0 0 24 24" fill="none" xmlns="http://www.w3.org/2000/svg">
<g clip-path="url(#clip0_1407_16090)">
<path d="M24 12C24 18.6274 18.6274 24 12 24C5.37262 24 0 18.6274 0 12C4.12172 7.87828 7.61737 4.38263 12 0C18.6274 0 24 5.37262 24 12Z" fill="#D80027"/>
<path d="M12 12C12 5.37262 12 4.59131 12 0C5.37262 0 0 5.37262 0 12H12Z" fill="#0052B4"/>
<path d="M9.61171 7.82611L9.80601 8.424H10.4346L9.92601 8.79342L10.1203 9.39131L9.61171 9.0218L9.10312 9.39131L9.29741 8.79342L8.78882 8.424H9.41741L9.61171 7.82611Z" fill="#F0F0F0"/>
<path d="M6.45448 3.13046L6.77824 4.12698H7.82599L6.9783 4.74268L7.30216 5.73915L6.45448 5.12326L5.60684 5.73915L5.93065 4.74268L5.08301 4.12698H6.13066L6.45448 3.13046Z" fill="#F0F0F0"/>
<path d="M9.58485 4.17389L9.90861 5.17045H10.9563L10.1087 5.78615L10.4324 6.78262L9.58485 6.16673L8.73721 6.78262L9.06102 5.78615L8.21338 5.17045H9.26103L9.58485 4.17389Z" fill="#F0F0F0"/>
<path d="M7.11048 8.34784L7.43429 9.34435H8.48195L7.63431 9.96006L7.95812 10.9565L7.11048 10.3407L6.26284 10.9565L6.58665 9.96006L5.73901 9.34435H6.78672L7.11048 8.34784Z" fill="#F0F0F0"/>
<path d="M4.36752 5.73914L4.69133 6.73565H5.73903L4.89134 7.35135L5.21516 8.34782L4.36752 7.73198L3.51992 8.34782L3.84369 7.35135L2.99609 6.73565H4.04375L4.36752 5.73914Z" fill="#F0F0F0"/>
</g>
<defs>
<clipPath id="clip0_1407_16090">
<rect width="24" height="24" fill="white"/>
</clipPath>
</defs>
</svg>
