<svg width="24" height="24" viewBox="0 0 24 24" fill="none" xmlns="http://www.w3.org/2000/svg">
<g clip-path="url(#clip0_1407_16128)">
<path d="M12 24C18.6274 24 24 18.6274 24 12C24 5.37258 18.6274 0 12 0C5.37258 0 0 5.37258 0 12C0 18.6274 5.37258 24 12 24Z" fill="#F0F0F0"/>
<path d="M3.51471 20.4853C-1.17157 15.799 -1.17157 8.20104 3.51471 3.51471C3.51438 3.51523 10.4348 12 10.4348 12L3.51471 20.4853Z" fill="black"/>
<path d="M10.4349 12L1.59162 6.02405C1.31745 6.50063 1.07567 6.99806 0.86792 7.51294L5.3449 12L0.868061 16.4874C1.07562 17.0019 1.31717 17.499 1.59115 17.9753L10.4349 12Z" fill="#FFDA44"/>
<path d="M23.8984 10.4348H10.4345L3.51458 3.51489C2.76889 4.26058 2.12103 5.10391 1.59153 6.02411L7.55586 12L1.59106 17.9752C2.12056 18.8956 2.7687 19.7392 3.51458 20.4851L10.4345 13.5652H23.8984C23.9651 13.0529 24 12.5305 24 12C24 11.4695 23.9651 10.9472 23.8984 10.4348Z" fill="#6DA544"/>
<path d="M4.69385 21.5192C6.71739 23.0746 9.25038 24 11.9999 24C17.5442 24 22.2095 20.2396 23.5865 15.1304H11.0827L4.69385 21.5192Z" fill="#0052B4"/>
<path d="M23.5865 8.86955C22.2095 3.76036 17.5442 0 11.9999 0C9.25038 0 6.71739 0.925359 4.69385 2.48077L11.0826 8.86955H23.5865Z" fill="#D80027"/>
</g>
<defs>
<clipPath id="clip0_1407_16128">
<rect width="24" height="24" fill="white"/>
</clipPath>
</defs>
</svg>
