<svg width="24" height="24" viewBox="0 0 24 24" fill="none" xmlns="http://www.w3.org/2000/svg">
<g clip-path="url(#clip0_1407_16089)">
<path d="M12 24C18.6274 24 24 18.6274 24 12C24 5.37258 18.6274 0 12 0C5.37258 0 0 5.37258 0 12C0 18.6274 5.37258 24 12 24Z" fill="#496E2D"/>
<path d="M16.6957 12H12V24C13.4027 24 14.7488 23.7585 16 23.3163L16.6957 12Z" fill="#D80027"/>
<path d="M20.0001 20.9434C22.4548 18.7462 24.0001 15.5537 24.0001 12H19.3044L20.0001 20.9434Z" fill="#FF9811"/>
<path d="M16 12V23.3163C17.4905 22.7894 18.8458 21.9766 20 20.9435V12H16Z" fill="black"/>
<path d="M22.1738 7.82611H19.0434C19.0434 7.24983 18.5761 6.78262 17.9999 6.78262C17.4236 6.78262 16.9564 7.24983 16.9564 7.82611H13.8259C13.8259 8.40244 14.3279 8.86959 14.9041 8.86959H14.8694C14.8694 9.44592 15.3365 9.91308 15.9129 9.91308C15.9129 10.4894 16.38 10.9566 16.9564 10.9566H19.0434C19.6196 10.9566 20.0868 10.4894 20.0868 9.91308C20.6631 9.91308 21.1303 9.44592 21.1303 8.86959H21.0956C21.6719 8.86955 22.1738 8.40239 22.1738 7.82611Z" fill="#FF9811"/>
</g>
<defs>
<clipPath id="clip0_1407_16089">
<rect width="24" height="24" fill="white"/>
</clipPath>
</defs>
</svg>
