<svg width="24" height="24" viewBox="0 0 24 24" fill="none" xmlns="http://www.w3.org/2000/svg">
<path fill-rule="evenodd" clip-rule="evenodd" d="M19.7666 17.6453C21.1682 15.7991 22 13.4967 22 11C22 4.92487 17.0751 0 11 0C4.92487 0 0 4.92487 0 11C0 17.0751 4.92487 22 11 22C13.4967 22 15.7991 21.1682 17.6453 19.7666L21.4393 23.5607C22.0251 24.1464 22.9749 24.1464 23.5607 23.5607C24.1464 22.9749 24.1464 22.0251 23.5607 21.4393L19.7666 17.6453ZM11 16.5C10.1716 16.5 9.5 15.8284 9.5 15V12.5H7C6.17157 12.5 5.5 11.8284 5.5 11C5.5 10.1716 6.17157 9.5 7 9.5H9.5V7C9.5 6.17157 10.1716 5.5 11 5.5C11.8284 5.5 12.5 6.17157 12.5 7V9.5H15C15.8284 9.5 16.5 10.1716 16.5 11C16.5 11.8284 15.8284 12.5 15 12.5H12.5V15C12.5 15.8284 11.8284 16.5 11 16.5Z" fill="#273142"/>
</svg>
