<svg width="24" height="24" viewBox="0 0 24 24" fill="none" xmlns="http://www.w3.org/2000/svg">
<g clip-path="url(#clip0_1407_16054)">
<path d="M12 24C18.6274 24 24 18.6274 24 12C24 5.37258 18.6274 0 12 0C5.37258 0 0 5.37258 0 12C0 18.6274 5.37258 24 12 24Z" fill="#F0F0F0"/>
<path d="M22.8514 6.872C22.2417 5.58416 21.4096 4.42245 20.4046 3.43597L11.9999 2.60867L3.59525 3.43602C3.56843 3.46231 3.54228 3.48922 3.51575 3.5158L6.872 6.87205L11.9999 7.02866L22.8514 6.872Z" fill="#FFDA44"/>
<path d="M3.51562 20.4843C3.55978 20.5285 3.60384 20.5727 3.64866 20.6162L12 21.3913L20.3512 20.6162C21.3665 19.6318 22.2088 18.47 22.827 17.1801L7.30425 16.6956C5.96864 18.0313 4.42814 19.5717 3.51562 20.4843Z" fill="#FFDA44"/>
<path d="M23.8807 10.308L9.91309 9.91302L12.0001 12C11.3819 12.6181 10.4591 13.5409 9.91309 14.087L23.8734 13.7441C23.9564 13.1746 24.0001 12.5924 24.0001 12C24.0001 11.4256 23.9588 10.8609 23.8807 10.308Z" fill="black"/>
<path d="M12 0C8.72684 0 5.76031 1.31109 3.59534 3.43603H20.4047C18.2397 1.31109 15.2732 0 12 0Z" fill="#6DA544"/>
<path d="M10.308 10.308H23.8806C23.7094 9.09496 23.357 7.94024 22.8514 6.87201H6.87195L10.308 10.308Z" fill="#D80027"/>
<path d="M6.81982 17.1801H22.8271C23.3387 16.1127 23.6966 14.9578 23.8734 13.7441H10.2559C8.92521 15.0748 7.7975 16.2025 6.81982 17.1801Z" fill="#D80027"/>
<path d="M12 24C15.2463 24 18.191 22.7104 20.3512 20.6161H3.6488C5.80899 22.7104 8.75368 24 12 24Z" fill="#6DA544"/>
<path d="M4.28504 2.80942C4.01827 3.03357 3.76088 3.26856 3.51465 3.5147L12 12L3.51465 20.4853C3.76084 20.7315 4.01827 20.9664 4.28504 21.1906L13.4756 12L4.28504 2.80942Z" fill="black"/>
<path d="M4.82455 8.86954L5.6015 11.2609H8.11611L6.08183 12.739L6.85883 15.1304L4.82455 13.6524L2.79022 15.1304L3.56732 12.739L1.53308 11.2609H4.04755L4.82455 8.86954Z" fill="#D80027"/>
<path d="M6.96184 12.1957L4.93694 11.4783C4.93694 11.4783 4.78731 10.0747 4.77827 10.0271C4.70955 9.66512 4.39141 9.39133 4.00937 9.39133C3.57719 9.39133 3.22675 9.74172 3.22675 10.174C3.22675 10.2456 3.2372 10.3147 3.25525 10.3807L2.6875 10.9522H3.697C3.697 12 2.91512 12 2.91512 13.0435L3.34886 14.087H5.95755L6.39236 13.0435H6.39217C6.43572 12.9434 6.46216 12.8401 6.47308 12.7369C6.84789 12.5853 6.96184 12.1957 6.96184 12.1957Z" fill="#FFDA44"/>
</g>
<defs>
<clipPath id="clip0_1407_16054">
<rect width="24" height="24" fill="white"/>
</clipPath>
</defs>
</svg>
